<svg xmlns="http://www.w3.org/2000/svg"><defs><font horiz-adv-x="1347"><font-face units-per-em="2048" ascent="1536" descent="-512"/><glyph unicode="ij" horiz-adv-x="1017" d="M662 1024h294L766 127q223 107 313 303l-8-162q-19-89-103-142.5T745 33l-40-197q-72-348-369-348-97 0-169.5 62T94-291q0 55 19 99t47.5 73.5 78 56T333-20t113 36zm-216 0L229 0H-63l217 1024h292zm-266 270q0 68 47.5 116t114.5 48q68 0 116-48t48-116q0-67-48-114t-116-47-115 47-47 114zm504 4q0 68 47.5 116t114.5 48q68 0 116-48t48-116q0-67-48-114t-116-47-115 47-47 114zM207-262q0-23 25-45.5t57-22.5q36 0 69 38.5T408-170l24 119q-108-36-166.5-85T207-262z"/><glyph unicode="ff" horiz-adv-x="1153" d="M-117-512q-97 0-169 62t-72 159q0 55 19.5 99t48 73 79 55.5T-117-21-4 16l246 1170q18 84 49.5 148t68.5 101.5 83 60.5 86 30.5 85 7.5q70 0 130.5-35t89.5-94q102 129 280 129 97 0 169.5-62t72.5-159q0-47-6-84h-97q4 40 4 55 0 34-22 52t-55 18q-103 0-140-162l-36-168h204l-18-82H987L756-164q-18-84-50-148t-68.5-101.5T555-474t-86.5-30.5T383-512q-166 0-221 129-99-129-279-129zM487 942L305 76l211 37 174 829H487zM217-289q22-41 119-41 34 0 68 38.5T457-170l49 233-211-38q-51-247-78-314zm541 1573q0 34-22.5 52t-55.5 18q-102 0-139-162l-37-168h203l34 162q17 74 17 98zM-233-262q0-23 24.5-45.5T-152-330q36 0 70 38.5T-31-170L-6-51q-109-36-168-85t-59-126z"/><glyph unicode="fi" horiz-adv-x="1148" d="M909 1133q-69 0-104 24t-35 86q0 42 17 73.5t44 31.5q13 0 19-2-3 69-111 69-93 0-162.5-66T487 1192l-34-168h206l-16-82H436L203-164q-18-84-50-148T84.5-413.5 2-474t-86.5-30.5-85.5-7.5q-97 0-169.5 62T-412-291q0 55 19.5 99t48 73 79.5 55.5 95 42.5 113 37l245 1170q17 84 57.5 148.5t88 101 106 60 106 31 93.5 7.5q52 0 95.5-3.5t93.5-12 88.5-26.5 71-44.5 50-68.5 17.5-95q0-65-46-108t-100-43zM-299-262q0-23 25-45.5t57-22.5q36 0 70 38.5T-96-170l24 119q-109-36-168-85t-59-126zM729 1024h297L879 328q-11-42-11-66 0-37 23-56.5t80-19.5q29 0 67 20.5t66 43.5 73.5 62.5T1241 367h70q-13-13-56.5-58.5T1178 229t-84.5-80-93-76T911 21.5 825 0Q571 0 571 223q0 42 13 105z"/><glyph unicode="fl" horiz-adv-x="1185" d="M-283-262q0-23 25-45.5t57-22.5q36 0 70 38.5T-80-170l25 119q-109-36-168.5-85T-283-262zm1403 1655L895 328q-10-38-10-66 0-37 22.5-56.5T987 186q29 0 67 20.5t66 43.5 73.5 62.5T1257 367h70q-14-14-57-59t-76-79-84-80-93-76-89.5-51.5T842 0Q720 0 654 55t-66 168q0 47 12 105l221 1044q-35 15-88 24t-80 9q-105 0-139-162l-45-219h190l-16-82H453L219-164q-18-84-50-148t-68.5-101.5T18-474t-86.5-30.5-85.5-7.5q-97 0-169 62t-72 159q0 55 19.5 99t48 73 79 55.5T-154-21t113 37l246 1170q18 84 50 148t69 101 83 60.5 86.5 31 84.5 7.5q86 0 185.5-22t170.5-47.5 186-71.5z"/><glyph unicode="ffi" horiz-adv-x="1501" d="M936 1024h491l-145-696q-10-58-10-66 0-37 22.5-56.5T1374 186q29 0 67.5 20.5T1508 250t73.5 63 63.5 54h69q-14-14-57-59t-76-79-84-80-93-76-89.5-51.5T1229 0q-122 0-188 55t-66 168q0 47 12 105l127 614H920L690-164q-18-84-50-148t-68.5-101.5T489-474t-86.5-30.5T317-512q-77 0-135 35.5T96-377Q-3-512-186-512q-97 0-169.5 62T-428-291q0 55 19.5 99t48 73 79 55.5T-187-21t113 37l246 1170q18 84 50 148t68.5 101.5T373 1496t86.5 30.5 85.5 7.5q73 0 135.5-37.5T770 1395q116 139 322 139 66 0 108-3t89.5-15.5 76.5-36 52.5-65T1452 1313q2-10 2-29 0-64-46-107.5t-99-43.5q-69 0-104.5 24t-35.5 86q0 44 16 74.5t48 30.5l16-2q-1 39-16.5 54t-48.5 15q-16 0-31-2t-43-14.5-50.5-34-46.5-66.5-38-106zm-514-82L238 74l211 37 176 831H422zM154-274v-9q0-24 28.5-41.5T270-342q31 0 67.5 44.5T391-170l47 231-213-45-39-180q-6-23-32-110zm530 1503q4 40 4 55 0 34-22.5 52t-55.5 18q-19 0-37-6.5t-38.5-22.5-37-50-26.5-83l-33-168h203q43 204 43 205zM-303-262q0-23 25-45.5t57-22.5q36 0 70 38.5t51 121.5l24 119q-109-36-168-85t-59-126z"/><glyph unicode="ffl" horiz-adv-x="1566" d="M1040 1536q132 0 247.5-34.5T1554 1389L1331 328q-10-38-10-66 0-37 22.5-56.5T1423 186q29 0 67.5 20.5T1557 250t73.5 63 63.5 54h69q-14-14-57-59t-76-79-84-80-93-76-89.5-51.5T1278 0q-122 0-188 55t-66 168q0 47 12 105l221 1044q-76 33-131 33-100 0-139-162l-51-219h197l-17-82H920L692-164q-18-84-50-148t-69.5-101-83.5-60.5-86-31-84-7.5q-67 0-134 30T78-401q-98-111-262-111-97 0-169.5 62T-426-291q0 55 19.5 99t48 73 79 55.5T-185-21t113 37l246 1170q18 84 50 148t68.5 101.5T375 1496t86.5 30.5 85.5 7.5q70 0 131-35.5t90-95.5q98 133 272 133zM422 942L238 76l215 35 174 831H422zM252-338q38 0 80.5 42.5T393-170l49 231-217-45-37-180q-17-78-47-143 33-31 111-31zm391 1362l35 162q8 39 8 74 0 94-74 94-105 0-139-162l-35-168h205zM-301-262q0-23 25-45.5t57-22.5q36 0 70 38.5T-98-170l24 119q-109-36-168-85t-59-126z"/><glyph unicode="Th" horiz-adv-x="2039" d="M203 942q0-46 6.5-76t14-44.5T231 803q-110 0-164.5 45.5T12 1001q0 83 26 160t82.5 145.5T260 1425t204.5 79.5T733 1534q33 0 233.5-26.5T1286 1481q173 0 248 49-31-56-48.5-100t-49.5-173-78-362q166 129 293 129 86 0 160.5-78t74.5-178q0-33-4-49l-84-391q-10-42-10-66 0-37 22.5-56.5T1890 186q29 0 67.5 20.5T2024 250t73.5 63 63.5 54h69q-14-14-57-59t-76-79-84-80-93-76-89.5-51.5T1745 0q-254 0-254 223 0 47 12 105l78 368q6 27 6 54 0 55-26 87.5t-68 32.5q-75 0-152-59-75-389-151-811H895l281 1307q-20 2-271 34L616 0H322l292 1360q-91-4-161-25t-128.5-66.5-90-127.5T203 942z"/><glyph unicode="Ti" horiz-adv-x="1536" d="M1116 1024h295l-147-696q-9-52-9-64 0-37 22.5-57.5T1358 186q29 0 67 20.5t66 43.5 73.5 62.5T1628 367h70q-13-13-56.5-58.5T1565 229t-84.5-80-93-76-89.5-51.5T1212 0q-122 0-189 55t-67 168q0 42 13 105zM322 0l294 1374q-44 6-81 6-74 0-131.5-21.5t-104-70-71.5-136T203 942q0-46 6.5-76t14-44.5T231 803q-110 0-164.5 45.5T12 1001q0 106 39 198.5t119.5 169 219 121T711 1534q27 0 219-16.5t307-16.5q167 0 236 29 28-88 28-160 0-54-16.5-94t-43-61.5-54-31-56.5-9.5q-33 0-86 13.5t-98 29-125 44.5-125 44L616 0H322z"/><glyph unicode="as" horiz-adv-x="1746" d="M649 1024h293L797 328q-11-57-11-76 0-66 64-66 33 0 86 76 0 122 45.5 193.5T1092 532q82 148 155 472l297 61v-29q0-93 14-175.5t34.5-142.5 40.5-115 34.5-118.5T1683 356l-2-43q85 76 134 133l53-69q-26-20-221-187-42-89-133-139.5T1286 0q-145 0-227 37.5T950 162Q822 0 743 0 539 0 498 160 376-12 217-12q-71 0-122.5 23t-79 62-40 82.5T-37 248q0 112 16 216.5T34.5 672t99 179.5 154 123.5 212.5 47q76 0 137-51zM502 328l114 542q-42 37-100 37-74 0-139-93T276 582t-36-279q0-145 118-145 59 0 134 104 0 28 10 66zm747 80q0-57-40-94.5t-95-37.5q-30 0-72 17-4-20-4-33 0-62 55-100.5t121-38.5q60 0 115 67.5t55 176.5q0 50-23 120t-47 165.5-26 205.5q-5-16-42-145t-64-189q67-22 67-114z"/><glyph unicode="asx" horiz-adv-x="2445" d="M1651 1024h297l104-420q87 73 146.5 154.5T2261 909q-24-4-35-4-50 0-73 32t-23 83q0 50 39 75t100 25q56 0 85.5-54t29.5-130q0-146-305-432l47-187q17-73 40.5-102t86.5-29q29 0 67 20.5t66 43.5 73.5 62.5T2523 367h70q-13-13-56.5-58.5T2460 229t-84.5-80-93-76-89.5-51.5T2107 0q-57 0-94 7.5T1945 34t-51.5 56.5T1857 181t-32 136l-6 21q-101-89-172-148-42-89-133-139.5T1286 0q-145 0-227 37.5T950 162Q822 0 743 0 539 0 498 160 376-12 217-12q-71 0-122.5 23t-79 62-40 82.5T-37 248q0 112 16 216.5T34.5 672t99 179.5 154 123.5 212.5 47q76 0 137-51l12 53h293L797 328q-11-57-11-76 0-66 64-66 33 0 86 76 0 122 45.5 193.5T1092 532q82 148 155 472l297 61v-29q0-93 14-175.5t34.5-142.5 40.5-115 34.5-118.5T1683 356l-2-43q45 41 117 113zM502 328l114 542q-42 37-100 37-74 0-139-93T276 582t-36-279q0-145 118-145 59 0 134 104 0 28 10 66zm747 80q0-57-40-94.5t-95-37.5q-30 0-72 17-4-20-4-33 0-62 55-100.5t121-38.5q60 0 115 67.5t55 176.5q0 50-23 120t-47 165.5-26 205.5q-5-16-42-145t-64-189q67-22 67-114z"/><glyph unicode="asz" horiz-adv-x="2504" d="M649 1024h293L797 328q-11-57-11-76 0-66 64-66 33 0 86 76 0 120 45.5 191.5T1092 530q32 62 62 152t44.5 149.5T1237 999l297 62v-29q0-114 23.5-214.5t51-161 51-141T1683 356q0-73-24-136t-70.5-113T1464 28.5 1286 0q-145 0-227 37.5T950 162Q822 0 743 0 539 0 498 160 376-12 217-12q-71 0-122.5 23t-79 62-40 82.5T-37 248q0 112 16 216.5T34.5 672t99 179.5 154 123.5 212.5 47q76 0 137-51zm1575-897q-14 0-25.5 16t-11.5 41q0 66 37 95.5t94 29.5q42 0 69.5-34.5T2415 190q0-83-61.5-136.5T2175 0h-551l539 938q-94 4-150 4-112 0-112-45 14 0 24-16.5t10-42.5q0-123-129-123-42 0-69 34.5t-27 84.5q0 83 61.5 136.5T1950 1024h551L1962 86q94-4 149-4 113 0 113 45zM502 328l114 542q-42 37-100 37-74 0-139-93T276 582t-36-279q0-145 118-145 59 0 134 104 0 28 10 66zm747 80q-1-58-40.5-95t-94.5-37q-30 0-72 17-4-20-4-33 0-62 55-100.5t121-38.5q60 0 115 67.5t55 176.5q0 50-23 120t-47 165.5-26 205.5q-5-16-42-145t-64-189q67-22 67-114z"/><glyph unicode="az" horiz-adv-x="1814" d="M942 1024L795 328q-11-46-11-70 0-76 74-76 37 0 53 6-20-63-46-103t-56.5-57.5T754 5t-56-5Q529 0 496 156 374-12 217-12q-71 0-122.5 23t-79 62-40 82.5T-37 248q0 112 16 216.5T34.5 672t99 179.5 154 123.5 212.5 47q76 0 137-51l12 53h293zm569-897q-14 0-25 16t-11 41q0 66 37 95.5t94 29.5q42 0 69-34.5t27-84.5q0-83-61.5-136.5T1462 0H911l539 938q-94 4-150 4-112 0-112-45 14 0 24.5-17t10.5-42q0-123-129-123-42 0-69.5 34.5T997 834q0 83 61.5 136.5T1237 1024h551L1249 86q94-4 150-4 112 0 112 45zM502 328l114 542q-42 37-100 37-74 0-139-93T276 582t-36-279q0-145 118-145 59 0 134 104 0 28 10 66z"/><glyph unicode="ás" horiz-adv-x="1796" d="M649 1024h293L797 328q-11-57-11-76 0-66 64-66 33 0 86 76 0 122 45.5 193.5T1092 532q82 148 155 472l297 61v-29q0-93 14-175.5t34.5-142.5 40.5-115 34.5-118.5T1683 356l-2-43q85 76 134 133l53-69q-26-20-221-187-42-89-133-139.5T1286 0q-145 0-227 37.5T950 162Q822 0 743 0 539 0 498 160 376-12 217-12q-71 0-122.5 23t-79 62-40 82.5T-37 248q0 112 16 216.5T34.5 672t99 179.5 154 123.5 212.5 47q76 0 137-51zM502 328l114 542q-42 37-100 37-74 0-139-93T276 582t-36-279q0-145 118-145 59 0 134 104 0 28 10 66zm747 80q0-57-40-94.5t-95-37.5q-30 0-72 17-4-20-4-33 0-62 55-100.5t121-38.5q60 0 115 67.5t55 176.5q0 50-23 120t-47 165.5-26 205.5q-5-16-42-145t-64-189q67-22 67-114zm-753 741l186 387h215l-248-387H496z"/><glyph unicode="ásx" horiz-adv-x="2445" d="M1651 1024h297l104-420q87 73 146.5 154.5T2261 909q-24-4-35-4-50 0-73 32t-23 83q0 50 39 75t100 25q56 0 85.5-54t29.5-130q0-146-305-432l47-187q17-73 40.5-102t86.5-29q29 0 67 20.5t66 43.5 73.5 62.5T2523 367h70q-13-13-56.5-58.5T2460 229t-84.5-80-93-76-89.5-51.5T2107 0q-57 0-94 7.5T1945 34t-51.5 56.5T1857 181t-32 136l-6 21q-101-89-172-148-42-89-133-139.5T1286 0q-145 0-227 37.5T950 162Q822 0 743 0 539 0 498 160 376-12 217-12q-71 0-122.5 23t-79 62-40 82.5T-37 248q0 112 16 216.5T34.5 672t99 179.5 154 123.5 212.5 47q76 0 137-51l12 53h293L797 328q-11-57-11-76 0-66 64-66 33 0 86 76 0 122 45.5 193.5T1092 532q82 148 155 472l297 61v-29q0-93 14-175.5t34.5-142.5 40.5-115 34.5-118.5T1683 356l-2-43q45 41 117 113zM502 328l114 542q-42 37-100 37-74 0-139-93T276 582t-36-279q0-145 118-145 59 0 134 104 0 28 10 66zm747 80q0-57-40-94.5t-95-37.5q-30 0-72 17-4-20-4-33 0-62 55-100.5t121-38.5q60 0 115 67.5t55 176.5q0 50-23 120t-47 165.5-26 205.5q-5-16-42-145t-64-189q67-22 67-114zm-753 741l186 387h215l-248-387H496z"/><glyph unicode="ász" horiz-adv-x="2455" d="M649 1024h293L797 328q-11-57-11-76 0-66 64-66 33 0 86 76 0 120 45.5 191.5T1092 530q32 62 62 152t44.5 149.5T1237 999l297 62v-29q0-114 23.5-214.5t51-161 51-141T1683 356q0-73-24-136t-70.5-113T1464 28.5 1286 0q-145 0-227 37.5T950 162Q822 0 743 0 539 0 498 160 376-12 217-12q-71 0-122.5 23t-79 62-40 82.5T-37 248q0 112 16 216.5T34.5 672t99 179.5 154 123.5 212.5 47q76 0 137-51zm1575-897q-14 0-25.5 16t-11.5 41q0 66 37 95.5t94 29.5q42 0 69.5-34.5T2415 190q0-83-61.5-136.5T2175 0h-551l539 938q-94 4-150 4-112 0-112-45 14 0 24-16.5t10-42.5q0-123-129-123-42 0-69 34.5t-27 84.5q0 83 61.5 136.5T1950 1024h551L1962 86q94-4 149-4 113 0 113 45zM502 328l114 542q-42 37-100 37-74 0-139-93T276 582t-36-279q0-145 118-145 59 0 134 104 0 28 10 66zm747 80q-1-58-40.5-95t-94.5-37q-30 0-72 17-4-20-4-33 0-62 55-100.5t121-38.5q60 0 115 67.5t55 176.5q0 50-23 120t-47 165.5-26 205.5q-5-16-42-145t-64-189q67-22 67-114zm-753 741l186 387h215l-248-387H496z"/><glyph unicode="bs" horiz-adv-x="1628" d="M203 1393l303 41-98-465q79 59 176 59 71 0 123.5-23t81-62 42-83 13.5-92q0-41-8-127 160 125 286 348l277 62v-37q0-112 20.5-209.5t45-155.5 45-136.5T1530 356q0-42-4-65 110 96 174 172l53-86q-16-18-38.5-39.5t-39-36.5-50-41.5-45.5-36-53-41.5-48-37Q1388 0 1159 0q-157 0-238 53t-81 174q0 66 17 120.5t42.5 87 56 55.5 55.5 31.5 44 8.5q57 0 81.5-29.5T1161 408q0-58-44-102t-101-44q-40 0-72 25-6-21-6-41 0-59 42.5-92t117.5-33q58 0 107.5 66t49.5 175q0 50-19.5 120.5t-39.5 167-22 206.5q-60-85-161.5-183T809 502q-22-81-53.5-153T678 211 577.5 97.5 451.5 22 301-6 162 6 56.5 44.5t-69.5 72T-37 227q0 45 12 101zm411-639q0 83-34.5 117T498 905q-18 0-58.5-9T387 877L270 328q-16-78-16-113 0-44 21-60t69-16 94 53.5 77.5 128T571 487q-26 23-26 66 0 37 17 72t46 57q6 44 6 72z"/><glyph unicode="bsx" horiz-adv-x="2297" d="M203 1393l303 41-98-465q79 59 176 59 71 0 123.5-23t81-62 42-83 13.5-92q0-60-10-135 169 126 299 356l276 62q0-100 16.5-186t39.5-146 46-114.5 39.5-118T1567 356q0-36-6-71 81 69 153 145l-145 594h297l104-420q87 73 146.5 154.5T2179 909q-24-4-35-4-50 0-73 32t-23 83q0 50 39 75t100 25q56 0 85.5-54t29.5-130q0-146-305-432l47-187q17-73 40.5-102t86.5-29q29 0 67 20.5t66 43.5 73.5 62.5T2441 367h70q-13-13-56.5-58.5T2378 229t-84.5-80-93-76-89.5-51.5T2025 0q-57 0-94 7.5T1863 34t-51.5 56.5T1775 181t-32 136l-6 27q-14-12-100.5-86.5T1505 147Q1403 0 1169 0q-150 0-238.5 65T842 246q0 122 61 205.5t119 83.5q80 0 114.5-28.5T1171 408q0-58-44-102t-101-44q-40 0-72 25-2-10-2-31 0-61 40-98t116-37q59 0 109.5 65.5T1268 362q0 50-20 120.5t-41 167-23 206.5q-67-94-172-197.5T803 485q-27-99-71-184.5T626.5 145 481 34.5 301-6Q222-6 162 6T56.5 44.5t-69.5 72T-37 227q0 45 12 101zm411-639q0 83-34.5 117T498 905q-18 0-58.5-9T387 877L270 328q-16-78-16-113 0-44 21-60t69-16q59 0 112.5 74.5t86 178.5 52 203T614 754z"/><glyph unicode="bsz" horiz-adv-x="2416" d="M203 1393l303 41-98-465q79 59 176 59 71 0 123.5-23t81-62 42-83 13.5-92q0-61-10-143 175 129 307 364l276 62q0-122 20.5-226.5t45-165 45-141.5 20.5-162q0-75-19.5-136.5t-61.5-112-115.5-79T1178 0q-150 0-239 65t-89 181q0 122 61 205.5t119 83.5q80 0 115-28.5t35-98.5q0-58-44.5-102T1034 262q-39 0-71 25-2-10-2-31 0-61 40-98t115-37q59 0 108.5 65.5T1274 362q0 50-19.5 120.5t-40 167T1192 856q-69-97-177.5-203T801 479q-28-98-72.5-182.5T623 142.5t-144-109T301-6Q222-6 162 6T56.5 44.5t-69.5 72T-37 227q0 45 12 101zM2105 127q-14 0-25.5 16t-11.5 41q0 66 37.5 95.5T2200 309q42 0 69-34.5t27-84.5q0-83-61.5-136.5T2056 0h-551l539 938q-94 4-150 4-112 0-112-45 14 0 24.5-17t10.5-42q0-123-129-123-42 0-69.5 34.5T1591 834q0 83 61.5 136.5T1831 1024h551L1843 86q94-4 150-4 112 0 112 45zM614 754q0 83-34.5 117T498 905q-18 0-58.5-9T387 877L270 328q-16-78-16-113 0-44 21-60t69-16q59 0 112.5 74.5t86 178.5 52 203T614 754z"/><glyph unicode="cx" horiz-adv-x="1484" d="M758 1024h297l90-424q176 169 190 281-24-4-35-4-96 0-96 114 0 50 39.5 75.5t99.5 25.5q51 0 85-44t34-104q0-68-81-190t-214-258l39-179q8-39 14-57t18.5-38.5 33.5-28 55-7.5q29 0 67 20.5t66 43.5 73.5 62.5T1597 367h70q-14-14-57-59t-76-79-84-80-93-76-89.5-51.5T1182 0q-70 0-108 8t-69 39-48.5 81.5T918 274Q754 148 592.5 73T295-2q-84 0-155.5 35.5T20.5 148-27 336q0 95 16 187.5T44.5 709t98 163 151 114 206.5 44q225 0 225-141 0-34-10-68H598q10 38 10 58 0 69-76 69-81 0-148-94T283.5 634.5 250 393q0-40 7-75.5t23.5-69.5 49.5-54 80-20q79 0 210 61t271 158z"/><glyph unicode="cz" horiz-adv-x="1566" d="M274 0Q137 0 55 82t-82 254q0 95 16 187.5T44.5 709t98 163 151 114 206.5 44q209 0 209-141 0-31-11-68H582q10 38 10 58 0 37-13.5 53T532 948q-81 0-148-94T283.5 634.5 250 393q0-219 147-219 149 0 287 121 0-135-109-215T274 0zm990 127q-14 0-25.5 16t-11.5 41q0 66 37 95.5t94 29.5q42 0 69-34.5t27-84.5q0-83-61.5-136.5T1214 0H664l559 938q-25 0-71 2t-65 2q-46 0-70-9.5T993 897q14 0 24.5-17t10.5-42q0-123-129-123-42 0-69 34.5T803 834q0 83 61 136.5t178 53.5h519L1001 86q94-4 150-4 113 0 113 45z"/><glyph unicode="es" horiz-adv-x="1449" d="M240 324q0-93 49-135t119-42q112 0 206 150 6 104 51 167t105 68q84 151 156 472l297 61v-29q0-93 14.5-175.5t35-142 40.5-115 34.5-118.5 14.5-129q0-29-2-43 80 72 133 133l53-69q-26-20-221-187-42-89-132.5-139.5T965 0Q813 0 730 41T623 178Q482 0 266 0 124 0 43.5 93.5T-37 326q0 69 10 143.5t31.5 157T65 782t90 132 126 93.5 165 34.5q128 0 195.5-53.5T709 829q0-89-44.5-166T550 535.5t-148.5-82T246 412q-6-50-6-88zm688 84q0-57-40-94.5T793 276q-34 0-74 19 0-174 174-174 60 0 115 67.5t55 176.5q0 50-23 120t-47 165.5T967 856q-4-13-42-143t-65-191q68-22 68-114zM586 819q0 27-4.5 50t-22 44-45.5 21q-54 0-106.5-68T320 706.5 262 510q90 1 165.5 48T544 675.5 586 819z"/><glyph unicode="esx" horiz-adv-x="2177" d="M1364 1024h297l104-420q87 73 146.5 154.5T1974 909q-24-4-35-4-50 0-73 32t-23 83q0 50 39 75t100 25q57 0 86-49.5t29-124.5q0-148-305-442l47-187q17-73 40.5-102t86.5-29q29 0 67 20.5t66 43.5 73.5 62.5T2236 367h70q-14-14-57-59t-76-79-84-80-93-76-89.5-51.5T1821 0q-71 0-113.5 11.5t-76 47-53.5 95-40 163.5l-10 39q-1 0-76.5-65.5T1333 190q-42-89-132.5-139.5T973 0Q818 0 735 43T631 186Q561 96 474 48T266 0Q124 0 43.5 93.5T-37 326q0 69 10 143.5t31.5 157T65 782t90 132 126 93.5 165 34.5q128 0 195.5-53.5T709 829q0-89-44.5-166T550 535.5t-148.5-82T246 412q-6-50-6-88 0-93 49-135t119-42q118 0 217 164 9 99 52 157.5T778 532q84 151 156 472l297 61v-29q0-93 14.5-175.5t35-142 40.5-115 34.5-118.5 14.5-129q0-29-2-43 80 72 133 133l6-10zM936 408q0-57-40-94.5T801 276q-34 0-74 19 0-174 174-174 60 0 115 67.5t55 176.5q0 50-23 120t-47 165.5T975 856q-4-13-42-143t-65-191q68-22 68-114zM586 819q0 27-4.5 50t-22 44-45.5 21q-54 0-106.5-68T320 706.5 262 510q90 1 165.5 48T544 675.5 586 819z"/><glyph unicode="esz" horiz-adv-x="2162" d="M240 324q0-93 49-135t119-42q106 0 200 140 4 110 48.5 174T764 530q32 62 62 152t44.5 149.5T909 999l297 62v-29q0-93 15.5-175t37.5-141 44-114 37.5-117.5T1356 356q0-153-101-254.5T958 0Q807 0 724.5 39.5T618 172Q550 89 466 44.5T266 0Q124 0 43.5 93.5T-37 326q0 69 10 143.5t31.5 157T65 782t90 132 126 93.5 165 34.5q128 0 195.5-53.5T709 829q0-89-44.5-166T550 535.5t-148.5-82T246 412q-6-50-6-88zm1642-197q-14 0-25.5 16t-11.5 41q0 66 37 95.5t94 29.5q42 0 69.5-34.5T2073 190q0-83-61.5-136.5T1833 0h-551l539 938q-94 4-150 4-112 0-112-45 14 0 24-16.5t10-42.5q0-123-129-123-42 0-69 34.5t-27 84.5q0 83 61.5 136.5T1608 1024h551L1620 86q94-4 149-4 113 0 113 45zM922 408q-1-57-41-94.5T786 276q-33 0-73 19 0-174 174-174 60 0 115 67.5t55 176.5q0 50-23 120t-47 165.5T961 856q-4-13-42-143t-65-191q68-22 68-114zM586 819q0 27-4.5 50t-22 44-45.5 21q-54 0-106.5-68T320 706.5 262 510q90 1 165.5 48T544 675.5 586 819z"/><glyph unicode="ex" horiz-adv-x="1478" d="M778 1024h297l70-414q82 91 134.5 171.5T1341 911q-24-4-34-4-50 0-73.5 32t-23.5 83q0 50 39.5 75t100.5 25q51 0 87-38t36-105q0-78-77.5-208.5T1165 485l29-168q12-72 34.5-101.5T1315 186q29 0 67 20.5t66 43.5 73.5 62.5T1585 367h70q-13-13-56.5-58.5T1522 229t-84.5-80-93-76-89.5-51.5T1169 0q-65 0-105 10t-71.5 39-49.5 78.5T909 260Q560 2 276 2 134 2 53.5 95T-27 326q0 69 10.5 143.5t32 157 60 155.5 90 132 126.5 93.5 165 34.5q127 0 194.5-53.5T719 829q0-89-44.5-166T560 535.5t-148.5-82T256 412q-6-50-6-88 0-93 49-133.5T418 150q190 0 471 223zM596 819q0 27-4.5 50t-22 44-45.5 21q-54 0-106.5-68T330 706.5 272 510q90 1 165.5 48T554 675.5 596 819z"/><glyph unicode="ez" horiz-adv-x="1574" d="M233 0Q91 0 10.5 93.5T-70 326q0 69 10.5 143.5t32 157 60 155.5 90 132 126.5 93.5 165 34.5q127 0 194.5-53.5T676 829q0-89-44.5-166T517 535.5t-148.5-82T213 412q-6-50-6-88 0-177 147-177 67 0 129 34t133 98Q616 0 233 0zm1031 127q-14 0-25.5 16t-11.5 41q0 66 37 95.5t94 29.5q42 0 69-34.5t27-84.5q0-83-61.5-136.5T1214 0H664l538 938q-24 0-70 2t-65 2q-46 0-70-9.5T973 897q14 0 24.5-17t10.5-42q0-123-129-123-42 0-69.5 34.5T782 834q0 83 61.5 136.5T1022 1024h518L1001 86q94-4 150-4 113 0 113 45zM553 819q0 27-4.5 50t-22 44-45.5 21q-54 0-106.5-68T287 706.5 229 510q90 1 165.5 48T511 675.5 553 819z"/><glyph unicode="és" horiz-adv-x="1460" d="M240 324q0-93 49-135t119-42q112 0 206 150 6 104 51 167t105 68q84 151 156 472l297 61v-29q0-93 14.5-175.5t35-142 40.5-115 34.5-118.5 14.5-129q0-29-2-43 80 72 133 133l53-69q-26-20-221-187-42-89-132.5-139.5T965 0Q813 0 730 41T623 178Q482 0 266 0 124 0 43.5 93.5T-37 326q0 69 10 143.5t31.5 157T65 782t90 132 126 93.5 165 34.5q128 0 195.5-53.5T709 829q0-89-44.5-166T550 535.5t-148.5-82T246 412q-6-50-6-88zm688 84q0-57-40-94.5T793 276q-34 0-74 19 0-174 174-174 60 0 115 67.5t55 176.5q0 50-23 120t-47 165.5T967 856q-4-13-42-143t-65-191q68-22 68-114zM586 819q0 27-4.5 50t-22 44-45.5 21q-54 0-106.5-68T320 706.5 262 510q90 1 165.5 48T544 675.5 586 819zm-90 330l186 387h215l-248-387H496z"/><glyph unicode="ésx" horiz-adv-x="2148" d="M1346 1024h296l105-420q87 73 146.5 154.5T1956 909q-24-4-35-4-50 0-73 32t-23 83q0 50 39 75t100 25q56 0 85.5-54t29.5-130q0-146-305-432l47-187q17-73 40.5-102t86.5-29q29 0 67 20.5t66 43.5 73.5 62.5T2218 367h70q-13-13-56.5-58.5T2155 229t-84.5-80-93-76-89.5-51.5T1802 0q-95 0-144.5 25.5t-83 98.5-63.5 228q-4-3-76-65.5T1321 190q-42-89-132.5-139.5T961 0Q810 0 727.5 40T621 174Q553 90 468 45T266 0Q124 0 43.5 93.5T-37 326q0 69 10 143.5t31.5 157T65 782t90 132 126 93.5 165 34.5q128 0 195.5-53.5T709 829q0-89-44.5-166T550 535.5t-148.5-82T246 412q-6-50-6-88 0-93 49-135t119-42q110 0 202 144 4 108 49 172t107 69q84 151 156 472l297 61v-29q0-93 14.5-175.5t35-142 40.5-115 34.5-118.5 14.5-129q0-29-2-43 92 86 131 131zM924 408q0-57-40.5-94.5T788 276q-33 0-73 19 0-174 174-174 60 0 115 67.5t55 176.5q0 50-23 120t-47 165.5T963 856q-4-13-42-143t-65-191q68-22 68-114zM586 819q0 27-4.5 50t-22 44-45.5 21q-54 0-106.5-68T320 706.5 262 510q90 1 165.5 48T544 675.5 586 819zm-90 330l186 387h215l-248-387H496z"/><glyph unicode="ész" horiz-adv-x="2156" d="M240 324q0-93 49-135t119-42q104 0 194 132 1 112 46.5 179T758 530q32 62 62 152t44.5 149.5T903 999l297 62v-29q0-93 15.5-175t37.5-141 44-114 37.5-117.5T1350 356q0-153-101-254.5T952 0Q804 0 721.5 38.5T614 168Q546 87 462.5 43.5T266 0Q124 0 43.5 93.5T-37 326q0 69 10 143.5t31.5 157T65 782t90 132 126 93.5 165 34.5q128 0 195.5-53.5T709 829q0-89-44.5-166T550 535.5t-148.5-82T246 412q-6-50-6-88zm1642-197q-14 0-25.5 16t-11.5 41q0 66 37 95.5t94 29.5q42 0 69.5-34.5T2073 190q0-83-61.5-136.5T1833 0h-551l539 938q-94 4-150 4-112 0-112-45 14 0 24-16.5t10-42.5q0-123-129-123-42 0-69 34.5t-27 84.5q0 83 61.5 136.5T1608 1024h551L1620 86q94-4 149-4 113 0 113 45zM915 408q-1-58-40.5-95T780 276q-33 0-73 19 0-174 174-174 60 0 115 67.5t55 176.5q0 41-14.5 94.5t-32.5 102-33.5 128T954 856q-5-16-42-145t-64-189q67-22 67-114zM586 819q0 27-4.5 50t-22 44-45.5 21q-54 0-106.5-68T320 706.5 262 510q90 1 165.5 48T544 675.5 586 819zm-90 330l186 387h215l-248-387H496z"/><glyph unicode="éx" horiz-adv-x="1478" d="M762 1024h297l84-397q164 189 180 284-24-4-35-4-50 0-73 32t-23 83q0 50 39 75t100 25q51 0 87-38t36-105q0-76-71-200t-214-275l41-187q8-39 14-57t18.5-38.5 33.5-28 55-7.5q29 0 67.5 20.5T1465 250t73.5 63 63.5 54h69q-14-14-57-59t-76-79-84-80-93-76-89.5-51.5T1186 0q-68 0-107 9.5t-69 42-48 82.5-38 142Q574 2 276 2 134 2 53.5 95T-27 326q0 69 10.5 143.5t32 157 60 155.5 90 132 126.5 93.5 165 34.5q127 0 194.5-53.5T719 829q0-89-44.5-166T560 535.5t-148.5-82T256 412q-6-50-6-88 0-93 49-133.5T418 150q101 0 227.5 65T899 387zM596 819q0 27-4.5 50t-22 44-45.5 21q-54 0-106.5-68T330 706.5 272 510q90 1 165.5 48T554 675.5 596 819zm-100 330l186 387h215l-248-387H496z"/><glyph unicode="fft" horiz-adv-x="1566" d="M1040 1536q132 0 247.5-34.5T1554 1389l-77-365h65l-16-82h-66l-129-614q-10-38-10-66 0-37 22.5-56.5T1423 186q29 0 67.5 20.5T1557 250t73.5 63 63.5 54h69q-14-14-57-59t-76-79-84-80-93-76-89.5-51.5T1278 0q-122 0-188 55t-66 168q0 47 12 105l129 614H924L692-164q-18-84-50-148t-68.5-101.5T491-474t-86.5-30.5T319-512q-67 0-134 30T78-401q-98-111-262-111-97 0-169.5 62T-426-291q0 55 19.5 99t48 73 79 55.5T-185-21t113 37l246 1170q18 84 50 148t68.5 101.5T375 1496t86.5 30.5 85.5 7.5q70 0 131-35.5t90-95.5q100 133 272 133zM422 942L238 74q23 3 109.5 18.5T453 111l172 831H422zm762 82l73 348q-76 33-131 33-105 0-139-162l-47-219h244zM252-338q38 0 80.5 42.5T393-170l49 231-217-45-37-180q-17-78-47-143 33-31 111-31zm389 1362l45 205q4 40 4 55 0 34-22.5 52t-55.5 18q-105 0-139-162l-35-168h203zM-301-262q0-23 25-45.5t57-22.5q36 0 70 38.5T-98-170l24 119q-109-36-168-85t-59-126z"/><glyph unicode="fix" horiz-adv-x="1816" d="M909 1133q-69 0-104 24t-35 86q0 42 17 73.5t44 31.5q13 0 19-2-3 69-111 69-93 0-162.5-66T487 1192l-34-168h206l-16-82H436L203-164q-18-84-50-148T84.5-413.5 2-474t-86.5-30.5-85.5-7.5q-97 0-169.5 62T-412-291q0 55 19.5 99t48 73 79.5 55.5 95 42.5 113 37l245 1170q17 84 57.5 148.5t88 101 106 60 106 31 93.5 7.5q52 0 95.5-3.5t93.5-12 88.5-26.5 71-44.5 50-68.5 17.5-95q0-65-46-108t-100-43zm209-109h297l76-446q70 73 117.5 154.5T1659 879q-30-5-35-5-50 0-73 32t-23 83q0 50 39 75.5t100 25.5q56 0 85.5-54.5T1782 905q0-59-48-145t-103-154.5T1509 467l27-150q12-72 34.5-101.5T1657 186q29 0 67 20.5t66 43.5 73.5 62.5T1927 367h70q-13-13-56.5-58.5T1864 229t-84.5-80-93-76-89.5-51.5T1511 0q-122 0-169.5 45T1257 240q-110-96-232-168T825 0Q571 0 571 223q0 42 13 105l145 696h297L879 328q-11-42-11-66 0-37 23-56.5t80-19.5q38 0 90.5 29t84.5 55 89 76zM-299-262q0-23 25-45.5t57-22.5q36 0 70 38.5T-96-170l24 119q-109-36-168-85t-59-126z"/><glyph unicode="fiz" horiz-adv-x="1912" d="M-299-262q0-23 25-45.5t57-22.5q36 0 70 38.5T-96-170l24 119q-109-36-168-85t-59-126zm1321 1286L874 328q-10-42-10-70 0-76 74-76 37 0 53 6-20-63-46-103t-56.5-57.5T834 5t-56-5Q674 0 621.5 61.5T569 225q0 46 13 103l147 696h293zm-113 109q-69 0-104 24t-35 86q0 42 17 73.5t44 31.5q13 0 19-2-3 69-111 69-93 0-162.5-66T487 1192l-34-168h206l-16-82H436L203-164q-18-84-50-148T84.5-413.5 2-474t-86.5-30.5-85.5-7.5q-97 0-169.5 62T-412-291q0 55 19.5 99t48 73 79.5 55.5 95 42.5 113 37l245 1170q17 84 57.5 148.5t88 101 106 60 106 31 93.5 7.5q52 0 95.5-3.5t93.5-12 88.5-26.5 71-44.5 50-68.5 17.5-95q0-65-46-108t-100-43zm715-1006q-14 0-25.5 16t-11.5 41q0 66 37 95.5t94 29.5q42 0 69.5-34.5T1815 190q0-83-61.5-136.5T1575 0h-551l539 938q-94 4-150 4-113 0-113-45 14 0 24.5-17t10.5-42q0-123-129-123-42 0-69 34.5t-27 84.5q0 83 61.5 136.5T1350 1024h551L1362 86q94-4 149-4 113 0 113 45z"/><glyph unicode="flx" horiz-adv-x="1847" d="M1124 1024h297l95-442q75 75 126 156t54 147q-24-4-35-4-50 0-73 31.5t-23 82.5q0 50 39 75.5t100 25.5q57 0 86-51.5t29-126.5q0-59-49.5-146T1663 616.5 1538 477l35-160q8-39 14-57t18.5-38.5 33.5-28 55-7.5q29 0 67 20.5t66 43.5 73.5 62.5T1964 367h70q-13-13-56.5-58.5T1901 229t-84.5-80-93-76-89.5-51.5T1548 0q-65 0-103.5 9T1376 48t-48 77.5-38 132.5q-121-105-244-181.5T842 0Q720 0 654 55t-66 168q0 47 12 105l221 1044q-35 15-88 24t-80 9q-105 0-139-162l-45-219h190l-16-82H453L219-164q-18-84-50-148t-68.5-101.5T18-474t-86.5-30.5-85.5-7.5q-97 0-169 62t-72 159q0 55 19.5 99t48 73 79 55.5T-154-21t113 37l246 1170q18 84 50 148t69 101 83 60.5 86.5 31 84.5 7.5q86 0 185.5-22t170.5-47.5 186-71.5L895 328q-10-38-10-66 0-37 22.5-56.5T987 186q16 0 35 5.5t41.5 18.5 40.5 24.5 44.5 32 41 32.5 42 35.5T1268 365zM-283-262q0-23 25-45.5t57-22.5q36 0 70 38.5T-80-170l25 119q-109-36-168.5-85T-283-262z"/><glyph unicode="flz" horiz-adv-x="1925" d="M-283-262q0-23 25-45.5t57-22.5q36 0 70 38.5T-80-170l25 119q-109-36-168.5-85T-283-262zm1403 1655L893 328q-10-42-10-70 0-76 73-76 38 0 54 6-20-63-46-103t-56.5-57.5T853 5t-56-5Q693 0 640.5 61.5T588 225q0 51 12 103l221 1044q-35 15-88 24t-80 9q-105 0-139-162l-45-219h190l-16-82H453L219-164q-18-84-50-148t-68.5-101.5T18-474t-86.5-30.5-85.5-7.5q-97 0-169 62t-72 159q0 55 19.5 99t48 73 79 55.5T-154-21t113 37l246 1170q18 84 50 148t69 101 83 60.5 86.5 31 84.5 7.5q86 0 185.5-22t170.5-47.5 186-71.5zm525-1266q-14 0-25.5 16t-11.5 41q0 66 37 95.5t94 29.5q42 0 69-34.5t27-84.5q0-83-61.5-136.5T1595 0h-551l539 938q-94 4-149 4-113 0-113-45 14 0 24.5-17t10.5-42q0-123-129-123-42 0-69.5 34.5T1130 834q0 83 61.5 136.5T1370 1024h551L1382 86q94-4 150-4 113 0 113 45z"/><glyph unicode="ft" horiz-adv-x="1185" d="M997 942L866 328q-10-38-10-66 0-37 22.5-56.5T958 186q29 0 67.5 20.5T1092 250t73.5 63 63.5 54h69q-14-14-57-59t-76-79-84-80-93-76-89.5-51.5T813 0Q691 0 625 55t-66 168q0 47 12 105l131 614H453L219-164q-18-84-50-148t-68.5-101.5T18-474t-86.5-30.5-85.5-7.5q-97 0-169 62t-72 159q0 55 19.5 99t48 73 79 55.5T-154-21t113 37l246 1170q18 84 50 148t69 101 83 60.5 86.5 31 84.5 7.5q34 0 69-3.5t61.5-7 66.5-15 58.5-16.5 65-22.5T958 1447t68-27.5 66-26.5l-78-369h172l-19-82H997zm-278 82l74 348q-76 33-140 33-105 0-139-162l-45-219h250zM-283-262q0-23 25-45.5t57-22.5q36 0 70 38.5T-80-170l25 119q-109-36-168.5-85T-283-262z"/><glyph unicode="fu" horiz-adv-x="1646" d="M449 1024h563L862 328q-10-38-10-66 0-37 22.5-56.5T954 186q56 0 148 74 0 26 10 68l148 696h296l-149-696q-10-38-10-66 0-37 22.5-56.5T1499 186q29 0 67 20.5t66 43.5 73.5 62.5T1769 367h70q-14-14-57-59t-76-79-84-80-93-76-89.5-51.5T1354 0q-223 0-252 172Q919 0 809 0 555 0 555 223q0 47 12 105l121 590H428L201-164q-18-84-50-148T82.5-413.5 0-474t-86.5-30.5-85.5-7.5q-97 0-169.5 62T-414-291q0 55 19.5 99t48 73 79.5 55.5 95 42.5 113 37l245 1170q18 84 50 148t68.5 101.5T387 1496t86.5 30.5 85.5 7.5q97 0 169.5-62t72.5-159q0-47-6-84h-97q4 40 4 55 0 34-22 52t-55 18q-103 0-140-162zM-301-262q0-23 25-45.5t57-22.5q36 0 70 38.5T-98-170l24 119q-109-36-168-85t-59-126z"/><glyph unicode="fx" horiz-adv-x="1320" d="M786 1229h-96q4 40 4 55 0 34-22.5 52t-55.5 18q-102 0-139-162l-47-215h461l96-422q76 74 128.5 157.5T1171 862q-24-4-34-4-97 0-97 115 0 50 40 75t100 25q54 0 84-50.5t30-121.5q0-61-49.5-149T1138 594t-126-141l30-136q8-39 14-57t18.5-38.5 33.5-28 55-7.5q29 0 67.5 20.5T1297 250t73.5 63 63.5 54h69q-14-14-57-59t-76-79-84-80-93-76-89.5-51.5T1018 0q-46 0-77.5 4.5t-58 18.5-43 33-33 57-28.5 81-28 113Q567 176 543 66q10 2 26 2 84 0 84-101 0-112-114-112-68 0-106 39T395 0q0 49 30 107t81.5 113.5T611 323t114 93L618 870H410L193-164q-18-84-50-148T74.5-413.5-8-474t-86.5-30.5-85.5-7.5q-97 0-169.5 62T-422-291q0 55 19.5 99t48 73 79 55.5T-181-21t113 37l246 1170q18 84 50 148t68.5 101.5T379 1496t86.5 30.5 85.5 7.5q97 0 169.5-62t72.5-159q0-40-7-84zM-309-262q0-23 25-45.5t57-22.5q36 0 70 38.5t51 121.5l24 119q-109-36-168-85t-59-126z"/><glyph unicode="fz" horiz-adv-x="1345" d="M-301-262q0-23 25-45.5t57-22.5q36 0 70 38.5T-98-170l24 119q-109-36-168-85t-59-126zm1362 389q-14 0-25.5 16t-11.5 41q0 68 37 96.5t94 28.5q42 0 69-34.5t27-84.5q0-83-61-136.5T1012 0H461l526 918q-8 12-104 12-146 0-146-33 15 0 25-21t10-53q0-108-129-108-42 0-69 34.5T547 834q0 44 18 84H430L201-164q-18-84-50-148T82.5-413.5 0-474t-86.5-30.5-85.5-7.5q-97 0-169.5 62T-414-291q0 55 19.5 99t48 73 79.5 55.5 95 42.5 113 37l245 1170q18 84 50 148t68.5 101.5T387 1496t86.5 30.5 85.5 7.5q97 0 169.5-62t72.5-159q0-47-6-84h-97q4 40 4 55 0 34-22 52t-55 18q-19 0-36.5-6.5t-38-22.5-38-50-27.5-83l-34-168h886L799 86q94-4 149-4 113 0 113 45z"/><glyph unicode="gp" horiz-adv-x="1933" d="M639 1024h297L733 59q27 4 96.5 14.5T932 88l198 936h289l-10-45q81 43 156 43 163 0 233-67t70-228q0-114-17.5-211.5t-45-166T1738 224t-79-92.5-86.5-63.5-82-41.5T1417 2q-93-27-219-33l-86-407-307-74 98 469q-31-2-96-4t-98-4l-23-113q-17-84-49-148t-69-101-83.5-60.5-87-31T313-512q-120 0-178.5 57T76-295Q76-99 422-4l18 86Q328-16 203-16q-70 0-122 27T1.5 82.5t-40 91T-51 270q0 76 10.5 154.5T-8 590t61.5 162.5 93.5 137 133.5 97T455 1022q53 0 95.5-27t67.5-69zM477 907q-57 0-105-45.5t-78.5-114-52.5-152T210 439t-9-130q0-70 38.5-99.5T350 180q54 0 125 74l121 565q-23 43-56.5 65.5T477 907zm907-717q33 15 61 38.5t58 64 55.5 107.5 45.5 157q28 126 28 211 0 87-30.5 120.5T1516 922q-61 0-130-52l-151-725q55 11 149 45zM184-262q0-26 19.5-54t50.5-28q36 0 76 45.5T387-170l16 80q-219-53-219-172z"/><glyph unicode="gx" horiz-adv-x="1748" d="M639 1024h297L737 80q147 59 255 119t179 139l-149 686h297l102-481q81 74 138.5 161.5T1620 862q-24-4-35-4-50 0-73 32t-23 83q0 50 39 75t100 25q56 0 85.5-54t29.5-130q0-154-299-453l26-119q8-39 14-57t18.5-38.5 33.5-28 55-7.5q29 0 67.5 20.5T1725 250t73.5 63 63.5 54h69q-14-14-57-59t-76-79-84-80-93-76-89.5-51.5T1446 0q-118 0-165.5 40.5T1198 215q-68-77-190.5-136T713-37l-27-127q-18-84-50-148t-68.5-101.5T485-474t-86.5-30.5T313-512q-80 0-148.5 53T96-328q0 48 23 89.5t69.5 76.5 99 62.5T414-41l24 113Q329-12 203-12q-71 0-122.5 23t-79 62-40 82.5T-51 248q0 92 14 189.5T13.5 642 105 831.5 250.5 968t204.5 54q53 0 95.5-27t67.5-69zM477 907q-57 0-105-48t-78.5-119.5T241 581t-31-162-9-132q0-70 38.5-99.5T350 158q54 0 121 67l125 594q-23 43-56.5 65.5T477 907zM195-295q0-61 71-61 33 0 67.5 49.5T387-170l4 25q-96-37-146-72.5T195-295z"/><glyph unicode="gz" horiz-adv-x="1785" d="M203-12q-71 0-122.5 23t-79 62-40 82.5T-51 248q0 92 14 189.5T13.5 642 105 831.5 250.5 968t204.5 54q53 0 95.5-27t67.5-69l21 98h297L686-164q-18-84-50-148t-68.5-101.5T485-474t-86.5-30.5T313-512q-97 0-169 62T72-291q0 31 6 57t14.5 46 26.5 37.5 32.5 29.5 42 24 47 19T295-62.5t56.5 13T414-37l24 111Q331-12 203-12zm1278 139q-14 0-25.5 16t-11.5 41q0 66 37 95.5t94 29.5q42 0 69-34.5t27-84.5q0-83-61-136.5T1432 0H838l616 938q-94 4-149 4-113 0-113-45 14 0 24.5-17t10.5-42q0-123-129-123-42 0-69.5 34.5T1001 834q0 83 61.5 136.5T1241 1024h551L1176 86q94-4 165-4 140 0 140 45zM477 907q-57 0-105-48t-78.5-119.5T241 581t-31-162-9-132q0-70 38.5-99.5T350 158q52 0 119 67l127 594q-23 43-56.5 65.5T477 907zM184-262q0-23 25-45.5t57-22.5q37 0 69.5 38T387-170l14 68q-113-20-165-52t-52-108z"/><glyph unicode="is" horiz-adv-x="1280" d="M145 1024h297L295 328q-16-70-16-103 0-59 53-59 49 0 110 96 0 122 45.5 193.5T598 532q84 151 156 472l297 61v-29q0-93 14-175.5t34.5-142.5 40.5-115 34.5-118.5T1190 356l-2-43q80 72 133 133l53-69q-26-20-221-187-42-89-132.5-139.5T793 0Q647 0 564.5 37T455 162Q333 0 242 0-12 0-12 223q0 47 12 105zm611-616q0-57-40-94.5T621 276q-39 0-74 17 0-172 174-172 60 0 115 67.5T891 365q0 50-23 120t-47 165.5T795 856q-4-13-42-143t-65-191q68-22 68-114zm-576 886q0 68 47.5 116t114.5 48q68 0 116-48t48-116q0-67-48-114t-116-47-115 47-47 114z"/><glyph unicode="isx" horiz-adv-x="1964" d="M1190 1024h297l104-420q87 73 146.5 154.5T1800 909q-24-4-35-4-50 0-73 32t-23 83q0 50 39 75t100 25q58 0 86.5-47.5T1923 950q0-48-29.5-108t-83-126-94.5-110.5-98-101.5l47-187q17-73 40.5-102t86.5-29q29 0 67 20.5t66 43.5 73.5 62.5T2062 367h70q-14-14-57-59t-76-79-84-80-93-76-89.5-51.5T1647 0q-71 0-113.5 11.5t-76 47-53.5 95-40 163.5l-10 39q-1 0-76.5-65.5T1159 190q-42-89-132.5-139.5T799 0Q651 0 568.5 38.5T461 168Q330 0 242 0-12 0-12 223q0 47 12 105l145 696h297L295 328q-16-70-16-101 0-61 53-61t117 106q0 116 45 185.5T604 532q84 151 156 472l297 61v-29q0-113 21.5-215.5t47-167 47-155.5 21.5-185q80 72 133 133l6-10zM762 408q0-57-40-94.5T627 276q-34 0-74 19 0-174 174-174 60 0 115 67.5T897 365q0 50-23 120t-47 165.5T801 856q-4-13-42-143t-65-191q68-22 68-114zm-582 886q0 68 47.5 116t114.5 48q68 0 116-48t48-116q0-67-48-114t-116-47-115 47-47 114z"/><glyph unicode="isz" horiz-adv-x="2027" d="M125 1024h297L274 328q-16-70-16-103 0-59 49-59 48 0 113 96 0 121 45 192t110 76q33 62 62.5 151t45 151.5T721 999l297 62v-29q0-114 23.5-214.5t51-161 51-141T1167 356q0-73-24-136t-70.5-113T948 28.5 770 0Q625 0 543 37T434 160Q307 0 221 0-33 0-33 223q0 42 13 105zm1599-897q-14 0-25 16t-11 41q0 66 37 95.5t94 29.5q42 0 69-34.5t27-84.5q0-83-61.5-136.5T1675 0h-551l539 938q-94 4-150 4-112 0-112-45 14 0 24.5-17t10.5-42q0-123-129-123-42 0-69.5 34.5T1210 834q0 83 61.5 136.5T1450 1024h551L1462 86q94-4 150-4 112 0 112 45zM733 408q-1-58-40.5-95T598 276q-30 0-72 17-4-20-4-33 0-62 55-100.5T698 121q60 0 115 67.5T868 365q0 50-23 120t-47 165.5T772 856q-5-16-42-145t-64-189q67-22 67-114zm-573 886q0 68 47.5 116t114.5 48 115-48 48-116q0-67-47.5-114T322 1133t-115 47-47 114z"/><glyph unicode="ix" horiz-adv-x="1251" d="M530 1024h297l95-444q91 102 150.5 197.5T1145 944q-24-4-35-4-96 0-96 115 0 50 39.5 75t99.5 25q45 0 73.5-43t28.5-117q0-77-78-211T944 479l35-162q8-39 14-57t18.5-38.5 33.5-28 55-7.5q29 0 67 20.5t66 43.5 73.5 62.5T1370 367h70q-13-13-56.5-58.5T1307 229t-84.5-80-93-76-89.5-51.5T954 0Q832 0 784.5 45T700 240Q416 0 248 0 124 0 56 55.5T-12 225q0 47 12 103l145 696h297L295 328q-12-54-12-90 0-76 47-76 61 0 153 49t195 133zm-350 270q0 68 47.5 116t114.5 48q68 0 116-48t48-116q0-67-48-114t-116-47-115 47-47 114z"/><glyph unicode="iz" horiz-adv-x="1327" d="M145 1294q0 68 47.5 116t114.5 48 115.5-48 48.5-116q0-67-48-114t-116-47-115 47-47 114zm267-270L264 328q-10-42-10-70 0-76 74-76 37 0 53 6-20-63-46-103t-56.5-57.5T224 5t-56-5Q64 0 11.5 61.5T-41 225q0 51 12 103l148 696h293zm587-897q-14 0-25 16t-11 41q0 66 37 95.5t94 29.5q42 0 69-34.5t27-84.5q0-83-61.5-136.5T950 0H399l539 938q-94 4-150 4-112 0-112-45 14 0 24.5-17t10.5-42q0-123-129-123-42 0-69.5 34.5T485 834q0 83 61.5 136.5T725 1024h551L737 86q94-4 150-4 112 0 112 45z"/><glyph unicode="ís" horiz-adv-x="1280" d="M145 1024h297L295 328q-3-13-9-37t-10-42-4-32q0-51 56-51 49 0 114 100 0 119 45.5 190T598 532q84 151 156 472l297 61v-29q0-93 14-175.5t34.5-142.5 40.5-115 34.5-118.5T1190 356l-2-43q80 72 133 133l53-69q-26-20-221-187-42-89-132.5-139.5T793 0Q647 0 564.5 37T455 162Q333 0 242 0-12 0-12 223q0 47 12 105zm611-616q0-57-40-94.5T621 276q-39 0-74 17 0-172 174-172 60 0 115 67.5T891 365q0 50-23 120t-47 165.5T795 856q-4-13-42-143t-65-191q68-22 68-114zm-525 741l187 387h215l-248-387H231z"/><glyph unicode="ísx" horiz-adv-x="1964" d="M1190 1024h297l104-420q87 73 146.5 154.5T1800 909q-24-4-35-4-50 0-73 32t-23 83q0 50 39 75t100 25q56 0 85.5-54t29.5-130q0-146-305-432l47-187q17-73 40.5-102t86.5-29q29 0 67 20.5t66 43.5 73.5 62.5T2062 367h70q-14-14-57-59t-76-79-84-80-93-76-89.5-51.5T1647 0q-71 0-113.5 11.5t-76 47-53.5 95-40 163.5l-10 39q-1 0-76.5-65.5T1159 190q-42-89-132.5-139.5T799 0Q651 0 568.5 38.5T461 168Q330 0 242 0-12 0-12 223q0 47 12 105l145 696h297L295 328q-3-13-9-37t-10-42-4-32q0-51 56-51 53 0 121 110 1 114 46.5 182.5T604 532q84 151 156 472l297 61v-29q0-93 14.5-175.5t35-142 40.5-115 34.5-118.5 14.5-129q0-29-2-43 80 72 133 133zM762 408q0-57-40-94.5T627 276q-34 0-74 19 0-174 174-174 60 0 115 67.5T897 365q0 50-23 120t-47 165.5T801 856q-4-13-42-143t-65-191q68-22 68-114zm-526 741l186 387h215l-248-387H236z"/><glyph unicode="ísz" horiz-adv-x="2025" d="M117 1024h297L266 328l-8-36-9-44-3-31q0-51 53-51 48 0 113 96 0 121 45 192t110 76q33 62 62.5 151t45 151.5T713 999l297 62v-29q0-114 23.5-214.5t51-161 51-141T1159 356q0-73-24-136t-70.5-113T940 28.5 762 0Q617 0 535 37T426 160Q299 0 213 0-41 0-41 223q0 47 12 105zm1599-897q-14 0-25.5 16t-11.5 41q0 66 37 95.5t94 29.5q42 0 69.5-34.5T1907 190q0-83-61.5-136.5T1667 0h-551l539 938q-94 4-150 4-112 0-112-45 14 0 24-16.5t10-42.5q0-123-129-123-42 0-69 34.5t-27 84.5q0 83 61.5 136.5T1442 1024h551L1454 86q94-4 150-4 112 0 112 45zM725 408q-1-58-40.5-95T590 276q-30 0-72 17-4-20-4-33 0-62 55-100.5T690 121q60 0 115 67.5T860 365q0 50-23 120t-47 165.5T764 856q-4-13-42-143t-65-191q68-22 68-114zm-518 741l186 387h215l-248-387H207z"/><glyph unicode="íx" horiz-adv-x="1251" d="M530 1024h297l95-444q91 102 150.5 197.5T1145 944q-24-4-35-4-96 0-96 115 0 50 39.5 75t99.5 25q39 0 70.5-37t31.5-106q0-187-311-533l35-162q8-39 14-57t18.5-38.5 33.5-28 55-7.5q29 0 67 20.5t66 43.5 73.5 62.5T1370 367h70q-13-13-56.5-58.5T1307 229t-84.5-80-93-76-89.5-51.5T954 0Q832 0 784.5 45T700 240Q416 0 248 0 124 0 56 55.5T-12 225q0 47 12 103l145 696h297L295 328q-10-38-10-82 0-84 45-84 61 0 153 49t195 133zm-280 125l186 387h215l-248-387H250z"/><glyph unicode="íz" horiz-adv-x="1335" d="M1014 127q-14 0-25.5 16T977 184q0 66 37 95.5t94 29.5q42 0 69-34.5t27-84.5q0-83-61-136.5T965 0H414l538 938q-94 4-149 4-113 0-113-45 14 0 24.5-17t10.5-42q0-123-129-123-42 0-69 34.5T500 834q0 83 61 136.5t178 53.5h551L752 86q94-4 149-4 113 0 113 45zm-596 897L270 328q-10-42-10-70 0-76 74-76 37 0 53 6-20-63-46-103t-56.5-57.5T230 5t-56-5Q70 0 17.5 61.5T-35 225q0 51 12 103l148 696h293zm-211 125l186 387h215l-248-387H207z"/><glyph unicode="jx" horiz-adv-x="1232" d="M506 1024h297l102-481q81 74 138.5 161.5T1104 862q-28-4-39-4-92 0-92 115 0 50 39 75t100 25q56 0 85.5-54t29.5-130q0-154-299-453l26-119q8-39 14-57t18.5-38.5 33.5-28 55-7.5q29 0 67.5 20.5T1209 250t73.5 63 63.5 54h69q-14-14-57-59t-76-79-84-80-93-76-89.5-51.5T930 0Q813 0 765 40.5T682 213q-33-34-83.5-62t-123-52-129-39T197 23l-39-187q-18-84-50-148T39.5-413.5-43-474t-86.5-30.5-85.5-7.5q-97 0-169.5 62T-457-291q0 59 26 106t77.5 81.5 109 58.5T-104 4l215 1020h297L211 94q147 46 257 102.5T655 338zm-363 274q0 68 47.5 116t114.5 48 115.5-48 48.5-116q0-67-48-114t-116-47-115 47-47 114zM-344-262q0-23 25-45.5t57-22.5q37 0 69.5 38t51.5 122l24 111q-109-38-168-86.5T-344-262z"/><glyph unicode="jz" horiz-adv-x="1292" d="M-66 16l211 1008h297L193-164q-18-84-50-148T74.5-413.5-8-474t-86.5-30.5-85.5-7.5q-97 0-169.5 62T-422-291q0 40 10 74t25.5 60 43 49 54.5 39 67 32.5T-148-9t82 25zM989 127q-14 0-25.5 16T952 184q0 66 37 95.5t94 29.5q42 0 69.5-34.5T1180 190q0-83-61.5-136.5T940 0H389l539 938q-94 4-150 4-112 0-112-45 14 0 24-16.5t10-42.5q0-123-129-123-42 0-69 34.5T475 834q0 83 61.5 136.5T715 1024h551L727 86q94-4 150-4 112 0 112 45zM178 1298q0 68 47.5 116t114.5 48q68 0 116-48t48-116q0-67-48-114t-116-47-115 47-47 114zM-309-262q0-23 25-45.5t57-22.5q37 0 69.5 38t51.5 122l26 121q-109-36-169-85.5T-309-262z"/><glyph unicode="lx" horiz-adv-x="1333" d="M227 1393l303 41L295 328q-10-38-10-66 0-37 22.5-56.5T387 186q89 0 332 174l-144 664h297l95-442q75 75 126 156t54 147q-24-4-35-4-50 0-73 31.5t-23 82.5q0 50 39 75.5t100 25.5q57 0 86-50.5t29-125.5q0-59-49.5-146.5t-106.5-157T989 477l35-160q8-39 14-57t18.5-38.5 33.5-28 55-7.5q29 0 67 20.5t66 43.5 73.5 62.5T1415 367h70q-13-13-56.5-58.5T1352 229t-84.5-80-93-76-89.5-51.5T999 0q-65 0-103.5 9T827 48t-48 76.5T741 256Q607 151 471 75.5T242 0Q120 0 54 55t-66 168q0 47 12 105z"/><glyph unicode="lz" horiz-adv-x="1286" d="M530 1434L295 328q-10-42-10-70 0-76 73-76 38 0 54 6-20-63-46-103t-56.5-57.5T255 5t-56-5Q95 0 42.5 61.5T-10 225q0 51 12 103l225 1065zm494-1307q-14 0-25.5 16T987 184q0 66 37 95.5t94 29.5q42 0 69-34.5t27-84.5q0-83-61-136.5T975 0H424l539 938q-94 4-150 4-113 0-113-45 14 0 24.5-17t10.5-42q0-123-129-123-42 0-69 34.5T510 834q0 83 61.5 136.5T750 1024h550L762 86q94-4 149-4 113 0 113 45z"/><glyph unicode="mx" horiz-adv-x="2271" d="M1399 719l-84-391q-10-42-10-76 0-84 84-84 36 0 112.5 45.5T1659 324l-152 700h297l109-510q91 76 158.5 173t70.5 175q-24-4-35-4-50 0-73 32t-23 83q0 50 39 75t100 25q56 0 85.5-54t29.5-130q0-155-328-483l19-89q14-74 35-102.5t86-28.5q29 0 67 20.5t66 43.5 73.5 62.5T2347 367h70q-13-13-56.5-58.5T2284 229t-84.5-80-93-76-89.5-51.5T1931 0q-82 0-126 18t-72 64.5-52 144.5q-117-95-232.5-161T1262 0q-254 0-254 223 0 47 12 105l78 368q6 27 6 54 0 55-26 87.5t-68 32.5q-63 0-119-36 10-42 10-72 0-15-4-43L745 0H449l147 696q6 27 6 54 0 55-26 87.5T508 870q-64 0-125-43L207 0H-88l217 1024h295l-23-109q151 109 265 109 57 0 112.5-37.5T868 889q169 135 299 135 86 0 161-78t75-178q0-33-4-49z"/><glyph unicode="mz" horiz-adv-x="2322" d="M1425 188q-20-63-46-103t-56.5-57.5T1268 5t-56-5q-208 0-208 223 0 47 12 105l78 368q6 27 6 54 0 55-26 87.5t-68 32.5q-60 0-115-34 10-42 10-74 0-15-4-43L745 0H449l147 696q6 27 6 54 0 55-26 87.5T508 870q-64 0-125-43L207 0H-88l217 1024h295l-23-109q151 109 265 109 57 0 111.5-36t88.5-95q172 131 297 131 87 0 161.5-78t74.5-180q0-15-4-47-4-26-51.5-237T1296 246q0-64 76-64 37 0 53 6zm603-61q-14 0-25.5 16t-11.5 41q0 66 37 95.5t94 29.5q42 0 69-34.5t27-84.5q0-83-61.5-136.5T1978 0h-551l539 938q-94 4-149 4-113 0-113-45 14 0 24.5-17t10.5-42q0-123-129-123-42 0-69.5 34.5T1513 834q0 83 61.5 136.5T1753 1024h551L1765 86q94-4 150-4 113 0 113 45z"/><glyph unicode="nz" horiz-adv-x="1785" d="M944 188q-20-63-46-103t-56.5-57.5T787 5t-56-5Q522 0 522 223q0 42 13 105l77 368q6 27 6 54 0 55-26 87.5T524 870q-65 0-129-43L221 0H-74l217 1024h295l-24-111q153 111 268 111 87 0 161.5-78T918 766q0-7-5-47-4-26-51-237t-47-236q0-64 76-64 37 0 53 6zm572-61q-14 0-25.5 16t-11.5 41q0 66 37 95.5t94 29.5q42 0 69-34.5t27-84.5q0-83-61.5-136.5T1466 0H915l539 938q-94 4-149 4-113 0-113-45 14 0 24.5-17t10.5-42q0-123-129-123-42 0-69.5 34.5T1001 834q0 83 61.5 136.5T1241 1024h551L1253 86q94-4 150-4 113 0 113 45z"/><glyph unicode="os" horiz-adv-x="1562" d="M524 1044q240 0 248-296 15-9 39-9 47 0 87.5 18t73 54 54 66.5 51 80.5 43.5 70l223 45q0-125 21.5-233t46.5-171 46.5-145.5T1479 360q0-20-2-28 86 79 114 114l54-69q-30-24-199-168-45-96-142.5-152.5T1063 0Q788 0 788 279q0 97 69 158t157 61q96 0 96-146 0-40-46-80.5T971 231q-58 0-86 52-6-21-6-39 0-92 155-92 92 0 133 46.5t41 168.5q0 47-17 118.5t-34.5 168T1137 856q-29-31-69.5-75.5t-60-65-50-48.5-55-42-60-27.5T764 575q-16-143-63-257.5t-111.5-185T450.5 25 299-12Q133-12 59.5 65.5T-14 324q0 183 44 324t119.5 226T320 1001.5t204 42.5zM395 186q45 0 83 33.5t64.5 90.5 44 125.5T614 582q-42 0-64 26.5T528 674q0 46 25 87t65 56q-9 107-86 107-68 0-123.5-67T322 693t-47.5-190T258 342q0-87 35.5-121.5T395 186z"/><glyph unicode="osx" horiz-adv-x="2240" d="M524 1044q240 0 248-296 15-9 39-9 47 0 87.5 18t73 54 54 66.5 51 80.5 43.5 70l223 45q0-125 21.5-233t46.5-171 46.5-145.5T1479 360q0-42-9-79 125 93 189 155l-143 588h296l105-420q87 73 146.5 154.5T2126 909q-28-4-37-4-48 0-71 32.5t-23 82.5 39 75 100 25q56 0 85.5-54t29.5-130q0-146-305-432l47-187q17-73 40.5-102t86.5-29q29 0 67 20.5t66 43.5 73.5 62.5T2388 367h70q-13-13-56.5-58.5T2325 229t-84.5-80-93-76-89.5-51.5T1972 0q-57 0-94 7.5T1810 34t-51.5 56.5T1722 181t-32 136l-9 33q-57-33-119-84.5T1452.5 171 1348 87.5t-128.5-64T1063 0Q788 0 788 279q0 97 69 158t157 61q96 0 96-146 0-40-46-80.5T971 231q-58 0-86 52-8-28-8-45 0-51 39-84t114-33q178 0 178 246 0 47-17 118.5t-34.5 168T1137 856q-29-31-69.5-75.5t-60-65-50-48.5-55-42-60-27.5T764 575q-16-143-63-257.5t-111.5-185T450.5 25 299-12Q133-12 59.5 65.5T-14 324q0 183 44 324t119.5 226T320 1001.5t204 42.5zM395 186q45 0 83 33.5t64.5 90.5 44 125.5T614 582q-42 0-64 26.5T528 674q0 46 25 87t65 56q-9 107-86 107-68 0-123.5-67T322 693t-47.5-190T258 342q0-87 35.5-121.5T395 186z"/><glyph unicode="osz" horiz-adv-x="2336" d="M524 1044q240 0 248-296 15-9 39-9 47 0 87.5 18t73 54 54 66.5 51 80.5 43.5 70l223 45q0-125 21.5-233t46.5-171 46.5-145.5T1479 360q0-152-109.5-256T1063 0Q788 0 788 279q0 97 69 158t157 61q96 0 96-146 0-40-46-80.5T971 231q-58 0-86 52-6-21-6-43 0-50 38-81.5t115-31.5q89 0 132.5 58t43.5 182q0 47-17 118.5t-34.5 168T1137 856q-29-31-69.5-75.5t-60-65-50-48.5-55-42-60-27.5T764 575q-16-143-63-257.5t-111.5-185T450.5 25 299-12Q133-12 59.5 65.5T-14 324q0 183 44 324t119.5 226T320 1001.5t204 42.5zm1522-917q-14 0-25.5 16t-11.5 41q0 66 37 95.5t94 29.5q42 0 69-34.5t27-84.5q0-83-61-136.5T1997 0h-551l539 938q-94 4-150 4-113 0-113-45 14 0 24.5-17t10.5-42q0-123-129-123-42 0-69 34.5t-27 84.5q0 83 61.5 136.5T1772 1024h550L1784 86q94-4 149-4 113 0 113 45zM395 186q45 0 83 33.5t64.5 90.5 44 125.5T614 582q-42 0-64 26.5T528 674q0 46 25 87t65 56q-9 107-86 107-68 0-123.5-67T322 693t-47.5-190T258 342q0-87 35.5-121.5T395 186z"/><glyph unicode="ox" horiz-adv-x="1648" d="M899 1024h297l98-463q87 76 150.5 166t66.5 164q-24-4-34-4-97 0-97 114 0 50 40 75.5t100 25.5q54 0 84-50.5t30-121.5q0-98-112-253t-207-212l33-148q9-40 14-57.5t17.5-38 33.5-28 55-7.5q29 0 67.5 20.5T1602 250t73.5 63 63.5 54h69q-14-14-57-59t-76-79-84-80-93-76-89.5-51.5T1323 0q-47 0-78.5 4.5t-58.5 19-44 34-33.5 58.5-28.5 84-27 117q-88-49-148.5-114T844 78q10 2 26 2 84 0 84-100 0-113-114-113-67 0-101 38.5T705 12q0 97 101.5 215.5T1030 422l-80 369q-82-99-182-152-8-127-39-235t-77-183.5-104.5-129T426 13 299-12Q133-12 59.5 65.5T-14 324q0 183 44 324t119.5 226T320 1001.5t204 42.5q230 0 246-276 37 0 70.5 17t49.5 32.5 44 48.5zM395 186q44 0 82 33t64.5 90T586 434t28 146h-14q-41 0-62.5 32.5T516 692t25 87 69 50q-3 95-78 95-68 0-123.5-67T322 693t-47.5-190T258 342q0-87 35.5-121.5T395 186z"/><glyph unicode="ós" horiz-adv-x="1574" d="M524 1044q240 0 248-296 15-9 39-9 47 0 87.5 18t73 54 54 66.5 51 80.5 43.5 70l223 45q0-125 21.5-233t46.5-171 46.5-145.5T1479 360q0-20-2-28 86 79 114 114l54-69q-30-24-199-168-45-96-142.5-152.5T1063 0Q788 0 788 279q0 97 69 158t157 61q96 0 96-146 0-40-46-80.5T971 231q-58 0-86 52 0-79 30-116.5t121-37.5q89 0 130.5 56.5T1208 367q0 47-17 118.5t-34.5 168T1137 856q-29-31-69.5-75.5t-60-65-50-48.5-55-42-60-27.5T764 575q-16-143-63-257.5t-111.5-185T450.5 25 299-12Q133-12 59.5 65.5T-14 324q0 183 44 324t119.5 226T320 1001.5t204 42.5zM395 186q45 0 83 33.5t64.5 90.5 44 125.5T614 582q-42 0-64 26.5T528 674q0 46 25 87t65 56q-9 107-86 107-68 0-123.5-67T322 693t-47.5-190T258 342q0-87 35.5-121.5T395 186zm84 963l187 387h215l-248-387H479z"/><glyph unicode="ósx" horiz-adv-x="2240" d="M524 1044q240 0 248-296 15-9 39-9 47 0 87.5 18t73 54 54 66.5 51 80.5 43.5 70l223 45q0-125 21.5-233t46.5-171 46.5-145.5T1479 360q0-42-9-79 125 93 189 155l-143 588h296l111-440q83 78 141.5 166t61.5 159q-24-4-35-4-96 0-96 115 0 50 39.5 75t99.5 25q54 0 84.5-50.5T2249 948q0-63-54.5-157t-115-166T1948 481l43-164q8-30 11-39.5t11-30.5 15-28 20-17 30-13 40-3q29 0 67 20.5t66 43.5 73.5 62.5T2388 367h70q-13-13-56.5-58.5T2325 229t-84.5-80-93-76-89.5-51.5T1972 0q-57 0-94 7.5T1810 34t-51.5 56.5T1722 181t-32 136l-9 33q-57-33-119-84.5T1452.5 171 1348 87.5t-128.5-64T1063 0Q788 0 788 279q0 97 69 158t157 61q96 0 96-146 0-40-46-80.5T971 231q-58 0-86 52-8-21-8-45 0-51 39-84t114-33q178 0 178 246 0 47-17 118.5t-34.5 168T1137 856q-29-31-69.5-75.5t-60-65-50-48.5-55-42-60-27.5T764 575q-16-143-63-257.5t-111.5-185T450.5 25 299-12Q133-12 59.5 65.5T-14 324q0 183 44 324t119.5 226T320 1001.5t204 42.5zM395 186q45 0 83 33.5t64.5 90.5 44 125.5T614 582q-42 0-64 26.5T528 674q0 46 25 87t65 56q-9 107-86 107-68 0-123.5-67T322 693t-47.5-190T258 342q0-87 35.5-121.5T395 186zm70 963l186 387h215l-248-387H465z"/><glyph unicode="ósz" horiz-adv-x="2351" d="M524 1044q240 0 248-296 15-9 39-9 47 0 87.5 18t73 54 54 66.5 51 80.5 43.5 70l223 45q0-122 21.5-229t46.5-171 46.5-148 21.5-165q0-152-109.5-256T1063 0Q913 0 850.5 75.5T788 293q0 46 13 82t34.5 58.5 51 37.5 61 21 66.5 6q94 0 94-148 0-41-45-77.5T967 236q-55 0-82 47-8-28-8-45 0-51 39-80t116-29q86 0 130 51.5t44 163.5q0 51-16.5 125T1156 643.5 1137 856q-29-31-69.5-75.5t-60-65-50-48.5-55-42-60-27.5T764 575q-16-143-63-257.5t-111.5-185T450.5 25 299-12Q133-12 59.5 65.5T-14 324q0 183 44 324t119.5 226T320 1001.5t204 42.5zm1522-917q-14 0-25.5 16t-11.5 41q0 66 37 95.5t94 29.5q42 0 69-34.5t27-84.5q0-83-61-136.5T1997 0h-551l539 938q-94 4-150 4-113 0-113-45 14 0 24.5-17t10.5-42q0-123-129-123-42 0-69 34.5t-27 84.5q0 83 61.5 136.5T1772 1024h550L1784 86q94-4 149-4 113 0 113 45zM395 186q45 0 83 33.5t64.5 90.5 44 125.5T614 582q-42 0-64 26.5T528 674q0 46 25 87t65 56q-9 107-86 107-68 0-123.5-67T322 693t-47.5-190T258 342q0-87 35.5-121.5T395 186zm88 963l187 387h215l-248-387H483z"/><glyph unicode="óx" horiz-adv-x="1648" d="M510 1044q240 0 248-301 18-18 59-18 61 0 135 51l-53 248h297l100-469q86 78 149 170t66 166q-24-4-34-4-97 0-97 114 0 50 40 75.5t100 25.5q54 0 84-50.5t30-121.5q0-51-32-118.5T1517 675t-100-122-98-104l29-132q9-40 14-57.5t17.5-38 33.5-28 55-7.5q29 0 67.5 20.5T1602 250t73.5 63 63.5 54h69q-14-14-57-59t-76-79-84-80-93-76-89.5-51.5T1323 0q-46 0-77 4.5T1188 22t-44.5 32.5-33.5 56-28 80-27 110.5q-84-58-147-126T831 47q10 2 27 2 84 0 84-100 0-58-30.5-85.5T827-164q-68 0-105.5 39.5T684-18q0 52 32.5 112T804 212t110.5 105.5T1032 410l-65 301q-93-74-215-109-14-149-60-269T580.5 139.5 439.5 27 285-12Q119-12 45 65.5T-29 324q0 183 44 324t120 226 171 127.5 204 42.5zM381 186q45 0 83 33.5t64.5 90.5 44 125.5T600 582q-42 0-64 26.5T514 674q0 46 25 87t65 56q-9 107-86 107-68 0-123.5-67T308 693t-47.5-190T244 342q0-87 35.5-121.5T381 186zm53 963l187 387h215l-248-387H434z"/><glyph unicode="rx" horiz-adv-x="1599" d="M862 1024h297l96-453q71 72 118 150t50 141q-24-4-34-4-50 0-73.5 32t-23.5 83q0 50 39.5 75t100.5 25q56 0 85-54t29-130q0-83-80-197.5T1278 467l33-150q8-39 14-57t18.5-38.5 33.5-28 55-7.5q29 0 67 20.5t66 43.5 73.5 62.5T1702 367h70q-13-13-56.5-58.5T1639 229t-84.5-80-93-76-89.5-51.5T1286 0q-46 0-77 4t-58 17.5-43.5 32.5-33 55-28 78-26.5 108q-95-61-164.5-132T772 27q10 2 29 2 82 0 82-101 0-112-115-112-68 0-105.5 39T625-39q0 55 36 119t95.5 125T874 314.5 995 408zm-735 0h295l-23-102q132 102 242 102 68 0 107.5-36t39.5-95q0-60-41.5-110T635 733q-32 0-50.5 14t-24 33.5-9 39.5-11 34-24.5 14q-43 0-72.5-15T375 803L205 0H-90z"/><glyph unicode="rz" horiz-adv-x="1454" d="M1153 127q-14 0-25.5 16t-11.5 41q0 66 37 95.5t94 29.5q42 0 69-34.5t27-84.5q0-83-61-136.5T1104 0H553l539 938q-94 4-152 4-45 0-63-4 8-19 8-45 0-58-46-109t-116-51q-37 0-55 14t-20 33.5-1.5 39.5-6.5 34-28 14q-96 0-221-84L225 0H-70l217 1024h295l-26-123q194 123 321 123h693L891 86q94-4 149-4 113 0 113 45z"/><glyph unicode="sx" horiz-adv-x="1503" d="M721 1024h297l104-420q87 73 146.5 154.5T1331 909q-24-6-41-6-46 0-68 33.5t-22 83.5 39 75 100 25q56 0 85.5-54t29.5-130q0-146-305-432l47-187q17-73 40.5-102t86.5-29q29 0 67 20.5t66 43.5 73.5 62.5T1593 367h70q-14-14-57-59t-76-79-84-80-93-76-89.5-51.5T1178 0q-70 0-111 11t-73.5 49.5-53 94.5T893 319q-28-24-85-75t-87-76.5-83-63.5-93.5-56.5-96.5-33T334 0Q152 0 68 60.5T-16 268q0 117 45 187t110 75q33 62 62.5 151t45 151.5T285 999l297 62v-29q0-114 23.5-214.5t51-161 51-141T731 356q0-40-10-88 82 74 151 142zM297 408q-1-58-40.5-95T162 276q-34 0-74 19 0-174 174-174 60 0 115 67.5T432 365q0 50-23 120t-47 165.5T336 856q-4-13-42-143t-65-191q68-22 68-114z"/><glyph unicode="sz" horiz-adv-x="1564" d="M258 999l297 62v-29q0-93 15.5-175T608 716t44-114 37.5-117.5T705 356q0-153-101-254.5T307 0Q125 0 41 60.5T-43 268q0 116 45.5 186.5T113 530q32 62 62 152t44.5 149.5T258 999zm1018-872q-14 0-25.5 16t-11.5 41q0 66 37 95.5t94 29.5q42 0 69-34.5t27-84.5q0-83-61-136.5T1227 0H676l538 938q-94 4-149 4-113 0-113-45 14 0 24.5-17t10.5-42q0-123-129-123-42 0-69 34.5T762 834q0 83 61 136.5t178 53.5h551L1014 86q94-4 149-4 113 0 113 45zM270 408q-1-58-40.5-95T135 276q-34 0-74 19 0-174 175-174 60 0 115 67.5T406 365q0 41-14.5 94.5t-32.5 102-33.5 128T309 856q-5-16-42-145t-64-189q67-22 67-114z"/><glyph unicode="tx" horiz-adv-x="1337" d="M229 1393l303 41q-30-144-69-328h430l104-498q72 74 120.5 153t51.5 142q-24-4-34-4-50 0-73.5 32t-23.5 83q0 50 39.5 75t100.5 25q56 0 85-54t29-130q0-144-272-426l39-187q14-74 35-102.5t86-28.5q29 0 67 20.5t66 43.5 73.5 62.5T1450 367h70q-13-13-56.5-58.5T1387 229t-84.5-80-93-76-89.5-51.5T1034 0q-68 0-107.5 10T857 53.5 809 138t-39 147Q625 174 475 87T244 0Q-10 0-10 223q0 47 12 105l145 696H39v84h127zm217-369L297 328q-10-38-10-66 0-37 22.5-56.5T389 186q49 0 158.5 60T750 383l-138 641H446z"/><glyph unicode="tz" horiz-adv-x="1390" d="M434 942L303 328q-10-42-10-72 0-74 72-74 37 0 53 6-16-51-38-87t-42.5-55.5-47-30-45.5-13T201 0Q98 0 47 60.5T-4 221q0 51 12 107l131 614H72l16 82h68l61 283 303 41q-30-140-69-324h122l-16-82H434zm643-815q-14 0-25.5 16t-11.5 41q0 66 37 95.5t94 29.5q42 0 69.5-34.5T1268 190q0-83-61.5-136.5T1028 0H477l539 938q-94 4-150 4-112 0-112-45 14 0 24-16.5t10-42.5q0-123-129-123-42 0-69 34.5T563 834q0 83 61.5 136.5T803 1024h551L815 86q94-4 150-4 112 0 112 45z"/><glyph unicode="uv" horiz-adv-x="1902" d="M971 1024L754 0H461l31 145Q325 0 227 0 105 0 39 55t-66 168q0 42 13 105l143 696h301L281 328q-11-63-11-66 0-37 23-56.5t80-19.5q53 0 141 70l164 768h293zm715 41q64 0 97.5-50.5T1817 881t-14.5-176.5T1760 511t-76-190.5T1575 158 1427.5 43 1241 0q-122 0-188 55t-66 168q0 47 12 105l121 585-53 27 16 84h361l-150-696q-12-58-12-76 0-66 78-66 58 0 112 48.5t94 124 70.5 166 46 178T1698 858q-24-8-43-8-42 0-64 34t-22 81q0 35 34.5 67.5t82.5 32.5z"/><glyph unicode="yp" horiz-adv-x="1980" d="M129 1024h301L281 328q-11-42-11-66 0-37 23-56.5t80-19.5q58 0 155 82l160 756h297L786 78q36 5 101 10.5t82 7.5l196 928h289l-10-43q77 41 151 41 163 0 233-67t70-228q0-114-17.5-211.5t-45-166.5-67.5-126-79-92.5-86-63-82-41.5-73-24q-89-23-215-33l-86-407-307-74L940-33q-55 2-178 2l-27-133q-17-84-49-148t-69-101-83.5-60.5-87-31T362-512q-97 0-169 62t-72 159q0 67 27 121t78 91.5 111.5 63T477 29l29 129Q333 0 227 0-27 0-27 223q0 42 13 105zm1505-467q29 131 29 211 0 87-30.5 120.5T1546 922q-54 0-125-50l-151-725q88 17 150.5 50t103 88 65 117.5T1634 557zM233-262q0-23 25-45.5t57-22.5q36 0 70 38.5T436-170l23 113q-226-51-226-205z"/><glyph unicode="yx" horiz-adv-x="1792" d="M129 1024h301L281 328q-11-42-11-66 0-37 23-56.5t80-19.5q56 0 155 80l160 758h297L795 121q286 97 419 217l-149 686h297l102-483q69 67 121 164.5t55 168.5q-24-4-34-4-97 0-97 115 0 50 40 75t100 25q58 0 90.5-54.5T1772 901q0-83-86.5-228.5T1495 401l18-84q8-39 14-57t18.5-38.5 33.5-28 55-7.5q29 0 67.5 20.5T1768 250t73.5 63 63.5 54h69q-14-14-57-59t-76-79-84-80-93-76-89.5-51.5T1489 0q-115 0-163 39.5T1245 205q-49-33-132.5-64.5t-151-50T778 43l-43-207q-18-84-50-148t-68.5-101.5T534-474t-86.5-30.5T362-512q-97 0-169 62t-72 159q0 59 25.5 107t77 85 110 64T475 20l29 138Q331 0 227 0-27 0-27 223q0 42 13 105zM233-262q0-23 25-45.5t57-22.5q36 0 70 38.5T436-170l25 119q-109-42-168.5-92.5T233-262z"/><glyph unicode="yz" horiz-adv-x="1837" d="M129 1024h301L281 328q-11-42-11-66 0-37 23-56.5t80-19.5q58 0 155 82l160 756h297L735-164q-18-84-50-148t-68.5-101.5T534-474t-86.5-30.5T362-512q-97 0-169 62t-72 159q0 40 10 74t25.5 60 42.5 49 54 39 67 32.5T393.5-9 475 16l31 142Q333 0 227 0-27 0-27 223q0 42 13 105zm1384-897q-14 0-25 16t-11 41q0 66 37 95.5t94 29.5q42 0 69-34.5t27-84.5q0-83-61.5-136.5T1464 0H870l617 938q-94 4-150 4-112 0-112-45 14 0 24.5-17t10.5-42q0-66-36.5-94.5T1130 715q-42 0-69 34.5t-27 84.5q0 83 61.5 136.5T1274 1024h551L1208 86q22 0 79-2t87-2q139 0 139 45zM233-262q0-23 25-45.5t57-22.5q36 0 70 38.5T436-170l25 121q-108-36-168-86t-60-127z"/><glyph horiz-adv-x="444"/><glyph horiz-adv-x="444"/><glyph horiz-adv-x="444"/><glyph unicode="!" horiz-adv-x="458" d="M307 473H133l146 961h294zm21-309q0-68-47.5-116T166 0Q98 0 50 48T2 164q0 67 48 114.5T166 326t115-47 47-115z"/><glyph unicode="&quot;" horiz-adv-x="860" d="M127 1149l125 387h215l-186-387H127zm322 0l124 387h215l-186-387H449z"/><glyph unicode="#" horiz-adv-x="1349" d="M629-55l51 282H438L377-55H260l51 282H92l43 209h213l43 232H182l43 209h203l107 593h180L582 877h215l106 593h180L950 877h213l-41-209H905l-51-232h219l-41-209H807L745-55H629zm-92 723l-52-232h232l43 232H537z"/><glyph unicode="$" horiz-adv-x="825" d="M225-55l49 276q-103 8-164 64T49 455q0 78 43 127t105 49q41 0 64.5-15t23.5-36q-82-14-82-152 0-42 25-75.5t61-49.5l73 402q-16 14-49 39.5t-51.5 41-44 41-39 46.5-23.5 50.5-10 61.5q0 109 98 186t218 82l39 217h118l-51-223q178-28 178-170 0-71-26.5-113T647 922q-42 0-80 47 49 28 49 106 0 26-16.5 51.5T551 1165l-74-329 46.5-31 43.5-31 46-38 36.5-41 33-50 18-55.5L709 522q0-142-102-221t-267-82L281-55h-56zm269 534q0 82-60 156l-76-340q69 8 102.5 59.5T494 479zm-154 545q0-68 57-125l49 277q-55-11-80.5-55t-25.5-97z"/><glyph unicode="%" horiz-adv-x="1318" d="M1186 1536L395 0H248l790 1536h148zm-635-98q87 0 127.5-58.5T719 1206q0-68-20.5-142.5t-57-142-96-111.5T416 766q-113 0-155 57t-42 176q0 187 91 313t241 126zm-180-375q-4-50-4-88 0-133 55-133 53 0 93 56t60.5 145 20.5 194q0 62-10.5 95.5T545 1366q-50 0-106.5-83.5T371 1063zm688-391q90 0 139-60t49-172q0-55-10.5-112.5t-35-117-60.5-106-92.5-75.5T924 0Q811 0 769 57t-42 176q0 187 91 313t241 126zM868 297q-4-50-4-88 0-133 56-133 53 0 91.5 52.5t57 137.5 18.5 191q0 139-57 139-49 0-100-81t-62-218z"/><glyph unicode="&" horiz-adv-x="1396" d="M1384 846h13q0-87-94.5-175.5T1085 561q-25-91-56.5-167t-63-131.5-71-99.5T821 91t-78-48.5-76.5-31-77.5-16-73-6.5-70-1q-103 0-185 34.5t-133 93T50 247 23 401q0 102 39.5 193.5T188 758t205 96q-101 55-152 137t-51 174q0 71 31 137t87 118.5 144 84 193 31.5q74 0 139.5-15.5t120-46.5 86-85.5T1022 1262q0-87-34.5-138T879 1073q-71 0-117 53 35 10 62.5 67t27.5 101q0 15-1 29t-9 38.5-21 41.5-40 30-64 13q-110 0-180-73.5T467 1194q0-96 66.5-186.5T737 856q-183-75-269.5-185.5T381 444q0-112 71-192t169-80q57 0 110 19t104.5 61 92 120.5T991 559q-22 1-70.5 5.5T846 569q-134 0-193-92l-14 2q32 130 136.5 209.5T1034 768q29 0 80-5t76-5q61 0 115 22.5t79 65.5z"/><glyph unicode="'" horiz-adv-x="403" d="M31 1149l125 387h215l-187-387H31z"/><glyph unicode="(" horiz-adv-x="894" d="M950 1536l27-82q-148-74-275-284T503.5 687 432 150q0-381 150-603l-68-59Q398-384 340.5-198T283 205q0 200 48 406.5T464 998t211.5 323.5T950 1536z"/><glyph unicode=")" horiz-adv-x="845" d="M-33-512l-26 82q148 74 274.5 283t198 482T485 874q0 382-149 603l67 59q116-128 174-314t58-403q0-270-81-538T318.5-202-33-512z"/><glyph unicode="*" horiz-adv-x="1054" d="M457 1540h131v-276l219 127 61-107-223-129 223-129-61-106-219 127V770H457v277L238 920l-62 106 223 129-223 129 62 107 219-127v276z"/><glyph unicode="+" horiz-adv-x="1054" d="M707 899l-56-250h260l-47-229H602l-55-252H315l56 252H109l49 229h262l55 250h232z"/><glyph unicode="," horiz-adv-x="442" d="M49 154q0 68 47.5 115.5T211 317q66 0 102.5-43T350 162q0-97-72.5-216.5T84-258q-18 13-18 35 0 25 16.5 50t36.5 42.5 36.5 43T172-37q0 23-27 41-96 63-96 150z"/><glyph unicode="-" horiz-adv-x="593" d="M485 616l-34-161H39l37 161h409z"/><glyph unicode="." horiz-adv-x="538" d="M63 154q0 68 47.5 115.5T225 317q68 0 116-48t48-115-48-114.5T225-8q-67 0-114.5 47T63 154z"/><glyph unicode="/" horiz-adv-x="636" d="M604 1536L170-512H23l434 2048h147z"/><glyph unicode="0" horiz-adv-x="1118" d="M772 1536q188 0 276.5-135.5T1137 1001q0-103-19.5-217t-56-228.5T968 338 841 155.5 678.5 29 485-18Q381-18 306 6T183.5 72.5t-75 112-37.5 148T61 520q0 167 31.5 320t92.5 279.5T331 1339t198.5 145 242.5 52zM385 666q-10-138-10-203 0-309 121-309 84 0 156 86t118 226 72 313.5 26 353.5q0 70-4 118.5t-15 92-33.5 65T758 1430q-47 0-105.5-56t-114-152T440 978t-55-312z"/><glyph unicode="1" horiz-adv-x="649" d="M664 1532L338 0H43l270 1278H119l24 94q112 0 233.5 31T664 1532z"/><glyph unicode="2" horiz-adv-x="1007" d="M586 233q75 0 123.5 14.5t83.5 40T893 375q2-33 2-90 0-81-10-134.5t-36-95-74.5-60T651-23q-113 0-259 37T143 51q-21 0-51-10.5T28.5 14-18-6q-7 40-7 65 0 91 37.5 178.5t97 161T241 546t144 152 131.5 159.5 97 184.5 37.5 213q0 72-39 120t-86 48q-96 0-131-41t-35-125q0-43 19.5-85.5T438 1118q-78-69-157-69-64 0-105 48.5T135 1233q0 43 14 84.5t46 81.5 79.5 69.5T395 1516t162 18q389 0 389-330 0-94-31-180.5t-84-157T713 732 575 609 436.5 497t-126-113T217 270q42 0 163-16.5T586 233z"/><glyph unicode="3" horiz-adv-x="1052" d="M420 526q-59-5-97.5-28t-55-61-22-71.5T240 285q0-96 45.5-131T422 119q107 0 178.5 107.5T672 475q0 127-65.5 231.5T408 856q85 23 154 69.5t110 104 62.5 117T756 1262q0 72-33.5 116.5T627 1423q-187 0-187-166 0-43 19.5-85.5T518 1118q-78-69-158-69-64 0-104.5 48.5T215 1233q0 54 26.5 106t78 96.5 139 71.5 198.5 27q168 0 264.5-87t96.5-214q0-106-71.5-208.5T739 854q128-39 191-128t63-204q0-93-40.5-188T844 163 675.5 38.5 465-10q-40 0-77 2.5t-84 11-86.5 23T139 66t-66 58.5T29 208 12 319q0 147 62.5 229.5T254 631q143 0 166-105z"/><glyph unicode="4" horiz-adv-x="974" d="M516 563H16q22 67 77 184.5T194 962t83.5 222.5T315 1413q0 66-14 123 95 0 161-51.5t66-143.5q0-90-33.5-182T420 1005.5 319 857t-90-142h320l166 780 303 41-176-821h131l-41-152H809L690 0H395z"/><glyph unicode="5" horiz-adv-x="1058" d="M1024 1534q4-46 4-68 0-108-56.5-172.5T803 1229q-76 0-204 24.5T451 1280l-82-371q134 64 254 64 91 0 161.5-33.5T898 847t65-135.5T985 545q0-106-36.5-203.5T843 164.5t-179-127T418-10q-66 0-115 5T199.5 18.5t-89 51-57 90T31 297q0 69 24 124.5t62.5 87.5 82.5 49 89 17q69 0 105-24.5t48-79.5q-88-11-136-60t-48-149q0-84 53-122t131-38q81 0 138 65.5t81.5 160T686 532q0 67-22.5 126.5t-75 101T463 801q-124 0-307-115l168 817q38-4 100-12t97.5-12 83-7.5 87.5-3.5q164 0 332 66z"/><glyph unicode="6" horiz-adv-x="1017" d="M461 625q-41 58-41 118 0 88 85 146.5T709 948q70 0 125-30t87-79.5 48-108T985 610q0-128-44.5-244T821 168 644.5 38 432-10q-96 0-167.5 22t-115 57.5T79 159 42.5 269 33 395q0 49 2 76 12 187 47.5 347.5T179 1112t144.5 226.5 196 145.5 246.5 52q109 0 172-51t63-117q0-56-46.5-95.5T819 1229q33 29 33 74 0 43-29.5 76.5T750 1413q-17 0-36.5-3.5t-57-23-72.5-53-77-100.5-76-156.5T366 845t-49-317q-10-105-10-159 0-75 12-125t36-75 52.5-34.5T477 125q64 0 128 68t104.5 175T750 582q0 49-8 90t-34 74.5-67 33.5q-104 0-180-155z"/><glyph unicode="7" horiz-adv-x="950" d="M377 1536h672q-124-185-352-545.5T432 543q-65-147-65-264 0-62 22.5-108T467 80Q437 0 279 0 176 0 122 55T68 256q0 70 19 146t47.5 145T215 701.5 313.5 854 436 1016t132 161 145 169q-89 12-172 12-294 0-426-146-17 73-17 119 0 103 66 154t213 51z"/><glyph unicode="8" horiz-adv-x="1021" d="M426 119q101 0 168.5 107.5T662 475q0 90-32.5 171.5T532 784q-81-54-139.5-135.5t-85-164T281 324q0-91 37.5-148T426 119zM416-10q-102 0-185.5 34.5T94 116.5t-81.5 131T-16 401q0 149 95 276t273 177q-88 51-131 123.5T178 1133q0 74 34 146t92.5 128.5T450 1499t185 35q185 0 286-85t101-212q0-107-75-211.5T735 854q125-38 186.5-123.5T983 535q0-94-43-190.5T824 169 643 40 416-10zm139 934q97 64 152 169t55 201q0 68-28 108t-79 40q-95 0-152-80.5T446 1171q0-72 27.5-137.5T555 924z"/><glyph unicode="9" horiz-adv-x="1001" d="M590 868q43-52 43-102 0-77-80.5-132.5T358 578q-73 0-130.5 32.5t-91 85.5-50 114.5T70 936q0 167 70 305t191.5 216.5T600 1536q92 0 162.5-26t114-68.5 70.5-106 37.5-131T995 1055q0-308-82.5-548.5T671.5 128 301-10q-112 0-179 53.5T55 164q0 53 45.5 91T233 297q-28-28-28-70 0-44 30-79t74-35q17 0 37.5 3.5t59.5 23 75 52.5 78.5 100 76 156.5 62 231.5T739 997q4 78 4 107 0 93-12 153.5t-37.5 91T638 1390t-75 11q-65 0-125.5-66.5t-97.5-170T303 956q0-36 5-70t17-67.5 36-53.5 57-20q61 0 103.5 27.5T590 868z"/><glyph unicode=":" horiz-adv-x="546" d="M84 276q0 68 47.5 116T246 440q68 0 116-48t48-116q0-67-48-114t-116-47-115 47-47 114zm102 492q0 68 47.5 116T348 932q68 0 116-48t48-116q0-67-48-114.5T348 606t-115 47-47 115z"/><glyph unicode=";" horiz-adv-x="565" d="M193 678q0 68 47 116t114 48q68 0 116-48t48-116q0-67-48-114.5T354 516q-67 0-114 47t-47 115zM94 186q0 68 47.5 116T256 350q66 0 102.5-43T395 195q0-97-72.5-216.5T129-225q-18 13-18 35 0 25 16.5 50T164-97.5t36.5 43T217-4q0 23-27 41-96 63-96 149z"/><glyph unicode="<" horiz-adv-x="735" d="M688 879l-20-113-494-246 397-196-24-117L41 487l18 84z"/><glyph unicode="=" horiz-adv-x="1054" d="M958 877l-47-230H156l49 230h753zm-90-441l-47-229H66l49 229h753z"/><glyph unicode=">" horiz-adv-x="704" d="M154 766l18 113 504-308-23-110L31 207l28 117 492 196z"/><glyph unicode="?" horiz-adv-x="903" d="M870 1186q0-81-21.5-147.5T790 925t-82-88-94-79-93.5-77-83-92T379 475H244q0 58 20.5 113t53.5 99.5 72.5 88.5 79 88.5 72.5 91 53.5 105T616 1182q0 71-32 106t-80 35q-62 0-113-48.5T340 1153q0-42 19.5-83t58.5-52q-26-42-66-64t-84-22q-64 0-109.5 45T113 1104q0 55 24.5 110.5t73.5 106 135.5 82T543 1434q102 0 169-18.5t100.5-55 45.5-77 12-97.5zM424 164q0-68-47.5-116T262 0q-68 0-116 48T98 164q0 67 48 114.5T262 326t115-47 47-115z"/><glyph unicode="@" horiz-adv-x="1150" d="M807 203q27-22 27-35 0-6-11-23Q747 31 617-23.5T354-78q-69 0-132.5 22t-118 66.5-87 122T-16 311q0 166 46.5 308T149 854.5 310.5 1015t173.5 96.5 155 29.5q39 0 72.5-3t72-11 69.5-21.5 60-36.5 49-53.5 32-74 12-97.5q0-149-51-281T822.5 355 653 279q-43 0-69 16-21-20-66-33.5T424 248q-46 0-77.5 52T315 408q0 31 10.5 85.5t33.5 123 54.5 128 79 100T594 885q44 0 68-35l8 31 114-13-92-393q-8-32-8-47 0-39 27-39 39 0 77 92.5T847 679t21 165q0 39-8 66.5T831.5 962 769 998t-105 12q-85 0-167.5-52.5t-146-141-102.5-216T209 334q0-102 55-165t154-63q198 0 293 95 26 26 47 26 19 0 49-24zM553 379v20q0 27 6 43l86 342q-15 15-43 15-33 0-63-41.5T490 657t-30-119.5T449 434q0-38 13-51.5t60-13.5q14 0 31 10z"/><glyph unicode="A" horiz-adv-x="1368" d="M1096 0H801l157 743q-151 66-276 74-116-249-190-511.5T418-117q0-36 4-59t9-30.5 9.5-13.5 5.5-11q-118 7-163 24-98 36-109 165-2 19-2 40 0 131 83.5 359T473 817q-100-7-160-30.5T233 711q8 0 17.5-21.5T260 647q0-35-31.5-57.5T135 567q-49 0-83 32.5T18 696q0 61 55.5 116t148 87.5T418 932q54 0 121-6 81 129 166 236.5T882 1356t187.5 134 183.5 48 164-31zM977 834l119 557q-176-96-373-488 146-27 254-69z"/><glyph unicode="B" horiz-adv-x="1300" d="M471 1303l303 40-98-454h14q81 0 149.5 52.5t105 129.5 36.5 156q0 94-56 154.5T756 1442q-251 0-402-133.5T203 944q0-46 6.5-76t14-44.5T231 805q-110 0-164.5 46T12 1004q0 132 108 256.5t275 200 336 75.5q227 0 346-95.5t119-232.5q0-92-54-179.5T991 885q120-24 178-114.5t58-219.5q0-98-32.5-202.5T1108 159 977 19.5 819-35q-43 0-73 2t-64 10.5-55 23T592 42t-14 64q0 56 26 130 26-41 65.5-57.5T741 162q54 0 102 58t74.5 145T944 539q0 110-45.5 181T758 791q-38 0-103-7L487 0H193z"/><glyph unicode="C" horiz-adv-x="1017" d="M1024 369l47-21q-31-86-83-152T878.5 91.5 751.5 29 622-3.5 498-12q-67 0-127 13.5t-120.5 50-104 93T76 295 49 510q0 100 9.5 197.5T91 908t58 193 90 171 124.5 139 166 91.5T739 1536q59 0 110.5-9t97-30 78.5-52.5 52-78 19-104.5q0-87-35-138t-109-51q-70 0-116 53 35 10 62.5 67t27.5 101q0 14-2 28.5t-10.5 37-22.5 39-42 29-65 12.5q-90 0-170-86.5T482.5 1134 401 847.5 371 555q0-106 11-174t41-117.5 82.5-70.5T641 172q122 0 225 50.5T1024 369z"/><glyph unicode="D" horiz-adv-x="1357" d="M471 1303l303 40L528 195q55-41 117-41 88 0 164 83t125 213 76.5 285 27.5 305q0 82-6.5 141t-24.5 110.5-49.5 83T876 1424t-120 18q-251 0-402-133.5T203 944q0-46 6.5-76t14-44.5T231 805q-110 0-164.5 46T12 1004q0 132 108 256.5t275 200 336 75.5q138 0 243-30.5t169.5-80.5 105.5-123 56.5-150 15.5-169q0-260-78-493.5t-209.5-375T754-27Q630-27 504 82L487 0H193z"/><glyph unicode="E" horiz-adv-x="940" d="M944 369l47-21Q860-12 446-12q-103 0-185 34.5t-133 93T50 247 23 401q0 102 39.5 193.5T188 758t205 96q-101 55-152 137t-51 174q0 71 31 137t87 118.5 144 84 193 31.5q74 0 139.5-15.5t120-46.5 86-85.5T1022 1262q0-87-34.5-138T879 1073q-71 0-117 53 35 10 62.5 67t27.5 101q0 15-1 29t-9 38.5-21 41.5-40 30-64 13q-110 0-180-73.5T467 1194q0-96 66.5-186.5T737 856q-183-75-269.5-185.5T381 444q0-112 71-192t169-80q115 0 189.5 47.5T944 369z"/><glyph unicode="F" horiz-adv-x="1013" d="M659 858h316l-41-151H627L475 0H180l295 1368q-63-3-109-24t-82.5-68-55.5-130-19-202q0-46 6.5-76t14.5-44.5 8-18.5q-110 0-165 46t-55 153q0 84 23.5 160t77 144.5 133 118.5 199 79.5T717 1536q35 0 152.5-12.5T1057 1511q105 0 184 25-5-14-13.5-45t-14.5-50-20-46.5-31-45-47-34.5-68-25q-100 0-287 39z"/><glyph unicode="G" horiz-adv-x="1183" d="M854 856h264L950 86q-27-125-64-213t-97-158-150-104.5T426-424q-137 0-211 83.5T141-141q0 112 67.5 196T391 139q31 0 53-1.5t52.5-9 49-21.5T578 66.5 592 2q0-36-12-82-37 31-64 42t-59 11q-67 0-105.5-46.5T313-182q0-58 34-99t95-41q37 0 64.5 10t54 36.5 48 77.5T647-70l82 367q-54-28-113.5-46.5t-90.5-23-46-4.5q-121 0-209 41.5t-137 116-71.5 165T39 748q0 118 31 232t93 214.5T310.5 1371t203 120.5T764 1536q74 0 140-15.5t121-46.5 87.5-85.5T1145 1262q0-87-35-138t-109-51q-95 0-141 53 35 10 62.5 67t27.5 101q0 14-2 28.5t-10.5 37-22.5 39-41.5 29T809 1440q-109 0-216-108.5T420 1057t-66-326q0-148 59-243t179-95q117 0 174 76z"/><glyph unicode="H" horiz-adv-x="1292" d="M813 1532L680 909q157 27 205 27 31 0 45-2l127 598h295L1026 0H731l162 760q-56 20-131 20-45 0-111-8L487 0H193l296 1393q-137-58-211.5-173T203 944q0-46 6.5-76t14-44.5T231 805q-110 0-164.5 46T12 1004q0 132 108 256.5t275 200 336 75.5q28 0 82-4z"/><glyph unicode="I" horiz-adv-x="768" d="M813 1532L487 0H193l296 1391q-136-57-211-171t-75-276q0-46 6.5-76t14-44.5T231 805q-110 0-164.5 46T12 1004q0 132 108 256.5t275 200 336 75.5q28 0 82-4z"/><glyph unicode="J" horiz-adv-x="1097" d="M1102 1536h82L877 82q-26-123-65.5-212t-102-157.5T554-390t-216-34q-143 0-223 79.5T35-135q0 111 67 192.5T285 139q31 0 53-1.5t52-9 49-21.5 32.5-40.5T485 2q0-36-12-82-37 31-64 42t-59 11q-67 0-105-45t-38-106q0-72 43-108t96-36q50 0 82 18.5t61 74.5 52 159l321 1463q-136-57-212.5-172.5T573 944q0-46 6.5-76t14.5-44.5 8-18.5q-110 0-164.5 46T383 1004q0 132 108 256.5t275 200 336 75.5z"/><glyph unicode="K" horiz-adv-x="1230" d="M813 1532L678 905q61 82 175 234t203 270 89 117h215L788 868q27 4 74 4 140 0 197-58t57-161q0-89-50-273.5T1016 135q0-46 22-84t58-51Q976-35 893-35q-160 0-160 137 0 65 54.5 261.5T842 641q0 137-123 137-32 0-68-8L487 0H193l296 1393q-137-58-211.5-173T203 944q0-46 6.5-76t14-44.5T231 805q-110 0-164.5 46T12 1004q0 132 108 256.5t275 200 336 75.5q28 0 82-4z"/><glyph unicode="L" horiz-adv-x="802" d="M813 1511L498 41q57-13 126.5-45.5T758-73t132.5-70.5 145.5-57 150-22.5q94 0 172 33-15-148-72.5-235T1145-512q-80 0-170.5 48T799-348 626.5-211.5 435-95 231-47q-31 0-47-2l305 1419q-136-57-211-171t-75-275q0-46 6.5-76t14-45 7.5-19q-110 0-164.5 46T12 983q0 99 64.5 197.5t166 171.5 232 118.5T731 1516q15 0 82-5z"/><glyph unicode="M" horiz-adv-x="1607" d="M1331 0h-295l205 969L852 0H571v874L301 0H137l459 1407q-156-50-243-169.5T266 944q0-46 6.5-76t14.5-44.5 8-18.5q-110 0-164.5 46T76 1004q0 91 59.5 187t153 169.5 215 120.5 237.5 47q75 0 142-21V328l448 1179h322z"/><glyph unicode="N" horiz-adv-x="1437" d="M1188 1532h295L1157 0H862q-67 0-93 109.5T743 418q0 99 7.5 322t7.5 331q0 125-4 182L487 0H193l296 1393q-137-58-211.5-173T203 944q0-46 6.5-76t14-44.5T231 805q-110 0-164.5 46T12 1004q0 132 108 256.5t275 200 336 75.5q44 0 74-7t51-27.5 33-45.5 18.5-73 8.5-97.5 2-130.5q0-109-11.5-347T895 473q0-153 20-223z"/><glyph unicode="O" d="M795 1343q-130-171-203.5-392T518 485q0-143 41-237t121-94q85 0 173.5 137t145 341 56.5 392q0 74-6 130.5t-25 113-51 93-87 59-130 22.5q-251 0-402-133.5T203 944q0-46 6.5-76t14-44.5T231 805q-110 0-164.5 46T12 1004q0 132 108 256.5t275 200 336 75.5q296 0 428.5-139.5T1292 981q0-121-28-257t-82.5-267.5-127-237.5T884 47.5 680-18Q474-18 367 90T260 444q0 119 16 242.5t51.5 245 85 216.5 124 153.5T698 1360q38 0 97-17z"/><glyph unicode="P" horiz-adv-x="1173" d="M471 1303l303 40-145-684q74 6 142 55t114.5 121.5 74 159.5 27.5 168q0 123-63 201t-191 78q-249 0-389.5-132.5T203 944q0-46 6.5-76t14-44.5T231 805q-110 0-164.5 46T12 1004q0 132 108 256.5t275 200 336 75.5q122 0 216.5-33t151.5-90 86-128 29-152q0-99-41.5-196t-115-176T870 633t-247-49h-11L487 0H193z"/><glyph unicode="Q" d="M774 1343q-130-171-203-390.5T498 487q0-101 22-184 71 19 123 19 100 0 172-62 99 128 169.5 346.5T1055 1024q0 74-6 130.5t-25 113-51 93-87 59-130 22.5q-251 0-402-133.5T203 944q0-46 6.5-76t14-44.5T231 805q-110 0-164.5 46T12 1004q0 132 108 256.5t275 200 336 75.5q296 0 428.5-139.5T1292 981q0-229-95-485.5T948 98q35-50 63.5-80t77-53.5T1196-59q13 0 45 4-37-100-88-138t-123-38q-61 0-106 18t-73.5 53.5-45 70T774-4q-54-14-94-14-440 0-440 473 0 116 18 240t55.5 243 88.5 213 124 151.5 156 57.5q36 0 92-17zM592 246q-22 0-49-6 44-86 116-86 29 0 54 14-43 78-121 78z"/><glyph unicode="R" horiz-adv-x="1230" d="M471 1303l303 40-102-475h18q81 0 149.5 57t105 139 36.5 163q0 94-56 154.5T756 1442q-251 0-402-133.5T203 944q0-46 6.5-76t14-44.5T231 805q-110 0-164.5 46T12 1004q0 132 108 256.5t275 200 336 75.5q117 0 208.5-27.5t146-74 82.5-104 28-122.5q0-97-59-193.5T975 858q141-41 141-205 0-89-50-274.5T1016 135q0-46 22-84t58-51Q976-35 893-35q-160 0-160 137 0 65 53.5 261.5T840 641q0 139-123 139-33 0-66-8L487 0H193z"/><glyph unicode="S" horiz-adv-x="1167" d="M1114 1290q0-90-46-148.5T944 1083q-55 0-92 43 41 24 66.5 74.5T944 1303q0 60-36 98.5T795 1440q-86 0-138.5-47.5T604 1262q0-65 25.5-121t66-98.5T785 958t98.5-89.5 90-101.5 66-131.5T1065 465q0-217-147.5-346T522-10q-40 0-77 2.5t-84 11-86 23T197 66t-66 58.5T87 208 70 319q0 138 87.5 216.5T371 614q144 0 166-104-124-10-182-64.5T297 285q0-65 31.5-111t76-66T500 88q77 0 129.5 42.5t74 106.5T725 381q0 78-24.5 147.5T637 650t-86 100.5-94 93.5-86 90.5-63.5 102T283 1155q0 104 71 193t182.5 138.5T770 1536q28 0 53.5-1.5t62-7.5 66-15.5 61-28.5 53-44 35-63.5 13.5-85.5z"/><glyph unicode="T" horiz-adv-x="985" d="M1278 1266q-26 0-58 2.5t-56.5 5.5-66 9.5-62 10-70 13T899 1319L616 0H322l290 1354q-61 0-110-6.5t-97.5-23-83.5-47-62.5-75-41.5-110T203 942q0-46 6.5-76t14-44.5T231 803q-110 0-164.5 45.5T12 1001q0 106 39 198.5t119.5 169 219 121T711 1534q27 0 219-17.5t307-17.5q162 0 236 31-6-16-15.5-59t-19.5-72.5-28.5-63-51.5-51.5-80-18z"/><glyph unicode="U" horiz-adv-x="1388" d="M1141 1532h293L1108 0H813l23 106Q720 2 637 2q-188 0-283.5 98.5T258 436q0 109 21 242.5t59.5 272 103 266.5T584 1423q-179-42-280-166.5T203 944q0-46 6.5-76t14-44.5T231 805q-110 0-164.5 46T12 1004q0 132 108 256.5t275 200 336 75.5q117 0 154-10-137-180-252-494.5T518 485q0-143 41-237t121-94q112 0 199 157z"/><glyph unicode="V" horiz-adv-x="1259" d="M813 1532l18-1260 431 1254h143L836 0H541v1399q-166-52-252-168.5T203 944q0-46 6.5-76t14-44.5T231 805q-110 0-164.5 46T12 1004q0 132 108 256.5t275 200 336 75.5q28 0 82-4z"/><glyph unicode="W" horiz-adv-x="1986" d="M813 1532l18-1260 431 1254h260V272l448 1254h144L1544 0h-295v1042L836 0H541v1399q-166-52-252-168.5T203 944q0-46 6.5-76t14-44.5T231 805q-110 0-164.5 46T12 1004q0 132 108 256.5t275 200 336 75.5q28 0 82-4z"/><glyph unicode="X" horiz-adv-x="1269" d="M1130 0H805L696 512 399 0H274l385 680-151 719q-144-53-224.5-170.5T203 944q0-46 6.5-76t14-44.5T231 805q-110 0-164.5 46T12 1004q0 132 108 256.5t275 200 336 75.5q28 0 82-4l88-426 238 420h143L938 930z"/><glyph unicode="Y" horiz-adv-x="1269" d="M897 0H569l136 631-197 768q-144-53-224.5-170.5T203 944q0-46 6.5-76t14-44.5T231 805q-110 0-164.5 46T12 1004q0 132 108 256.5t275 200 336 75.5q28 0 82-4l178-733 303 727h136l-398-895z"/><glyph unicode="Z" horiz-adv-x="1085" d="M827 160q-14 0-25 16t-11 41q0 66 37 95.5t94 29.5q42 0 69-34.5t27-84.5q0-85-70-154T762 0H23l729 1450q-94 4-205 4-63 0-115.5-10t-52.5-35q14 0 24.5-17t10.5-42q0-123-129-123-42 0-69.5 34.5T188 1346q0 83 61.5 136.5T428 1536h702L418 119q94-4 297-4 112 0 112 45z"/><glyph unicode="[" horiz-adv-x="819" d="M373-385l-27-127H-49l434 2048h395l-26-125H506L125-385h248z"/><glyph unicode="\" horiz-adv-x="741" d="M520-512L86 1536h147L668-512H520z"/><glyph unicode="]" horiz-adv-x="819" d="M358 1409l27 127h395L346-512H-49l26 125h248l381 1796H358z"/><glyph unicode="^" horiz-adv-x="862" d="M702 1149h-65l-123 164-321-164h-91l435 387h43z"/><glyph unicode="_" horiz-adv-x="909" d="M827 162L793 0H74l37 162h716z"/><glyph unicode="`" horiz-adv-x="411" d="M170 1149L49 1536h215l60-387H170z"/><glyph unicode="a" horiz-adv-x="1030" d="M649 1024h295L797 328q-9-52-9-64 0-37 22.5-57.5T891 186q29 0 67 20.5t66 43.5 73.5 62.5T1161 367h70q-13-13-56.5-58.5T1098 229t-84.5-80-93-76T831 21.5 745 0Q536 0 496 156 374-12 217-12q-71 0-122.5 23t-79 62-40 82.5T-37 248q0 112 16 216.5T34.5 672t99 179.5 154 123.5 212.5 47q76 0 137-51zM516 907q-74 0-139-93T276 582t-36-279q0-145 118-145 61 0 131 102 2 24 13 68l114 542q-42 37-100 37z"/><glyph unicode="b" horiz-adv-x="880" d="M203 1393l303 41-98-465q79 59 176 59 71 0 123.5-23t81-62 42-83 13.5-92q0-99-20.5-204T758 356.5t-107-183-153-130T301-6Q222-6 162 6T56.5 44.5t-69.5 72T-37 227q0 45 12 101zm411-639q0 83-34.5 117T498 905q-18 0-58.5-9T387 877L270 328q-16-78-16-113 0-44 21-60t69-16q59 0 112.5 74.5t86 178.5 52 203T614 754z"/><glyph unicode="c" horiz-adv-x="737" d="M598 821q10 38 10 58 0 69-76 69-81 0-148-94T283.5 634.5 250 393q0-104 31.5-161.5T399 174q186 0 357 193h69q-17-19-51-64.5T713.5 222 639 143t-98-73-125.5-49.5T254 0Q-27 0-27 336q0 95 16 187.5T44.5 709t98 163 151 114 206.5 44q225 0 225-141 0-34-10-68-22 13-51 13-22 0-66-13z"/><glyph unicode="d" horiz-adv-x="1044" d="M727 1393l303 41L797 328q-11-63-11-66 0-37 23-56.5t80-19.5q29 0 67 20.5t66 43.5 73.5 62.5T1159 367h70q-13-13-56.5-58.5T1096 229t-84.5-80-93-76T829 21.5 743 0Q536 0 496 156 374-12 217-12q-71 0-122.5 23t-79 62-40 82.5T-37 248q0 112 16 216.5T34.5 672t99 179.5 154 123.5 212.5 47q76 0 137-51zM516 907q-74 0-139-93T276 582t-36-279q0-145 118-145 61 0 131 102 2 24 13 68l114 542q-42 37-100 37z"/><glyph unicode="e" horiz-adv-x="727" d="M240 324q0-93 49-135t119-42q79 0 185.5 80.5T752 418h92q-37-66-79.5-124.5T666 180 550 86 416.5 23.5 266 0Q124 0 43.5 93.5T-37 326q0 69 10 143.5t31.5 157T65 782t90 132 126 93.5 165 34.5q128 0 195.5-53.5T709 829q0-89-44.5-166T550 535.5t-148.5-82T246 412q-6-50-6-88zm346 495q0 27-4.5 50t-22 44-45.5 21q-54 0-106.5-68T320 706.5 262 510q90 1 165.5 48T544 675.5 586 819z"/><glyph unicode="f" horiz-adv-x="555" d="M795 1229h-97q4 40 4 55 0 34-22 52t-55 18q-43 0-83.5-38T481 1186l-35-162h150l-14-82H430L195-164q-75-348-367-348-97 0-169.5 62T-414-291q0 55 19 99t47.5 73 79 55.5T-174-21t113 37l247 1170q18 84 50 148t68.5 101.5T387 1496t86.5 30.5 85.5 7.5q97 0 169.5-62t72.5-159q0-47-6-84zM-301-262q0-23 25-45.5t57-22.5q81 0 117 160l26 119q-108-36-166.5-85T-301-262z"/><glyph unicode="g" horiz-adv-x="1013" d="M639 1024h295L741 117q109 57 188.5 131T1057 430l-8-162q-10-48-39.5-89t-77-73.5-98-57T717 0l-35-164q-72-348-369-348-99 0-164 51.5T84-313q0 41 11 75.5t35 63 51 50.5 69.5 43T329-45t89 35l20 92Q329-16 203-16q-70 0-122 27T1.5 82.5t-40 91T-51 270q0 76 10.5 154.5T-8 590t61.5 162.5 93.5 137 133.5 97T455 1022q54 0 96-26.5t65-69.5zM477 907q-57 0-105-45.5t-78.5-114-52.5-152T210 439t-9-130q0-70 38.5-99.5T350 180q55 0 123 72l121 567q-23 43-55.5 65.5T477 907zM197-285q0-24 19-45.5t50-21.5q33 0 67 48t52 134l12 61q-97-37-148.5-78.5T197-285z"/><glyph unicode="h" horiz-adv-x="1054" d="M897 719l-84-391q-10-42-10-66 0-37 22.5-56.5T905 186q29 0 67.5 20.5T1039 250t73.5 63 63.5 54h69q-14-14-57-59t-76-79-84-80-93-76-89.5-51.5T760 0Q506 0 506 223q0 47 12 105l78 368q6 27 6 54 0 55-26 87.5T508 870q-66 0-127-43L205 0H-90l297 1393 303 41-111-519q155 109 267 109 86 0 160.5-78T901 768q0-33-4-49z"/><glyph unicode="i" horiz-adv-x="550" d="M131 1024h295L279 328q-9-52-9-64 0-37 22.5-57.5T373 186q29 0 67 20.5t66 43.5 73.5 62.5T643 367h70q-13-13-56.5-58.5T580 229t-84.5-80-93-76T313 21.5 227 0Q105 0 38 55t-67 168q0 42 13 105zm39 270q0 68 47.5 116t114.5 48q68 0 116-48t48-116q0-67-48-114t-116-47-115 47-47 114z"/><glyph unicode="j" horiz-adv-x="452" d="M111 1024h295L215 127q223 107 313 303l-8-162q-19-89-102.5-142.5T195 33l-41-197Q82-512-215-512q-97 0-169.5 62T-457-291q0 55 19.5 99t48 73.5 79 56 95 42.5T-104 16zm22 274q0 68 47.5 116t114.5 48 115.5-48 48.5-116q0-67-48-114t-116-47-115 47-47 114zM-344-262q0-23 25-45.5t57-22.5q36 0 69 38.5t50 121.5l24 119q-108-36-166.5-85T-344-262z"/><glyph unicode="k" horiz-adv-x="1001" d="M758 1024h221L563 743q31 7 53 7 86 0 162-77.5T854 496q0-28-6-52l-29-116q-10-38-10-66 0-37 22.5-56.5T911 186q37 0 75 28.5t86.5 80T1147 367h70q-20-20-66.5-73t-88.5-98-94-92.5T863.5 28 766 0Q644 0 577 54.5T510 219q0 54 14 109l23 94q6 27 6 53 0 55-26 88t-68 33q-64 0-131-45L211 0H-84l297 1393 303 41-154-717q71 57 168 132.5T692.5 975t65.5 49z"/><glyph unicode="l" horiz-adv-x="585" d="M227 1393l303 41L295 328q-10-52-10-66 0-37 22.5-56.5T387 186q29 0 67 20.5t66 43.5 73.5 62.5T657 367h70q-14-14-57-59t-76-79-84-80-93-76-89.5-51.5T242 0Q120 0 54 55t-66 168q0 47 12 105z"/><glyph unicode="m" horiz-adv-x="1523" d="M1399 719l-84-391q-10-42-10-76 0-84 84-84 55 0 113 63.5T1604 377h96q-14-17-53-65.5t-67.5-82.5-73-81-81.5-76-81-50.5T1262 0q-254 0-254 223 0 47 12 105l78 368q6 27 6 54 0 55-26 87.5t-68 32.5q-63 0-119-36 10-42 10-72 0-15-4-43L745 0H449l147 696q6 27 6 54 0 55-26 87.5T508 870q-64 0-125-43L207 0H-88l217 1024h295l-23-109q151 109 265 109 57 0 112.5-37.5T868 889q169 135 299 135 87 0 161.5-78t74.5-180q0-15-4-47z"/><glyph unicode="n" horiz-adv-x="1030" d="M913 719l-84-391q-10-38-10-66 0-37 23-56.5t80-19.5q37 0 63.5 15t67 55 63.5 59h70q-19-19-62-67.5t-78.5-85.5T964 85t-94.5-62.5T776 0Q522 0 522 223q0 42 13 105l77 368q6 27 6 54 0 55-26 87.5T524 870q-65 0-129-43L221 0H-74l217 1024h295l-24-111q153 111 268 111 86 0 161-78t75-178q0-29-5-49z"/><glyph unicode="o" horiz-adv-x="856" d="M524 1044q240 0 248-301 18-18 59-18 42 0 78 17.5t73.5 44.5 64.5 38l8-43q-47-60-123.5-107.5T766 602q-14-149-60-269T594.5 139.5 453.5 27 299-12Q133-12 59.5 65.5T-14 324q0 183 44 324t119.5 226T320 1001.5t204 42.5zM395 186q45 0 83 33.5t64.5 90.5 44 125.5T614 582q-42 0-64 26.5T528 674q0 46 25 87t65 56q-9 107-86 107-68 0-123.5-67T322 693t-47.5-190T258 342q0-87 35.5-121.5T395 186z"/><glyph unicode="p" horiz-adv-x="931" d="M129 1024h295l-8-39q69 37 143 37 163 0 238-66t75-221q0-63-12-143Q776 2 412 2q-98 0-193 61L113-438l-310-74zm250-870q52 0 87.5 36t66 123.5T598 567q27 135 27 207 0 86-29.5 117T510 922q-55 0-117-43L246 190q48-36 133-36z"/><glyph unicode="q" horiz-adv-x="974" d="M666 1024h295L649-438l-309-74 162 762Q356 8 199 8 92 8 31.5 62T-29 225q0 232 71.5 416T233 923.5t261 98.5q122 0 159-55zm-127-92q-76 0-149-98T273 587t-44-296q0-70 14-103.5t54-33.5q47 0 103 58t128 165l72 340q18 92 18 129 0 44-18.5 65T539 932z"/><glyph unicode="r" horiz-adv-x="804" d="M152 1024h294l-22-102q132 102 242 102 68 0 107.5-36t39.5-95q0-60-42-110t-112-50q-32 0-50 14t-24 33.5-9 39.5-10.5 34-24.5 14q-43 0-73.5-15T399 803L229 0H-66z"/><glyph unicode="s" horiz-adv-x="831" d="M293 1004l297 61v-29q0-93 14.5-175.5t35-142 40.5-115T714.5 485 729 356q0-29-2-43 80 72 133 133l53-69q-26-20-221-187-42-89-132.5-139.5T332 0Q150 0 66 60.5T-18 268q0 118 45 188.5T137 532q84 151 156 472zm2-596q0-57-40-94.5T160 276q-34 0-74 19 0-174 174-174 60 0 115 67.5T430 365q0 50-23 120t-47 165.5T334 856q-4-13-42-143t-65-191q68-22 68-114z"/><glyph unicode="t" horiz-adv-x="598" d="M217 1307l303 41q-30-140-69-324h122l-16-82H434Q295 304 295 264q0-39 22-58.5t80-19.5q29 0 67.5 20.5T531 250t73.5 63 63.5 54h69q-14-14-57-59t-76-79-84-80-93-76-89.5-51.5T252 0Q130 0 64 55T-2 223q0 49 26 182t65.5 311T139 942H72l16 82h68z"/><glyph unicode="u" horiz-adv-x="1064" d="M678 1024h295L825 328q-8-46-8-64 0-37 22.5-57.5T920 186q29 0 67 20.5t66 43.5 73.5 62.5T1190 367h70q-13-13-56.5-58.5T1127 229t-84.5-80-93-76T860 21.5 774 0Q666 0 600.5 42.5T522 172Q339 0 227 0 105 0 38 55t-67 168q0 42 13 105l147 696h295L279 328q-9-52-9-64 0-37 22.5-57.5T373 186q53 0 145 74 3 31 12 68z"/><glyph unicode="v" horiz-adv-x="851" d="M672 1065q64 0 97.5-50.5T803 881t-14.5-176.5T746 511t-76-190.5T561 158 413.5 43 227 0Q105 0 39 55t-66 168q0 51 11 105l147 696h295L279 328q-11-53-11-76 0-66 78-66 58 0 112 48.5t94 124 70.5 166 46 178T684 858q-24-8-43-8-42 0-64 34t-22 81q0 35 34.5 67.5T672 1065z"/><glyph unicode="w" horiz-adv-x="1374" d="M1212 1065q64 0 97.5-50.5T1343 881t-14-176.5-42.5-193.5-76-190.5-109-162.5T954 43 768 0Q547 0 518 170 333 0 225 0 103 0 36 55t-67 168q0 42 13 105l147 696h295L276 328q-8-46-8-64 0-37 22.5-57.5T371 186q57 0 143 72 0 28 10 70l148 696h295L819 328q-10-48-10-76 0-66 78-66 58 0 112 48.5t94 124 70.5 166 46 178T1225 858q-24-8-43-8-42 0-64 34t-22 81q0 35 34 67.5t82 32.5z"/><glyph unicode="x" horiz-adv-x="747" d="M-70 119l-39 61q45 31 127 103.5T154 412L20 1024h295l105-481q81 74 138 161.5T618 862q-24-4-34-4-97 0-97 115 0 50 40 75t100 25q54 0 84-50.5T741 901q0-48-29.5-112T633 659.5t-95-119T442 436l27-119q8-39 14-57t18.5-38.5 33.5-28 55-7.5q29 0 67 20.5t66 43.5 73.5 62.5T860 367h70q-13-13-56.5-58.5T797 229t-84.5-80-93-76T530 21.5 444 0q-47 0-78.5 4.5t-58.5 19-44 34-33.5 58.5-28.5 84-27 117l-2 7q-28-23-112.5-96.5T-70 119z"/><glyph unicode="y" horiz-adv-x="1044" d="M688 1024h295L793 127q223 107 313 303l-8-162q-19-89-103-142.5T772 33l-41-197q-72-348-369-348-97 0-169 62t-72 159q0 55 19 99t47.5 73.5 78 56T360-20t113 36l29 140Q331 0 227 0 105 0 38 55t-67 168q0 42 13 105l147 696h295L279 328q-9-52-9-64 0-37 22.5-57.5T373 186q59 0 153 80zM233-262q0-23 25-45.5t57-22.5q36 0 69 38.5T434-170l25 119q-109-36-167.5-85T233-262z"/><glyph unicode="z" horiz-adv-x="784" d="M504 127q-14 0-25.5 16T467 184q0 66 37 95.5t94 29.5q42 0 69-34.5t27-84.5q0-83-61-136.5T455 0H-96l538 938q-94 4-149 4-113 0-113-45 14 0 24.5-17t10.5-42q0-123-129-123-42 0-69 34.5T-10 834q0 83 61 136.5t178 53.5h551L242 86q94-4 149-4 113 0 113 45z"/><glyph unicode="{" horiz-adv-x="720" d="M784 1536l-18-102q-72 0-113.5-10t-72.5-44q-52-58-72.5-125T485 1098l13-350q-6-164-82-228 24-27 24-74 0-60-38-157t-83.5-184T235-83.5 197-254q0-164 174-164l-19-92h-18q-105 0-151 14t-83 72q-39 58-39 137 0 65 30.5 150t69 157 81 167T301 358q6 24 6 45 0 64-84 64-25 0-65-6l24 117q44-7 64-7 38 0 64.5 15.5T351 623t21.5 55 9 59.5T383 799q0 58-7 166t-7 159q0 50 10 103t35 109 61 100 93.5 72 127.5 28h88z"/><glyph unicode="|" horiz-adv-x="1089" d="M639 1538V-512H449v2050h190z"/><glyph unicode="}" horiz-adv-x="720" d="M61-510l19 102q72 0 113.5 10t72.5 44q52 58 72 124.5T360-72l-12 351q5 163 82 227-24 27-24 74 0 60 38 157t83.5 184 83.5 188.5 38 170.5q0 164-174 164l19 92h18q105 0 150.5-14t82.5-72q39-61 39-137 0-65-30.5-150t-69-157T604 839t-59-171q-6-24-6-45 0-64 84-64 25 0 65 6l-24-116q-38 6-64 6-38 0-64.5-15.5T495 403t-21.5-55-9-59.5T463 227q0-58 7-166t7-159q0-50-10-103t-35-109-61-100-93.5-72T150-510H61z"/><glyph unicode="~" horiz-adv-x="882" d="M909 1372l13-2q-18-75-117.5-140T592 1165q-70 0-180 38t-164 38q-79 0-135-53l-13 4q49 98 137 149.5t205 51.5q79 0 180.5-34t157.5-34q85 0 129 47z"/><glyph unicode="¡" horiz-adv-x="448" d="M141 453h174L170-508h-295zm-20 309q0 68 47.5 116T283 926t115-48 48-116q0-67-47.5-114.5T283 600q-67 0-114.5 47T121 762z"/><glyph unicode="¢" horiz-adv-x="825" d="M260-55l64 354q-112 16-186.5 107T63 647q0 141 48 262.5T257.5 1116 489 1219l46 251h118l-55-249q81-5 132.5-38.5T782 1081q0-33-10-67H655q11 42 11 57 0 70-76 70h-10L424 438q10-2 31-2 40 0 76 10.5t72.5 34 59 41.5 62.5 53q-45-267-332-278L315-55h-55zm19 708q0-55 18.5-105t56.5-79l113 625q-82-64-135-190t-53-251z"/><glyph unicode="£" horiz-adv-x="952" d="M860 866l12-2q-18-75-117-140t-212-65h-33L395 186q32 4 101.5 6.5T608 200t115.5 36T874 324q-15-148-72-236T662 0H57l176 733q-10 2-34 2-80 0-136-53l-12 4q67 136 215 182l148 605 307 63-164-678q8-2 32.5-10.5T625 836t31.5-8 38-7 36.5-2q85 0 129 47z"/><glyph unicode="¤" horiz-adv-x="1024" d="M139 1008l78 73 115-114q83 61 186 61 101 0 182-59l115 114 74-73-113-113q62-84 62-188 0-103-62-187l113-112-74-74-113 113q-83-60-184-60-104 0-188 62L215 336l-74 74 115 114q-59 81-59 183 0 103 59 184zm379-95q-85 0-145-59.5T313 709t60-145 145-60 145 60 60 145-60 144.5T518 913z"/><glyph unicode="¥" horiz-adv-x="970" d="M643 629h268l-28-103H621l-29-133h268l-29-102H569L508 0H180l62 291H39l29 102h196l29 133H90l29 103h196L86 1536h336l180-739 307 739h135z"/><glyph unicode="¦" horiz-adv-x="1089" d="M639 455v-967H449v967h190zm0 161H449v922h190V616z"/><glyph unicode="§" horiz-adv-x="1110" d="M1075 1339q0-71-37-117t-100-46q-45 0-74 32 33 20 53.5 60.5T938 1350q0 47-29.5 78.5T819 1460q-76 0-132-66.5T631 1255q0-56 22.5-105t58-85.5 79-71.5 86.5-71 78.5-75.5 58-94T1036 635q0-135-63-235T799 279v-9Q799 97 680.5-7T365-111q-46 0-87 4.5t-91.5 21-86 44-60 78T16 154q0 116 56 186t149 70q78 0 154-103-97-9-131.5-46T209 137Q209-8 365-8q98 0 137 54.5T541 203q0 63-20.5 117t-53 93.5T396 490t-78.5 72-72 72-53 85.5T172 823q0 90 59 163.5T385 1096q-10 52-10 98 0 79 38.5 146T514 1448.5t136 64.5 149 23q276 0 276-197zM825 504q0 57-21.5 107t-55 85.5-78 73-86.5 68-85.5 74T428 999q-39-39-39-92 0-28 18.5-58t48.5-59 67.5-60.5 78-69.5 76-79 65-94.5T786 375q39 48 39 129z"/><glyph unicode="¨" horiz-adv-x="802" d="M115 1298q0 51 36.5 88t88.5 37q51 0 88-37t37-88q0-52-37-88t-88-36q-53 0-89 36t-36 88zm368 0q0 51 36.5 88t88.5 37q51 0 88-37t37-88q0-52-37-88t-88-36q-53 0-89 36t-36 88z"/><glyph unicode="©" horiz-adv-x="1202" d="M614 991l-2-6q95 0 165-52.5T868 797l-106-41q-7 8-8 24.5t-2 18.5q-4 12-15 29t-44.5 37-78.5 20q-78 0-134-48.5T424 698q0-92 56-155.5T618 479q48 0 89.5 24.5T772 571l90-59q-43-65-110-102t-142-37q-124 0-211.5 93.5T311 688q0 129 88.5 216T614 991zm-14-835q-133 0-247 69T171.5 414.5 104 678q0 144 67.5 265T353 1133t247 69 247-68.5 181.5-189T1096 680t-67.5-265T847 225t-247-69zM199 678q0-183 119-309.5T604 242q166 0 285 126.5T1008 678 889 987.5 604 1114q-167 0-286-126.5T199 678z"/><glyph unicode="ª" horiz-adv-x="706" d="M655 1516l-86-377q-6-36-6-37 0-41 43-41 21 0 31 4-15-45-38.5-69t-41-28.5T514 963q-99 0-119 84-71-91-162-91-77 0-111 41t-34 99q0 60 9 116.5t32 112 57.5 96.5 89 66.5T399 1513q40 0 80-28l6 31h170zm-256-377l68 293q-23 20-59 20-42 0-80-50.5T269 1276t-21-150q0-77 69-77 53 0 82 90z"/><glyph unicode="«" horiz-adv-x="1206" d="M688 879l-20-113-494-246 397-196-24-117L41 487l18 84zm430 0l-20-113-494-246 397-196-24-117-506 280 18 84z"/><glyph unicode="¬" horiz-adv-x="909" d="M817 616L713 104H481l72 351H39l37 161h741z"/><glyph unicode="­" horiz-adv-x="593" d="M485 616l-34-161H39l37 161h409z"/><glyph unicode="®" horiz-adv-x="1132" d="M565 162q-100 0-191 41T216 313.5 109.5 480 70 684q0 108 39.5 205.5t106.5 167T374 1167t191 41q133 0 247-68.5t181.5-189T1061 686t-67.5-265T812 231t-247-69zM164 684q0-183 119-309.5T569 248q166 0 285 126.5T973 684 854 993.5 569 1120q-167 0-286-126.5T164 684zm196-291l2 596h193q110 0 178-45t68-129q0-54-33.5-97.5T680 659l133-256-96-14-127 256H455V393h-95zm95 512V723h106q36 0 65.5 6t55 27.5T707 813q0 49-44.5 70.5T557 905H455z"/><glyph unicode="°" horiz-adv-x="643" d="M408 1438q87 0 127-58.5t40-173.5q0-68-20.5-142.5t-57-142-96-111.5T272 766q-113 0-154.5 57T76 999q0 187 91 313t241 126zm-181-375q-4-50-4-88 0-133 56-133 53 0 93 56t60.5 145 20.5 194q0 129-52 129-50 0-106.5-83.5T227 1063z"/><glyph unicode="±" horiz-adv-x="1091" d="M768 1112l-55-250h260l-47-229H664l-56-252H377l55 252H170l49 229h262l56 250h231zm84-811l-35-162H63l37 162h752z"/><glyph unicode="²" horiz-adv-x="614" d="M360 834q55 0 92 15t87 60q0-37-.5-57t-3.5-47-8.5-40.5T511 735t-25-23.5-37-12.5-52-5q-65 0-149 20.5T104 735q-13 0-30.5-6t-37-15.5T10 702q-4 24-4 37 0 66 40.5 130T144 987t114.5 110.5 98 131T397 1384q0 38-22 64.5t-49 26.5q-56 0-76.5-22t-20.5-67q0-24 11-47t34-28q-45-39-92-39-37 0-60.5 26T98 1372q0 65 61 113.5t185 48.5q225 0 225-176 0-70-34-132.5t-88-111-110-90T226 937t-81-85q24 0 94.5-8T360 834z"/><glyph unicode="³" horiz-adv-x="647" d="M264 991q-34-3-56.5-15.5t-32-33-12.5-39-3-43.5q0-52 26.5-71t77.5-19q63 0 104.5 58.5T410 963q0 68-38.5 124.5T256 1169q96 23 149.5 88.5T459 1389q0 38-20 62t-56 24q-107 0-107-89 0-24 11.5-47t34.5-28q-45-39-93-39-37 0-60.5 26t-23.5 74q0 64 66 113t190 49q98 0 153.5-47t55.5-115q0-59-40.5-113.5T449 1167q147-44 147-180 0-105-89.5-196T291 700q-44 0-83 6t-83.5 23-71 55.5T27 879q0 79 36.5 123.5T168 1047q82 0 96-56z"/><glyph unicode="´" horiz-adv-x="411" d="M170 1149l186 387h215l-247-387H170z"/><glyph unicode="µ" horiz-adv-x="1064" d="M131 1024h295L279 328q-9-52-9-64 0-37 22.5-57.5T373 186q53 0 145 74 3 31 12 68l148 696h295L825 328q-8-46-8-64 0-37 22.5-57.5T920 186q29 0 67 20.5t66 43.5 73.5 62.5T1190 367h70q-13-13-56.5-58.5T1127 229t-84.5-80-93-76T860 21.5 774 0Q666 0 600.5 42.5T522 172Q339 0 227 0h-18l-57-268-310-74z"/><glyph unicode="¶" horiz-adv-x="1110" d="M489-166H297l158 756q-100 20-171 83T180 822t-33 186q0 77 20.5 152t63 143 102 119 144 81.5T659 1534q80 0 146-18.5t119.5-57T1008 1353t30-157q0-62-16-147L762-166H569l166 778q-33-11-88-22zm181 860h12q41 0 72 8l98 465q12 59 12 101 0 85-47 129z"/><glyph unicode="·" horiz-adv-x="888" d="M246 547q0 82 57 140t139 58 140.5-58T641 547t-58.5-139.5T442 350t-139 57.5T246 547z"/><glyph unicode="¸" horiz-adv-x="1705" d="M614-221q0-104-74-164.5T369-446q-70 0-117.5 14T150-389q35 65 81 65 45 0 86-27.5t66-27.5 43 26.5 18 59.5q0 31-19.5 52.5T365-219q-49 0-107-25L367 59l71-47-59-147q66 16 108 16 63 0 95-27t32-75z"/><glyph unicode="¹" horiz-adv-x="444" d="M406 1534L217 707H45l158 690H90l14 51q148 0 302 86z"/><glyph unicode="º" horiz-adv-x="673" d="M537 1384v-10q14 8 23.5 17t22.5 25 21 24l12-23q-27-87-79-117-4-82-30.5-150t-65-109.5-82.5-64-87-22.5q-96 0-141 43t-45 140q0 98 25.5 174t69.5 122 99 69.5 117 23.5q45 0 79-14t34-35q0-37-53-54-16 39-54 39-41 0-73.5-36t-50-89-26.5-103-9-87q0-47 22-65.5t62-18.5q47 0 81 68.5t42 152.5q-33 5-33 45 0 30 25.5 57t54.5 27q39 0 39-29z"/><glyph unicode="»" horiz-adv-x="1200" d="M154 766l18 113 504-308-23-110L31 207l28 117 492 196zm454 0l19 113 503-308-22-110-623-254 29 117 492 196z"/><glyph unicode="¼" horiz-adv-x="1411" d="M973 1536L432-338H285l540 1874h148zm82-1229H766q14 41 60 129t79 172 33 156q0 36-8 67 56 0 94.5-27t38.5-77q0-49-20-99t-44-84-58.5-81-51.5-76h184l96 422 177 22-103-444h78l-25-80h-71L1155 2H985zm-551 981L315 461H143l158 690H188l15 51q147 0 301 86z"/><glyph unicode="½" horiz-adv-x="1382" d="M963 1536L422-338H274l541 1874h148zm141-1399q55 0 91.5 15.5T1282 213q0-52-1.5-77.5T1272 78t-21.5-46T1209 8t-68-10q-65 0-149 20.5T848 39q-13 0-30.5-6t-37-15.5T754 6q-4 24-4 37 0 49 21.5 96t56 86.5T904 305t83.5 82 76 86 56 99.5T1141 688q0 38-22 64t-50 26q-56 0-76-21.5T973 690q0-24 11.5-47.5T1018 614q-45-39-92-39-37 0-60.5 26.5T842 676q0 66 60.5 114t184.5 48q226 0 226-176 0-70-34-132.5t-88-111-110-90T970 241t-81-85q24 0 94.5-8.5T1104 137zM504 1288L315 461H143l158 690H188l15 51q147 0 301 86z"/><glyph unicode="¾" horiz-adv-x="1677" d="M1210 1536L670-338H522l541 1874h147zM362 745q-34-3-56.5-15.5t-32-33-12.5-39-3-43.5q0-52 26.5-71t77.5-19q63 0 104.5 58.5T508 717q0 68-38.5 125T354 924q96 23 149.5 88.5T557 1143q0 38-20 62t-56 24q-106 0-106-88 0-24 11.5-47.5T420 1065q-45-39-92-39-37 0-60.5 26t-23.5 74q0 64 66 113t190 49q98 0 153.5-47t55.5-115q0-58-41-112.5T547 922q75-22 111-70t36-111q0-105-89.5-195.5T389 455q-264 0-264 178 0 79 36.5 123.5T266 801q82 0 96-56zm936-438h-288q14 41 60 129t79 172 33 156q0 36-8 67 56 0 94.5-27t38.5-77q0-49-20-99t-44-84-58.5-81-51.5-76h184l96 422 176 22-102-444h78l-25-80h-72L1399 2h-170z"/><glyph unicode="¿" horiz-adv-x="899" d="M25-262q0 78 20 142.5t55 112T177.5 81t91.5 80.5 93.5 79.5 87 95T518 453h135q0-58-20.5-113T579 240.5 506.5 152t-79-88.5-72.5-91-53.5-105T281-254q0-71 32-106t80-35q62 0 113 48.5T557-225q0 42-19.5 83T479-90q26 42 66 64t84 22q64 0 109.5-45T784-176q0-55-24.5-110.5t-73.5-106-135.5-82T354-506Q25-506 25-262zM473 762q0 69 47.5 117.5T635 928q68 0 116-48.5T799 762q0-67-48-114.5T635 600q-67 0-114.5 47T473 762z"/><glyph unicode="À" horiz-adv-x="1368" d="M1096 0H801l157 743q-151 66-276 74-116-249-190-511.5T418-117q0-36 4-59t9-30.5 9.5-13.5 5.5-11q-118 7-163 24-98 36-109 165-2 19-2 40 0 131 83.5 359T473 817q-100-7-160-30.5T233 711q8 0 17.5-21.5T260 647q0-35-31.5-57.5T135 567q-49 0-83 32.5T18 696q0 61 55.5 116t148 87.5T418 932q54 0 121-6 81 129 166 236.5T882 1356t187.5 134 183.5 48 164-31zM977 834l119 557q-176-96-373-488 146-27 254-69zm141 827l-121 387h215l60-387h-154z"/><glyph unicode="Á" horiz-adv-x="1368" d="M1096 0H801l157 743q-151 66-276 74-116-249-190-511.5T418-117q0-36 4-59t9-30.5 9.5-13.5 5.5-11q-118 7-163 24-98 36-109 165-2 19-2 40 0 131 83.5 359T473 817q-100-7-160-30.5T233 711q8 0 17.5-21.5T260 647q0-35-31.5-57.5T135 567q-49 0-83 32.5T18 696q0 61 55.5 116t148 87.5T418 932q54 0 121-6 81 129 166 236.5T882 1356t187.5 134 183.5 48 164-31zM977 834l119 557q-176-96-373-488 146-27 254-69zm59 827l187 387h215l-248-387h-154z"/><glyph unicode="Â" horiz-adv-x="1368" d="M1096 0H801l157 743q-151 66-276 74-116-249-190-511.5T418-117q0-36 4-59t9-30.5 9.5-13.5 5.5-11q-118 7-163 24-98 36-109 165-2 19-2 40 0 131 83.5 359T473 817q-100-7-160-30.5T233 711q8 0 17.5-21.5T260 647q0-35-31.5-57.5T135 567q-49 0-83 32.5T18 696q0 61 55.5 116t148 87.5T418 932q54 0 121-6 81 129 166 236.5T882 1356t187.5 134 183.5 48 164-31zM977 834l119 557q-176-96-373-488 146-27 254-69zm477 827h-65l-123 164-322-164h-90l434 387h43z"/><glyph unicode="Ã" horiz-adv-x="1368" d="M1096 0H801l157 743q-151 66-276 74-116-249-190-511.5T418-117q0-36 4-59t9-30.5 9.5-13.5 5.5-11q-118 7-163 24-98 36-109 165-2 19-2 40 0 131 83.5 359T473 817q-100-7-160-30.5T233 711q8 0 17.5-21.5T260 647q0-35-31.5-57.5T135 567q-49 0-83 32.5T18 696q0 61 55.5 116t148 87.5T418 932q54 0 121-6 81 129 166 236.5T882 1356t187.5 134 183.5 48 164-31zm491 1884l12-2q-18-75-117-140t-212-65q-70 0-180 38t-164 38q-79 0-135-53l-13 4q49 98 137 149.5t205 51.5q79 0 180.5-34t157.5-34q85 0 129 47zM977 834l119 557q-176-96-373-488 146-27 254-69z"/><glyph unicode="Ä" horiz-adv-x="1368" d="M1096 0H801l157 743q-151 66-276 74-116-249-190-511.5T418-117q0-36 4-59t9-30.5 9.5-13.5 5.5-11q-118 7-163 24-98 36-109 165-2 19-2 40 0 131 83.5 359T473 817q-100-7-160-30.5T233 711q8 0 17.5-21.5T260 647q0-35-31.5-57.5T135 567q-49 0-83 32.5T18 696q0 61 55.5 116t148 87.5T418 932q54 0 121-6 81 129 166 236.5T882 1356t187.5 134 183.5 48 164-31zM977 834l119 557q-176-96-373-488 146-27 254-69zm272 976q0 51 36.5 88t88.5 37q51 0 88-37t37-88q0-52-37-88t-88-36q-53 0-89 36t-36 88zm-368 0q0 51 36.5 88t88.5 37q51 0 87.5-37t36.5-88q0-52-36.5-88t-87.5-36q-53 0-89 36t-36 88z"/><glyph unicode="Å" horiz-adv-x="1368" d="M1096 0H801l157 743q-151 66-276 74-116-249-190-511.5T418-117q0-36 4-59t9-30.5 9.5-13.5 5.5-11q-118 7-163 24-98 36-109 165-2 19-2 40 0 131 83.5 359T473 817q-100-7-160-30.5T233 711q8 0 17.5-21.5T260 647q0-35-31.5-57.5T135 567q-49 0-83 32.5T18 696q0 61 55.5 116t148 87.5T418 932q54 0 121-6 81 129 166 236.5T882 1356t187.5 134 183.5 48 164-31zM977 834l119 557q-176-96-373-488 146-27 254-69zm295 1138q72 0 109.5-43.5T1419 1815q0-74-44.5-123.5T1241 1642q-64 0-103.5 42t-39.5 102q0 29 10.5 60.5t30 60 54.5 47 79 18.5zm71-164q0 20-1.5 32.5t-7 29.5-20.5 26-38 9q-49 0-72.5-35t-23.5-80q0-76 69-76 46 0 70 25t24 69z"/><glyph unicode="Æ" horiz-adv-x="1564" d="M1556 0H801l157 743q-151 66-276 74-116-249-190-511.5T418-117q0-36 4-59t9-30.5 9.5-13.5 5.5-11q-118 7-163 24-98 36-109 165-2 19-2 40 0 131 83.5 359T473 817q-100-7-160-30.5T233 711q8 0 17.5-21.5T260 647q0-35-31.5-57.5T135 567q-49 0-83 32.5T18 696q0 61 55.5 116t148 87.5T418 932q54 0 121-6 81 129 166 236.5T882 1356t187.5 134 183.5 48q53 0 173.5-20.5T1622 1497q119 0 240 39-4-10-11.5-35t-12-39-14.5-36.5-20-36-26.5-30.5-35-26-45-15.5-57.5-6.5q-21 0-41 1.5t-40.5 6-34.5 8-36.5 11.5-31.5 11.5-34.5 13.5-32.5 13l-111-518h317l-41-151h-309l-104-490h458zM977 834l119 557q-176-96-373-488 146-27 254-69z"/><glyph unicode="Ç" horiz-adv-x="1017" d="M741-221q0-104-74-164.5T496-446q-71 0-118.5 14.5T276-389q35 65 82 65 45 0 86-27.5t66-27.5q26 0 43.5 26.5T571-293q0 31-19.5 52.5T492-219q-50 0-107-25l82 234Q403-7 346 8.5t-112.5 53-95.5 94T73.5 303 49 510q0 100 9.5 197.5T91 908t58 193 90 171 124.5 139 166 91.5T739 1536q59 0 110.5-9t97-30 78.5-52.5 52-78 19-104.5q0-87-35-138t-109-51q-70 0-116 53 35 10 62.5 67t27.5 101q0 14-2 28.5t-10.5 37-22.5 39-42 29-65 12.5q-90 0-170-86.5T482.5 1134 401 847.5 371 555q0-106 11-174t41-117.5 82.5-70.5T641 172q122 0 225 50.5T1024 369l47-21q-35-97-94.5-167.5t-132-109T702 14 555-10l-49-125q66 16 108 16 63 0 95-27t32-75z"/><glyph unicode="È" horiz-adv-x="940" d="M944 369l47-21Q860-12 446-12q-103 0-185 34.5t-133 93T50 247 23 401q0 102 39.5 193.5T188 758t205 96q-101 55-152 137t-51 174q0 71 31 137t87 118.5 144 84 193 31.5q74 0 139.5-15.5t120-46.5 86-85.5T1022 1262q0-87-34.5-138T879 1073q-71 0-117 53 35 10 62.5 67t27.5 101q0 15-1 29t-9 38.5-21 41.5-40 30-64 13q-110 0-180-73.5T467 1194q0-96 66.5-186.5T737 856q-183-75-269.5-185.5T381 444q0-112 71-192t169-80q115 0 189.5 47.5T944 369zM657 1661l-120 387h215l59-387H657z"/><glyph unicode="É" horiz-adv-x="940" d="M944 369l47-21Q860-12 446-12q-103 0-185 34.5t-133 93T50 247 23 401q0 102 39.5 193.5T188 758t205 96q-101 55-152 137t-51 174q0 71 31 137t87 118.5 144 84 193 31.5q74 0 139.5-15.5t120-46.5 86-85.5T1022 1262q0-87-34.5-138T879 1073q-71 0-117 53 35 10 62.5 67t27.5 101q0 15-1 29t-9 38.5-21 41.5-40 30-64 13q-110 0-180-73.5T467 1194q0-96 66.5-186.5T737 856q-183-75-269.5-185.5T381 444q0-112 71-192t169-80q115 0 189.5 47.5T944 369zM596 1661l186 387h215l-247-387H596z"/><glyph unicode="Ê" horiz-adv-x="940" d="M944 369l47-21Q860-12 446-12q-103 0-185 34.5t-133 93T50 247 23 401q0 102 39.5 193.5T188 758t205 96q-101 55-152 137t-51 174q0 71 31 137t87 118.5 144 84 193 31.5q74 0 139.5-15.5t120-46.5 86-85.5T1022 1262q0-87-34.5-138T879 1073q-71 0-117 53 35 10 62.5 67t27.5 101q0 15-1 29t-9 38.5-21 41.5-40 30-64 13q-110 0-180-73.5T467 1194q0-96 66.5-186.5T737 856q-183-75-269.5-185.5T381 444q0-112 71-192t169-80q115 0 189.5 47.5T944 369zm72 1292h-66l-123 164-321-164h-90l434 387h43z"/><glyph unicode="Ë" horiz-adv-x="940" d="M944 369l47-21Q860-12 446-12q-103 0-185 34.5t-133 93T50 247 23 401q0 102 39.5 193.5T188 758t205 96q-101 55-152 137t-51 174q0 71 31 137t87 118.5 144 84 193 31.5q74 0 139.5-15.5t120-46.5 86-85.5T1022 1262q0-87-34.5-138T879 1073q-71 0-117 53 35 10 62.5 67t27.5 101q0 15-1 29t-9 38.5-21 41.5-40 30-64 13q-110 0-180-73.5T467 1194q0-96 66.5-186.5T737 856q-183-75-269.5-185.5T381 444q0-112 71-192t169-80q115 0 189.5 47.5T944 369zM385 1810q0 51 36.5 88t88.5 37q51 0 88-37t37-88q0-52-37-88t-88-36q-53 0-89 36t-36 88zm369 0q0 51 36.5 88t88.5 37q51 0 88-37t37-88q0-52-37-88t-88-36q-53 0-89 36t-36 88z"/><glyph unicode="Ì" horiz-adv-x="768" d="M813 1532L487 0H193l296 1391q-136-57-211-171t-75-276q0-46 6.5-76t14-44.5T231 805q-110 0-164.5 46T12 1004q0 132 108 256.5t275 200 336 75.5q28 0 82-4zm-221 129l-121 387h215l59-387H592z"/><glyph unicode="Í" horiz-adv-x="768" d="M813 1532L487 0H193l296 1391q-136-57-211-171t-75-276q0-46 6.5-76t14-44.5T231 805q-110 0-164.5 46T12 1004q0 132 108 256.5t275 200 336 75.5q28 0 82-4zm-197 129l187 387h215l-248-387H616z"/><glyph unicode="Î" horiz-adv-x="768" d="M813 1532L487 0H193l296 1391q-136-57-211-171t-75-276q0-46 6.5-76t14-44.5T231 805q-110 0-164.5 46T12 1004q0 132 108 256.5t275 200 336 75.5q28 0 82-4zm96 129h-65l-123 164-322-164h-90l434 387h43z"/><glyph unicode="Ï" horiz-adv-x="768" d="M813 1532L487 0H193l296 1391q-136-57-211-171t-75-276q0-46 6.5-76t14-44.5T231 805q-110 0-164.5 46T12 1004q0 132 108 256.5t275 200 336 75.5q28 0 82-4zm-102 278q0 51 36.5 88t88.5 37q51 0 88-37t37-88q0-52-37-88t-88-36q-53 0-89 36t-36 88zm-369 0q0 51 36.5 88t88.5 37q51 0 88-37t37-88q0-52-37-88t-88-36q-53 0-89 36t-36 88z"/><glyph unicode="Ð" horiz-adv-x="1357" d="M471 1303l303 40-104-485h161l-40-151H637L528 195q55-41 117-41 88 0 164 83t125 213 76.5 285 27.5 305q0 82-6.5 141t-24.5 110.5-49.5 83T876 1424t-120 18q-251 0-402-133.5T203 944q0-46 6.5-76t14-44.5T231 805q-110 0-164.5 46T12 1004q0 132 108 256.5t275 200 336 75.5q138 0 243-30.5t169.5-80.5 105.5-123 56.5-150 15.5-169q0-260-78-493.5t-209.5-375T754-27Q630-27 504 82L487 0H193l151 707h-80l41 151h72z"/><glyph unicode="Ñ" horiz-adv-x="1437" d="M1188 1532h295L1157 0H862q-67 0-93 109.5T743 418q0 99 7.5 322t7.5 331q0 125-4 182L487 0H193l296 1393q-137-58-211.5-173T203 944q0-46 6.5-76t14-44.5T231 805q-110 0-164.5 46T12 1004q0 132 108 256.5t275 200 336 75.5q44 0 74-7.5t51-28 33-46 18.5-73.5 8.5-97 2-129q0-109-11.5-347T895 473q0-153 20-223zm215 352l12-2q-18-75-117.5-140t-212.5-65q-70 0-180 38t-164 38q-79 0-135-53l-12 4q49 98 137 149.5t205 51.5q79 0 180.5-34t157.5-34q85 0 129 47z"/><glyph unicode="Ò" d="M795 1343q-130-171-203.5-392T518 485q0-143 41-237t121-94q85 0 173.5 137t145 341 56.5 392q0 74-6 130.5t-25 113-51 93-87 59-130 22.5q-251 0-402-133.5T203 944q0-46 6.5-76t14-44.5T231 805q-110 0-164.5 46T12 1004q0 132 108 256.5t275 200 336 75.5q296 0 428.5-139.5T1292 981q0-121-28-257t-82.5-267.5-127-237.5T884 47.5 680-18Q474-18 367 90T260 444q0 119 16 242.5t51.5 245 85 216.5 124 153.5T698 1360q38 0 97-17zm26 318l-121 387h215l60-387H821z"/><glyph unicode="Ó" d="M795 1343q-130-171-203.5-392T518 485q0-143 41-237t121-94q85 0 173.5 137t145 341 56.5 392q0 74-6 130.5t-25 113-51 93-87 59-130 22.5q-251 0-402-133.5T203 944q0-46 6.5-76t14-44.5T231 805q-110 0-164.5 46T12 1004q0 132 108 256.5t275 200 336 75.5q296 0 428.5-139.5T1292 981q0-121-28-257t-82.5-267.5-127-237.5T884 47.5 680-18Q474-18 367 90T260 444q0 119 16 242.5t51.5 245 85 216.5 124 153.5T698 1360q38 0 97-17zm88 318l186 387h215l-248-387H883z"/><glyph unicode="Ô" d="M795 1343q-130-171-203.5-392T518 485q0-143 41-237t121-94q85 0 173.5 137t145 341 56.5 392q0 74-6 130.5t-25 113-51 93-87 59-130 22.5q-251 0-402-133.5T203 944q0-46 6.5-76t14-44.5T231 805q-110 0-164.5 46T12 1004q0 132 108 256.5t275 200 336 75.5q296 0 428.5-139.5T1292 981q0-121-28-257t-82.5-267.5-127-237.5T884 47.5 680-18Q474-18 367 90T260 444q0 119 16 242.5t51.5 245 85 216.5 124 153.5T698 1360q38 0 97-17zm424 318h-66l-123 164-321-164h-91l435 387h43z"/><glyph unicode="Õ" d="M795 1343q-130-171-203.5-392T518 485q0-143 41-237t121-94q85 0 173.5 137t145 341 56.5 392q0 74-6 130.5t-25 113-51 93-87 59-130 22.5q-251 0-402-133.5T203 944q0-46 6.5-76t14-44.5T231 805q-110 0-164.5 46T12 1004q0 132 108 256.5t275 200 336 75.5q296 0 428.5-139.5T1292 981q0-121-28-257t-82.5-267.5-127-237.5T884 47.5 680-18Q474-18 367 90T260 444q0 119 16 242.5t51.5 245 85 216.5 124 153.5T698 1360q38 0 97-17zm501 541l13-2q-18-75-117.5-140T979 1677q-70 0-180 38t-164 38q-79 0-135-53l-13 4q49 98 137 149.5t205 51.5q79 0 180.5-34t157.5-34q85 0 129 47z"/><glyph unicode="Ö" d="M795 1343q-130-171-203.5-392T518 485q0-143 41-237t121-94q85 0 173.5 137t145 341 56.5 392q0 74-6 130.5t-25 113-51 93-87 59-130 22.5q-251 0-402-133.5T203 944q0-46 6.5-76t14-44.5T231 805q-110 0-164.5 46T12 1004q0 132 108 256.5t275 200 336 75.5q296 0 428.5-139.5T1292 981q0-121-28-257t-82.5-267.5-127-237.5T884 47.5 680-18Q474-18 367 90T260 444q0 119 16 242.5t51.5 245 85 216.5 124 153.5T698 1360q38 0 97-17zm-164 467q0 51 36.5 88t88.5 37q51 0 88-37t37-88q0-52-37-88t-88-36q-53 0-89 36t-36 88zm368 0q0 51 36.5 88t88.5 37q51 0 88-37t37-88q0-52-37-88t-88-36q-53 0-89 36t-36 88z"/><glyph unicode="×" horiz-adv-x="1054" d="M201 727l133 131 192-194 197 196 131-133-195-195 195-194-131-133-197 194-192-192-133 131 194 194z"/><glyph unicode="Ø" d="M676-18L571-512H465L569-14Q491-9 437.5 8.5t-95.5 56T280 171t-20 169q0 118 16 242t51.5 245 85.5 215 124 152.5 161 58.5q41 0 97-16-130-171-203.5-392T518 379q0-176 90-213l246 1155q-51 14-98 14-252 0-402.5-133T203 838q0-46 6.5-76t14-45 7.5-19q-110 0-164.5 46T12 897q0 99 64.5 197.5t166 171.5 232 118.5T731 1430q70 0 143-13l25 119h107l-31-143q317-110 317-547 0-162-45-317t-123.5-277T928 56 676-18zm379 907q0 279-107 379L713 156q83 20 161.5 121T1004 543t51 346z"/><glyph unicode="Ù" horiz-adv-x="1388" d="M1141 1532h293L1108 0H813l23 106Q720 2 637 2q-188 0-283.5 98.5T258 436q0 109 21 242.5t59.5 272 103 266.5T584 1423q-179-42-280-166.5T203 944q0-46 6.5-76t14-44.5T231 805q-110 0-164.5 46T12 1004q0 132 108 256.5t275 200 336 75.5q117 0 154-10-137-180-252-494.5T518 485q0-143 41-237t121-94q112 0 199 157zm-217 129l-121 387h215l59-387H924z"/><glyph unicode="Ú" horiz-adv-x="1388" d="M1141 1532h293L1108 0H813l23 106Q720 2 637 2q-188 0-283.5 98.5T258 436q0 109 21 242.5t59.5 272 103 266.5T584 1423q-179-42-280-166.5T203 944q0-46 6.5-76t14-44.5T231 805q-110 0-164.5 46T12 1004q0 132 108 256.5t275 200 336 75.5q117 0 154-10-137-180-252-494.5T518 485q0-143 41-237t121-94q112 0 199 157zm-258 129l186 387h215l-248-387H883z"/><glyph unicode="Û" horiz-adv-x="1388" d="M1141 1532h293L1108 0H813l23 106Q720 2 637 2q-188 0-283.5 98.5T258 436q0 109 21 242.5t59.5 272 103 266.5T584 1423q-179-42-280-166.5T203 944q0-46 6.5-76t14-44.5T231 805q-110 0-164.5 46T12 1004q0 132 108 256.5t275 200 336 75.5q117 0 154-10-137-180-252-494.5T518 485q0-143 41-237t121-94q112 0 199 157zm159 129h-65l-123 164-321-164h-91l435 387h43z"/><glyph unicode="Ü" horiz-adv-x="1388" d="M1141 1532h293L1108 0H813l23 106Q720 2 637 2q-188 0-283.5 98.5T258 436q0 109 21 242.5t59.5 272 103 266.5T584 1423q-179-42-280-166.5T203 944q0-46 6.5-76t14-44.5T231 805q-110 0-164.5 46T12 1004q0 132 108 256.5t275 200 336 75.5q117 0 154-10-137-180-252-494.5T518 485q0-143 41-237t121-94q112 0 199 157zm-367 278q0 51 36.5 88t88.5 37q51 0 88-37t37-88q0-52-37-88t-88-36q-53 0-89 36t-36 88zm369 0q0 51 36.5 88t88.5 37q51 0 88-37t37-88q0-52-37-88t-88-36q-53 0-89 36t-36 88z"/><glyph unicode="Ý" horiz-adv-x="1269" d="M897 0H569l136 631-197 768q-144-53-224.5-170.5T203 944q0-46 6.5-76t14-44.5T231 805q-110 0-164.5 46T12 1004q0 132 108 256.5t275 200 336 75.5q28 0 82-4l178-733 303 727h136l-398-895zm59 1661l187 387h215l-248-387H956z"/><glyph unicode="Þ" horiz-adv-x="1193" d="M512 1495l303 41-49-227q112-5 199.5-40t140-90.5T1185 1054t27-147-25.5-156.5-76.5-149-120.5-125T825 390t-202-32h-60L487 0H193l245 1151q-115-60-175-170t-60-262q0-46 6.5-76t14-44.5T231 580q-110 0-164.5 45.5T12 778q0 146 129.5 281T461 1262zm78-1061h18q78 0 149.5 47t121 120.5 79 163T987 938q0 119-60 197t-182 82L575 418q2 3 15 16z"/><glyph unicode="ß" horiz-adv-x="921" d="M461 1085L135-438l-309-74 340 1597q18 84 50 148.5t68.5 101.5 82.5 60 86.5 31 85.5 8q135 0 207.5-75.5T819 1174q0-92-49.5-175.5T631 874q103-35 150.5-112.5T829 584q0-40-10-92-25-121-56.5-209t-65-142T621 55t-85.5-43.5T440 0q-21 0-67 4l26 121q36 7 59.5 20.5t50 49 49 104T602 475q21 100 21 152 0 70-34 113.5T475 805l37 119q73 30 121.5 87t48.5 140q0 58-18.5 80t-59.5 22q-43 0-83-38t-60-130z"/><glyph unicode="à" horiz-adv-x="1030" d="M649 1024h295L797 328q-9-52-9-64 0-37 22.5-57.5T891 186q29 0 67 20.5t66 43.5 73.5 62.5T1161 367h70q-13-13-56.5-58.5T1098 229t-84.5-80-93-76T831 21.5 745 0Q536 0 496 156 374-12 217-12q-71 0-122.5 23t-79 62-40 82.5T-37 248q0 112 16 216.5T34.5 672t99 179.5 154 123.5 212.5 47q76 0 137-51zM516 907q-74 0-139-93T276 582t-36-279q0-145 118-145 61 0 131 102 2 24 13 68l114 542q-42 37-100 37zm-18 242l-121 387h215l59-387H498z"/><glyph unicode="á" horiz-adv-x="1001" d="M649 1024h295L797 328q-9-52-9-64 0-37 22.5-57.5T891 186q29 0 67 20.5t66 43.5 73.5 62.5T1161 367h70q-13-13-56.5-58.5T1098 229t-84.5-80-93-76T831 21.5 745 0Q536 0 496 156 374-12 217-12q-71 0-122.5 23t-79 62-40 82.5T-37 248q0 112 16 216.5T34.5 672t99 179.5 154 123.5 212.5 47q76 0 137-51zM516 907q-74 0-139-93T276 582t-36-279q0-145 118-145 61 0 131 102 2 24 13 68l114 542q-42 37-100 37zm-10 242l186 387h215l-248-387H506z"/><glyph unicode="â" horiz-adv-x="1030" d="M649 1024h295L797 328q-9-52-9-64 0-37 22.5-57.5T891 186q29 0 67 20.5t66 43.5 73.5 62.5T1161 367h70q-13-13-56.5-58.5T1098 229t-84.5-80-93-76T831 21.5 745 0Q536 0 496 156 374-12 217-12q-71 0-122.5 23t-79 62-40 82.5T-37 248q0 112 16 216.5T34.5 672t99 179.5 154 123.5 212.5 47q76 0 137-51zM516 907q-74 0-139-93T276 582t-36-279q0-145 118-145 61 0 131 102 2 24 13 68l114 542q-42 37-100 37zm389 242h-65l-123 164-322-164h-90l434 387h43z"/><glyph unicode="ã" horiz-adv-x="1030" d="M649 1024h295L797 328q-9-52-9-64 0-37 22.5-57.5T891 186q29 0 67 20.5t66 43.5 73.5 62.5T1161 367h70q-13-13-56.5-58.5T1098 229t-84.5-80-93-76T831 21.5 745 0Q536 0 496 156 374-12 217-12q-71 0-122.5 23t-79 62-40 82.5T-37 248q0 112 16 216.5T34.5 672t99 179.5 154 123.5 212.5 47q76 0 137-51zM516 907q-74 0-139-93T276 582t-36-279q0-145 118-145 61 0 131 102 2 24 13 68l114 542q-42 37-100 37zm467 465l12-2q-18-75-117-140t-212-65q-70 0-180 38t-164 38q-80 0-136-53l-12 4q49 98 137 149.5t205 51.5q79 0 180.5-34t157.5-34q85 0 129 47z"/><glyph unicode="ä" horiz-adv-x="1030" d="M649 1024h295L797 328q-9-52-9-64 0-37 22.5-57.5T891 186q29 0 67 20.5t66 43.5 73.5 62.5T1161 367h70q-13-13-56.5-58.5T1098 229t-84.5-80-93-76T831 21.5 745 0Q536 0 496 156 374-12 217-12q-71 0-122.5 23t-79 62-40 82.5T-37 248q0 112 16 216.5T34.5 672t99 179.5 154 123.5 212.5 47q76 0 137-51zM516 907q-74 0-139-93T276 582t-36-279q0-145 118-145 61 0 131 102 2 24 13 68l114 542q-42 37-100 37zm-217 391q0 51 36.5 88t88.5 37q51 0 88-37t37-88q0-52-37-88t-88-36q-53 0-89 36t-36 88zm369 0q0 51 36.5 88t88.5 37q51 0 88-37t37-88q0-52-37-88t-88-36q-53 0-89 36t-36 88z"/><glyph unicode="å" horiz-adv-x="1030" d="M649 1024h295L797 328q-9-52-9-64 0-37 22.5-57.5T891 186q29 0 67 20.5t66 43.5 73.5 62.5T1161 367h70q-13-13-56.5-58.5T1098 229t-84.5-80-93-76T831 21.5 745 0Q536 0 496 156 374-12 217-12q-71 0-122.5 23t-79 62-40 82.5T-37 248q0 112 16 216.5T34.5 672t99 179.5 154 123.5 212.5 47q76 0 137-51zM516 907q-74 0-139-93T276 582t-36-279q0-145 118-145 61 0 131 102 2 24 13 68l114 542q-42 37-100 37zm148 563q72 0 109.5-43.5T811 1313q0-74-44-123t-134-49q-64 0-104 41.5T489 1284q0 66 45.5 126t129.5 60zm71-163q0 20-1.5 32.5t-7 29.5-20.5 25.5-38 8.5q-49 0-73-35t-24-80q0-76 70-76 46 0 70 25.5t24 69.5z"/><glyph unicode="æ" horiz-adv-x="1280" d="M217-12q-71 0-122.5 23t-79 62-40 82.5T-37 248q0 112 16 216.5T34.5 672t99 179.5 154 123.5 212.5 47q67 0 126-42t60-93q125 155 313 155 128 0 195.5-53.5T1262 829q0-89-44.5-166T1103 535.5t-148.5-82T799 412q-6-49-6-88 0-93 49-135t119-42q79 0 185.5 80.5T1305 418h92q-37-66-79.5-124.5T1219 180t-116-94-133.5-62.5T819 0Q709 0 635 57T532 209Q396-12 217-12zm299 919q-74 0-139-93T276 582t-36-279q0-145 118-145 67 0 158 143v25q0 123 32 262t99 246q-43 73-131 73zm623-88q0 27-4.5 50t-22 44-45.5 21q-54 0-106.5-68T873 706.5 815 510q90 1 165.5 48T1097 675.5t42 143.5z"/><glyph unicode="ç" horiz-adv-x="737" d="M190-244L279 0Q120 0 46.5 91.5T-27 336q0 95 16 187.5T44.5 709t98 163 151 114 206.5 44q225 0 225-141 0-34-10-68-22 13-51 13-22 0-66-13 10 38 10 58 0 69-76 69-81 0-148-94T283.5 634.5 250 393q0-104 31.5-161.5T399 174q186 0 357 193h69Q725 211 602 110T367 0l-56-135q66 16 109 16 63 0 95-27t32-75q0-104-74.5-164.5T301-446q-70 0-117.5 14T82-389q35 65 82 65 45 0 85.5-27.5T315-379t43.5 27 18.5 59-20 53-60 21q-49 0-107-25z"/><glyph unicode="è" horiz-adv-x="727" d="M240 324q0-93 49-135t119-42q79 0 185.5 80.5T752 418h92q-37-66-79.5-124.5T666 180 550 86 416.5 23.5 266 0Q124 0 43.5 93.5T-37 326q0 69 10 143.5t31.5 157T65 782t90 132 126 93.5 165 34.5q128 0 195.5-53.5T709 829q0-89-44.5-166T550 535.5t-148.5-82T246 412q-6-50-6-88zm346 495q0 27-4.5 50t-22 44-45.5 21q-54 0-106.5-68T320 706.5 262 510q90 1 165.5 48T544 675.5 586 819zm-240 330l-121 387h215l60-387H346z"/><glyph unicode="é" horiz-adv-x="741" d="M240 324q0-93 49-135t119-42q79 0 185.5 80.5T752 418h92q-37-66-79.5-124.5T666 180 550 86 416.5 23.5 266 0Q124 0 43.5 93.5T-37 326q0 69 10 143.5t31.5 157T65 782t90 132 126 93.5 165 34.5q128 0 195.5-53.5T709 829q0-89-44.5-166T550 535.5t-148.5-82T246 412q-6-50-6-88zm346 495q0 27-4.5 50t-22 44-45.5 21q-54 0-106.5-68T320 706.5 262 510q90 1 165.5 48T544 675.5 586 819zm-168 330l186 387h215l-248-387H418z"/><glyph unicode="ê" horiz-adv-x="727" d="M240 324q0-93 49-135t119-42q79 0 185.5 80.5T752 418h92q-37-66-79.5-124.5T666 180 550 86 416.5 23.5 266 0Q124 0 43.5 93.5T-37 326q0 69 10 143.5t31.5 157T65 782t90 132 126 93.5 165 34.5q128 0 195.5-53.5T709 829q0-89-44.5-166T550 535.5t-148.5-82T246 412q-6-50-6-88zm526 825h-66l-122 164-322-164h-90l434 387h43zM586 819q0 27-4.5 50t-22 44-45.5 21q-54 0-106.5-68T320 706.5 262 510q90 1 165.5 48T544 675.5 586 819z"/><glyph unicode="ë" horiz-adv-x="727" d="M240 324q0-93 49-135t119-42q79 0 185.5 80.5T752 418h92q-37-66-79.5-124.5T666 180 550 86 416.5 23.5 266 0Q124 0 43.5 93.5T-37 326q0 69 10 143.5t31.5 157T65 782t90 132 126 93.5 165 34.5q128 0 195.5-53.5T709 829q0-89-44.5-166T550 535.5t-148.5-82T246 412q-6-50-6-88zm346 495q0 27-4.5 50t-22 44-45.5 21q-54 0-106.5-68T320 706.5 262 510q90 1 165.5 48T544 675.5 586 819zm-439 479q0 51 36.5 88t88.5 37q51 0 88-37t37-88q0-52-37-88t-88-36q-53 0-89 36t-36 88zm369 0q0 51 36.5 88t88.5 37q51 0 88-37t37-88q0-52-37-88t-88-36q-53 0-89 36t-36 88z"/><glyph unicode="ì" horiz-adv-x="550" d="M145 1024h297L295 328q-10-38-10-66 0-37 22.5-56.5T387 186q29 0 67 20.5t66 43.5 73.5 62.5T657 367h70q-14-14-57-59t-76-79-84-80-93-76-89.5-51.5T242 0Q-12 0-12 223q0 47 12 105zm113 125l-121 387h215l60-387H258z"/><glyph unicode="í" horiz-adv-x="522" d="M145 1024h297L295 328q-10-38-10-66 0-37 22.5-56.5T387 186q29 0 67 20.5t66 43.5 73.5 62.5T657 367h70q-14-14-57-59t-76-79-84-80-93-76-89.5-51.5T242 0Q-12 0-12 223q0 47 12 105zm91 125l186 387h215l-248-387H236z"/><glyph unicode="î" horiz-adv-x="550" d="M145 1024h297L295 328q-10-38-10-66 0-37 22.5-56.5T387 186q29 0 67 20.5t66 43.5 73.5 62.5T657 367h70q-14-14-57-59t-76-79-84-80-93-76-89.5-51.5T242 0Q-12 0-12 223q0 47 12 105zm441 125h-66l-123 164-321-164h-90l434 387h43z"/><glyph unicode="ï" horiz-adv-x="550" d="M145 1024h297L295 328q-10-38-10-66 0-37 22.5-56.5T387 186q29 0 67 20.5t66 43.5 73.5 62.5T657 367h70q-14-14-57-59t-76-79-84-80-93-76-89.5-51.5T242 0Q-12 0-12 223q0 47 12 105zM41 1298q0 51 36.5 88t88.5 37q51 0 88-37t37-88q0-52-37-88t-88-36q-53 0-89 36t-36 88zm369 0q0 51 36.5 88t88.5 37q51 0 87.5-37t36.5-88q0-52-36.5-88t-87.5-36q-53 0-89 36t-36 88z"/><glyph unicode="ð" horiz-adv-x="1044" d="M580 1434h92q79-44 133-90t86-113h151l-16-82H918q10-55 10-113 0-81-21-186L797 328q-11-63-11-66 0-37 23-56.5t80-19.5q29 0 67 20.5t66 43.5 73.5 62.5T1159 367h70q-13-13-56.5-58.5T1096 229t-84.5-80-93-76T829 21.5 743 0Q536 0 496 156 374-12 217-12q-71 0-122.5 23t-79 62-40 82.5T-37 248q0 112 16 216.5T34.5 672t99 179.5 154 123.5 212.5 47q74 0 137-53l6 24q21 97 23 156H530l17 82h119q-12 104-86 203zm-64-527q-74 0-139-93T276 582t-36-279q0-145 118-145 61 0 131 102 2 24 13 68l114 542q-42 37-100 37z"/><glyph unicode="ñ" horiz-adv-x="1030" d="M913 719l-84-391q-10-38-10-66 0-37 23-56.5t80-19.5q37 0 63.5 15t67 55 63.5 59h70q-19-19-62-67.5t-78.5-85.5T964 85t-94.5-62.5T776 0Q522 0 522 223q0 42 13 105l77 368q6 27 6 54 0 55-26 87.5T524 870q-65 0-129-43L221 0H-74l217 1024h295l-24-111q153 111 268 111 86 0 161-78t75-178q0-29-5-49zm70 653l12-2q-18-75-117-140t-212-65q-70 0-180 38t-164 38q-80 0-136-53l-12 4q49 98 137 149.5t205 51.5q79 0 180.5-34t157.5-34q85 0 129 47z"/><glyph unicode="ò" horiz-adv-x="856" d="M524 1044q240 0 248-301 18-18 59-18 42 0 78 17.5t73.5 44.5 64.5 38l8-43q-47-60-123.5-107.5T766 602q-14-149-60-269T594.5 139.5 453.5 27 299-12Q133-12 59.5 65.5T-14 324q0 183 44 324t119.5 226T320 1001.5t204 42.5zM395 186q45 0 83 33.5t64.5 90.5 44 125.5T614 582q-42 0-64 26.5T528 674q0 46 25 87t65 56q-9 107-86 107-68 0-123.5-67T322 693t-47.5-190T258 342q0-87 35.5-121.5T395 186zm17 963l-121 387h215l59-387H412z"/><glyph unicode="ó" horiz-adv-x="886" d="M535 1044q239 0 247-301 18-18 60-18t77.5 17.5 73 44.5 64.5 38l8-43q-47-60-123.5-107.5T776 602q-14-149-60-269T604.5 139.5 463.5 27 309-12Q143-12 69.5 65.5T-4 324q0 183 44 324t120 226 171 127.5 204 42.5zM406 186q45 0 83 33.5t64.5 90.5 44 125.5T625 582q-42 0-64 26.5T539 674q0 46 25 87t65 56q-9 107-86 107-68 0-123.5-67t-87-164-48-190T268 342q0-87 36-121.5T406 186zm36 963l187 387h215l-248-387H442z"/><glyph unicode="ô" horiz-adv-x="856" d="M524 1044q240 0 248-301 18-18 59-18 42 0 78 17.5t73.5 44.5 64.5 38l8-43q-47-60-123.5-107.5T766 602q-14-149-60-269T594.5 139.5 453.5 27 299-12Q133-12 59.5 65.5T-14 324q0 183 44 324t119.5 226T320 1001.5t204 42.5zM395 186q45 0 83 33.5t64.5 90.5 44 125.5T614 582q-42 0-64 26.5T528 674q0 46 25 87t65 56q-9 107-86 107-68 0-123.5-67T322 693t-47.5-190T258 342q0-87 35.5-121.5T395 186zm414 963h-66l-122 164-322-164h-90l434 387h43z"/><glyph unicode="õ" horiz-adv-x="856" d="M524 1044q240 0 248-301 18-18 59-18 42 0 78 17.5t73.5 44.5 64.5 38l8-43q-47-60-123.5-107.5T766 602q-14-149-60-269T594.5 139.5 453.5 27 299-12Q133-12 59.5 65.5T-14 324q0 183 44 324t119.5 226T320 1001.5t204 42.5zM395 186q45 0 83 33.5t64.5 90.5 44 125.5T614 582q-42 0-64 26.5T528 674q0 46 25 87t65 56q-9 107-86 107-68 0-123.5-67T322 693t-47.5-190T258 342q0-87 35.5-121.5T395 186zm529 1186l12-2q-18-75-117.5-140T606 1165q-70 0-180 38t-164 38q-79 0-135-53l-12 4q49 98 137 149.5t205 51.5q79 0 180.5-34t157.5-34q85 0 129 47z"/><glyph unicode="ö" horiz-adv-x="856" d="M524 1044q240 0 248-301 18-18 59-18 42 0 78 17.5t73.5 44.5 64.5 38l8-43q-47-60-123.5-107.5T766 602q-14-149-60-269T594.5 139.5 453.5 27 299-12Q133-12 59.5 65.5T-14 324q0 183 44 324t119.5 226T320 1001.5t204 42.5zM395 186q45 0 83 33.5t64.5 90.5 44 125.5T614 582q-42 0-64 26.5T528 674q0 46 25 87t65 56q-9 107-86 107-68 0-123.5-67T322 693t-47.5-190T258 342q0-87 35.5-121.5T395 186zM213 1298q0 51 36.5 88t88.5 37q51 0 88-37t37-88q0-52-37-88t-88-36q-53 0-89 36t-36 88zm369 0q0 51 36.5 88t88.5 37q51 0 87.5-37t36.5-88q0-52-36.5-88t-87.5-36q-53 0-89 36t-36 88z"/><glyph unicode="÷" horiz-adv-x="966" d="M301 164q0 68 47.5 116T463 328t115.5-48T627 164q0-67-48-114.5T463 2q-67 0-114.5 47T301 164zm123 686q0 68 47.5 116t114.5 48q68 0 116-48t48-116q0-67-48-114.5T586 688t-115 47-47 115zm434-266l-35-162H104l37 162h717z"/><glyph unicode="ø" horiz-adv-x="856" d="M371-4L264-512H158L264-10Q117-2 51.5 75T-14 324q0 141 26.5 257.5T85 780t110 140 137 87 155 35l105 494h106l-106-500q176-39 180-293 18-18 59-18 42 0 78 17.5t73.5 44.5 64.5 38l8-43q-47-60-123.5-107.5T766 602q-13-131-50.5-240.5t-92-183.5T505 58 371-4zM258 342q0-104 51-135l148 692q-64-42-112-153.5t-67.5-218T258 342zm270 332q0 46 25 87t65 56q-6 82-51 101L412 188q55 8 98 68t67.5 142.5T614 582q-42 0-64 26.5T528 674z"/><glyph unicode="ù" horiz-adv-x="1064" d="M678 1024h295L825 328q-8-46-8-64 0-37 22.5-57.5T920 186q29 0 67 20.5t66 43.5 73.5 62.5T1190 367h70q-13-13-56.5-58.5T1127 229t-84.5-80-93-76T860 21.5 774 0Q666 0 600.5 42.5T522 172Q339 0 227 0 105 0 38 55t-67 168q0 42 13 105l147 696h295L279 328q-9-52-9-64 0-37 22.5-57.5T373 186q53 0 145 74 3 31 12 68zm-162 125l-121 387h215l60-387H516z"/><glyph unicode="ú" horiz-adv-x="1044" d="M678 1024h295L825 328q-8-46-8-64 0-37 22.5-57.5T920 186q29 0 67 20.5t66 43.5 73.5 62.5T1190 367h70q-13-13-56.5-58.5T1127 229t-84.5-80-93-76T860 21.5 774 0Q666 0 600.5 42.5T522 172Q339 0 227 0 105 0 38 55t-67 168q0 42 13 105l147 696h295L279 328q-9-52-9-64 0-37 22.5-57.5T373 186q53 0 145 74 3 31 12 68zm-189 125l187 387h215l-248-387H489z"/><glyph unicode="û" horiz-adv-x="1064" d="M678 1024h295L825 328q-8-46-8-64 0-37 22.5-57.5T920 186q29 0 67 20.5t66 43.5 73.5 62.5T1190 367h70q-13-13-56.5-58.5T1127 229t-84.5-80-93-76T860 21.5 774 0Q666 0 600.5 42.5T522 172Q339 0 227 0 105 0 38 55t-67 168q0 42 13 105l147 696h295L279 328q-9-52-9-64 0-37 22.5-57.5T373 186q53 0 145 74 3 31 12 68zm192 125h-65l-123 164-322-164h-90l435 387h43z"/><glyph unicode="ü" horiz-adv-x="1064" d="M678 1024h295L825 328q-8-46-8-64 0-37 22.5-57.5T920 186q29 0 67 20.5t66 43.5 73.5 62.5T1190 367h70q-13-13-56.5-58.5T1127 229t-84.5-80-93-76T860 21.5 774 0Q666 0 600.5 42.5T522 172Q339 0 227 0 105 0 38 55t-67 168q0 42 13 105l147 696h295L279 328q-9-52-9-64 0-37 22.5-57.5T373 186q53 0 145 74 3 31 12 68zm-35 274q0 51 36.5 88t88.5 37q51 0 88-37t37-88q0-52-37-88t-88-36q-53 0-89 36t-36 88zm-369 0q0 51 36.5 88t88.5 37q51 0 88-37t37-88q0-52-37-88t-88-36q-53 0-89 36t-36 88z"/><glyph unicode="ý" horiz-adv-x="1044" d="M688 1024h295L793 127q223 107 313 303l-8-162q-19-89-103-142.5T772 33l-41-197q-72-348-369-348-97 0-169 62t-72 159q0 55 19 99t47.5 73.5 78 56T360-20t113 36l29 140Q331 0 227 0 105 0 38 55t-67 168q0 42 13 105l147 696h295L279 328q-9-52-9-64 0-37 22.5-57.5T373 186q59 0 153 80zm-205 125l187 387h215l-248-387H483zM233-262q0-23 25-45.5t57-22.5q36 0 69 38.5T434-170l25 119q-109-36-167.5-85T233-262z"/><glyph unicode="þ" horiz-adv-x="931" d="M-197-512L123 993q24 111 24 191 0 132-88 250h93q102-55 164-119.5t83-173.5q82 45 160 45 163 0 238-66t75-221q0-63-12-143-84-590-448-590-86 0-162 43L113-438zm576 829q52 0 87.5 36.5t66 124T598 731q27 135 27 207 0 85-29.5 116t-85.5 31q-47 0-100-32 0-91-23-203L276 336q41-19 103-19z"/><glyph unicode="ÿ" horiz-adv-x="1044" d="M688 1024h295L793 127q223 107 313 303l-8-162q-19-89-103-142.5T772 33l-41-197q-72-348-369-348-97 0-169 62t-72 159q0 55 19 99t47.5 73.5 78 56T360-20t113 36l29 140Q331 0 227 0 105 0 38 55t-67 168q0 42 13 105l147 696h295L279 328q-9-52-9-64 0-37 22.5-57.5T373 186q59 0 153 80zm-416 274q0 51 36.5 88t88.5 37q51 0 88-37t37-88q0-52-37-88t-88-36q-53 0-89 36t-36 88zm369 0q0 51 36.5 88t88.5 37q51 0 88-37t37-88q0-52-37-88t-88-36q-53 0-89 36t-36 88zM233-262q0-23 25-45.5t57-22.5q36 0 69 38.5T434-170l25 119q-109-36-167.5-85T233-262z"/><glyph unicode="ı" horiz-adv-x="565" d="M145 1024h297L295 328q-10-38-10-66 0-37 22.5-56.5T387 186q29 0 67 20.5t66 43.5 73.5 62.5T657 367h70q-14-14-57-59t-76-79-84-80-93-76-89.5-51.5T242 0Q-12 0-12 223q0 47 12 105z"/><glyph unicode="Œ" horiz-adv-x="2287" d="M1290 858h316l-41-151h-305l-107-490h457L1567 0H811l2 8q-70-26-133-26-206 0-313 108T260 444q0 119 16 242.5t51.5 245 85 216.5 124 153.5T698 1360q38 0 97-17-130-171-203.5-392T518 485q0-143 41-237t121-94q85 0 173.5 137t145 341 56.5 392q0 74-6 130.5t-25 113-51 93-87 59-130 22.5q-251 0-402-133.5T203 944q0-46 6.5-76t14-44.5T231 805q-110 0-164.5 46T12 1004q0 132 108 256.5t275 200 336 75.5 287-47q146 47 330 47 35 0 152.5-12.5T1688 1511q105 0 184 25-5-14-13.5-45t-14.5-50-20.5-46.5-31.5-45-47-34.5-68-25q-99 0-286 39z"/><glyph unicode="œ" horiz-adv-x="1583" d="M524 1044q240 0 248-301 18-18 59-18 40 0 70 12 131 305 402 305 127 0 194.5-53.5T1565 829q0-89-44.5-166T1406 535.5t-148.5-82T1102 412q-6-49-6-88 0-93 49-135t119-42q79 0 185.5 80.5T1608 418h92q-37-66-79.5-124.5T1522 180t-116-94-133.5-62.5T1122 0Q980 0 899.5 93.5T819 326q0 162 45 313-54-25-98-37-14-149-60-269T594.5 139.5 453.5 27 299-12Q133-12 59.5 65.5T-14 324q0 183 44 324t119.5 226T320 1001.5t204 42.5zM395 186q45 0 83 33.5t64.5 90.5 44 125.5T614 582q-42 0-64 26.5T528 674q0 46 25 87t65 56q-9 107-86 107-68 0-123.5-67T322 693t-47.5-190T258 342q0-87 35.5-121.5T395 186zm1047 633q0 27-4.5 50t-22 44-45.5 21q-54 0-106.5-68T1176 706.5 1118 510q90 1 165.5 48T1400 675.5t42 143.5z"/><glyph unicode="Š" horiz-adv-x="1167" d="M1114 1290q0-90-46-148.5T944 1083q-55 0-92 43 41 24 66.5 74.5T944 1303q0 60-36 98.5T795 1440q-86 0-138.5-47.5T604 1262q0-65 25.5-121t66-98.5T785 958t98.5-89.5 90-101.5 66-131.5T1065 465q0-217-147.5-346T522-10q-40 0-77 2.5t-84 11-86 23T197 66t-66 58.5T87 208 70 319q0 138 87.5 216.5T371 614q144 0 166-104-124-10-182-64.5T297 285q0-65 31.5-111t76-66T500 88q77 0 129.5 42.5t74 106.5T725 381q0 78-24.5 147.5T637 650t-86 100.5-94 93.5-86 90.5-63.5 102T283 1155q0 104 71 193t182.5 138.5T770 1536q28 0 53.5-1.5t62-7.5 66-15.5 61-28.5 53-44 35-63.5 13.5-85.5zm-397 758h65l123-164 322 164h90l-434-387h-43z"/><glyph unicode="š" horiz-adv-x="831" d="M293 1004l297 61v-29q0-93 14.5-175.5t35-142 40.5-115T714.5 485 729 356q0-29-2-43 80 72 133 133l53-69q-26-20-221-187-42-89-132.5-139.5T332 0Q150 0 66 60.5T-18 268q0 118 45 188.5T137 532q84 151 156 472zm2-596q0-57-40-94.5T160 276q-34 0-74 19 0-174 174-174 60 0 115 67.5T430 365q0 50-23 120t-47 165.5T334 856q-4-13-42-143t-65-191q68-22 68-114zm67 1128h66l123-164 321 164h91l-435-387h-43z"/><glyph unicode="Ÿ" horiz-adv-x="1269" d="M897 0H569l136 631-197 768q-144-53-224.5-170.5T203 944q0-46 6.5-76t14-44.5T231 805q-110 0-164.5 46T12 1004q0 132 108 256.5t275 200 336 75.5q28 0 82-4l178-733 303 727h136l-398-895zm385 1810q0 51 36.5 88t88.5 37q51 0 88-37t37-88q0-52-37-88t-88-36q-53 0-89 36t-36 88zm-369 0q0 51 36.5 88t88.5 37q51 0 88-37t37-88q0-52-37-88t-88-36q-53 0-89 36t-36 88z"/><glyph unicode="Ž" horiz-adv-x="1085" d="M827 160q-14 0-25 16t-11 41q0 66 37 95.5t94 29.5q42 0 69-34.5t27-84.5q0-85-70-154T762 0H23l729 1450q-94 4-205 4-63 0-115.5-10t-52.5-35q14 0 24.5-17t10.5-42q0-123-129-123-42 0-69.5 34.5T188 1346q0 83 61.5 136.5T428 1536h702L418 119q94-4 297-4 112 0 112 45zM641 2048h66l122-164 322 164h90l-434-387h-43z"/><glyph unicode="ž" horiz-adv-x="784" d="M504 127q-14 0-25.5 16T467 184q0 66 37 95.5t94 29.5q42 0 69-34.5t27-84.5q0-83-61-136.5T455 0H-96l538 938q-94 4-149 4-113 0-113-45 14 0 24.5-17t10.5-42q0-123-129-123-42 0-69 34.5T-10 834q0 83 61 136.5t178 53.5h551L242 86q94-4 149-4 113 0 113 45zM317 1536h66l123-164 321 164h91l-435-387h-43z"/><glyph unicode="ƒ" horiz-adv-x="555" d="M428 942L195-164q-72-348-367-348-97 0-169.5 62T-414-291q0 55 19 99t47.5 73 79 55.5T-174-21t113 37l196 926H12l17 82h123l34 162q75 348 373 348 97 0 169.5-62t72.5-159q0-47-6-84h-97q4 40 4 55 0 34-22 52t-55 18q-43 0-83.5-38T481 1186l-35-162h152l-16-82H428zM-301-262q0-23 25-45.5t57-22.5q81 0 117 160l26 119q-108-36-166.5-85T-301-262z"/><glyph unicode="ˆ" horiz-adv-x="862" d="M702 1149h-65l-123 164-321-164h-91l435 387h43z"/><glyph unicode="ˇ" horiz-adv-x="862" d="M160 1536h65l123-164 322 164h90l-434-387h-43z"/><glyph unicode="˚" horiz-adv-x="1705" d="M866 1460q72 0 110-44t38-113q0-74-44.5-123.5T836 1130q-64 0-104 42t-40 102q0 29 10.5 60.5t30 60 54.5 47 79 18.5zm72-164q0 20-1.5 32.5T929 1358t-21 26-38 9q-49 0-72.5-35t-23.5-80q0-76 70-76 46 0 70 25t24 69z"/><glyph unicode="˜" horiz-adv-x="882" d="M909 1372l13-2q-18-75-117.5-140T592 1165q-70 0-180 38t-164 38q-79 0-135-53l-13 4q49 98 137 149.5t205 51.5q79 0 180.5-34t157.5-34q85 0 129 47z"/><glyph horiz-adv-x="1024"/><glyph horiz-adv-x="2048"/><glyph horiz-adv-x="1024"/><glyph horiz-adv-x="2048"/><glyph horiz-adv-x="682"/><glyph horiz-adv-x="512"/><glyph horiz-adv-x="341"/><glyph horiz-adv-x="341"/><glyph horiz-adv-x="256"/><glyph horiz-adv-x="409"/><glyph horiz-adv-x="113"/><glyph unicode="‐" horiz-adv-x="593" d="M485 616l-34-161H39l37 161h409z"/><glyph unicode="‑" horiz-adv-x="593" d="M485 616l-34-161H39l37 161h409z"/><glyph unicode="‒" horiz-adv-x="593" d="M485 616l-34-161H39l37 161h409z"/><glyph unicode="–" horiz-adv-x="720" d="M608 616l-35-161H39l37 161h532z"/><glyph unicode="—" horiz-adv-x="909" d="M793 616l-35-161H39l37 161h717z"/><glyph unicode="‘" horiz-adv-x="624" d="M453 1389q0-74-91-129-24-15-24-35l100-144q0-18-18-28-115 73-181.5 168T172 1397q0 60 34.5 97.5T303 1532q63 0 106.5-42t43.5-101z"/><glyph unicode="’" horiz-adv-x="624" d="M172 1389q0 59 43.5 101t106.5 42q62 0 96.5-37.5T453 1397q0-81-66.5-176T205 1053q-19 11-19 28l101 144q0 19-25 35-90 55-90 129z"/><glyph unicode="‚" horiz-adv-x="579" d="M156 156q0 59 43 101t106 42q62 0 96.5-37.5T436 164q0-81-66.5-176T188-180q-18 10-18 28L270-8q0 20-24 35-90 55-90 129z"/><glyph unicode="“" horiz-adv-x="1042" d="M887 1389q0-74-90-129-25-16-25-35l100-144q0-18-18-28-115 73-181.5 168T606 1397q0 60 34.5 97.5T737 1532q63 0 106.5-42t43.5-101zm-451 0q0-74-90-129-24-15-24-35l100-144q0-17-19-28-114 73-180.5 167.5T156 1397q0 60 34.5 97.5T287 1532q63 0 106-42t43-101z"/><glyph unicode="”" horiz-adv-x="1042" d="M156 1389q0 59 43 101t106 42q62 0 96.5-37.5T436 1397q0-81-66.5-176T188 1053q-18 10-18 28l100 144q0 20-24 35-90 55-90 129zm450 0q0 59 43.5 101t106.5 42q62 0 96.5-37.5T887 1397q0-81-66.5-176T639 1053q-18 10-18 28l100 144q0 19-25 35-90 55-90 129z"/><glyph unicode="„" horiz-adv-x="1042" d="M156 156q0 59 43 101t106 42q62 0 96.5-37.5T436 164q0-81-66.5-176T188-180q-18 10-18 28L270-8q0 20-24 35-90 55-90 129zm450 0q0 59 43.5 101T756 299q62 0 96.5-37.5T887 164q0-81-66.5-176T639-180q-18 10-18 28L721-8q0 19-25 35-90 55-90 129z"/><glyph unicode="†" horiz-adv-x="1013" d="M774 1536L633 877h309l-47-230H586L340-512H193L438 647H139l49 230h297l142 659h147z"/><glyph unicode="‡" horiz-adv-x="1013" d="M774 1536L633 877h309l-47-230H586l-45-211h311l-47-229H492L340-512H193l151 719H49l49 229h295l45 211H139l49 230h297l142 659h147z"/><glyph unicode="•" horiz-adv-x="888" d="M246 547q0 82 57 140t139 58 140.5-58T641 547t-58.5-139.5T442 350t-139 57.5T246 547z"/><glyph unicode="…" horiz-adv-x="1437" d="M63 154q0 68 47.5 115.5T225 317q68 0 116-48t48-115-48-114.5T225-8q-67 0-114.5 47T63 154zm482 0q0 68 47.5 115.5T707 317t115-47.5T870 154q0-67-47.5-114.5T707-8q-67 0-114.5 47T545 154zm502 0q0 68 47 115.5t114 47.5q68 0 116-48t48-115-48-114.5T1208-8q-67 0-114 47t-47 115z"/><glyph horiz-adv-x="409"/><glyph unicode="‰" horiz-adv-x="1865" d="M1151 1536L360 0H213l791 1536h147zm-635-98q87 0 127.5-58.5T684 1206q0-68-20.5-142.5t-57-142-96-111.5T381 766q-113 0-155 57t-42 176q0 187 91 313t241 126zm-180-375q-4-50-4-88 0-133 55-133 53 0 93 56t60.5 145 20.5 194q0 62-10.5 95.5T510 1366q-50 0-106.5-83.5T336 1063zm688-391q90 0 139-60t49-172q0-55-10.5-112.5t-35-117-60.5-106-92.5-75.5T889 0Q776 0 734 57t-42 176q0 187 91 313t241 126zM834 297q-5-63-5-88 0-133 56-133 53 0 91.5 52.5t57.5 138 19 190.5q0 60-14 99.5T995 596q-49 0-99.5-81T834 297zm780 375q90 0 139-60t49-172q0-55-10.5-112.5t-35-117-60.5-106-92.5-75.5T1479 0q-113 0-155 57t-42 176q0 187 91 313t241 126zm-191-375q-4-50-4-88 0-133 56-133 53 0 91.5 52.5t57 137.5 18.5 191q0 139-57 139-49 0-100-81t-62-218z"/><glyph unicode="‹" horiz-adv-x="735" d="M688 920l-20-113-494-287 397-237-24-117L41 487l18 84z"/><glyph unicode="›" horiz-adv-x="704" d="M154 807l18 113 504-349-23-110L31 166l28 117 492 237z"/><glyph horiz-adv-x="512"/><glyph unicode="€" horiz-adv-x="1173" d="M496 684h401l-29-102H489v-27q0-84 7-143t24.5-107 48.5-76 78-42.5T760 172q119 0 186.5 17.5T1075 254l4-59Q991 79 880.5 33.5T616-12q-67 0-127 13.5t-120.5 50-103.5 93T195 295t-27 215v72H-6l29 102h151q4 43 16 133H45l29 103h137q24 103 59.5 190.5T361 1278t124.5 136 165 89 207.5 33q59 0 110.5-9t97-30 78-52.5 51.5-78 19-104.5q0-87-34.5-138t-108.5-51q-71 0-117 53 35 10 62.5 67t27.5 101q0 14-2 28.5t-10.5 37-22.5 39-41.5 29T903 1440q-83 0-158-75t-126-189-84-256h413l-28-103H512q-13-75-16-133z"/><glyph unicode="™" horiz-adv-x="776" d="M682 887h-88l55 319-129-319h-84v268l-82-268h-49l139 430 84 12V983l136 356h96zm-463 399l-86-399H45l88 407q-58-2-90.5-30T10 1169q0-17 8-41-65 0-65 60 0 68 51.5 114t157.5 46q8 0 63.5-5.5t89.5-5.5q51 0 76 11-2-6-6-22.5t-7.5-27.5-12.5-20.5-23-9.5q-20 0-66 8t-57 10z"/><glyph unicode="−" horiz-adv-x="909" d="M793 616l-35-161H39l37 161h717z"/><glyph unicode="◼" horiz-adv-x="1075" d="M0 1075h1075V0H0v1075z"/><glyph horiz-adv-x="1507" d="M1481 762l-15-74-96-10L1227 0H932l137 649q-158-16-354-26-76-208-121-409t-45-331q0-36 4.5-59t9.5-30.5 9.5-13.5 5.5-11q-119 7-164 24-99 37-110 168-1 18-1 37 0 102 51.5 266T496 612H391q-181 0-274.5 57T23 801q0 47 28 82t67.5 54 92 30.5 91 14.5 75.5 3q154 0 299-49 81 127 165.5 232.5t175.5 190 185.5 132T1384 1538q88 0 164-31l-162-757q62 8 95 12zM821 877q101-50 244-132l20-12 142 664q-104-45-208.5-183.5T821 877zm-176 12q-116 33-192 33-121 0-188.5-27T197 819q0-47 68-80.5T459 705h82q63 116 104 184zm156-55l-53-127q142 3 294 12-125 67-241 115z"/><glyph horiz-adv-x="1208" d="M940 0H645l158 750H479q-97-234-157-475t-60-392q0-36 4.5-59t9.5-30.5 9.5-13.5 5.5-11q-119 7-164 24Q28-170 17-39q-1 18-1 37 0 96 47 248.5t125 323T375 913t225.5 311.5 248.5 226 249 87.5q88 0 164-31zM524 856h301l115 541q-107-47-214-191T524 856z"/><glyph horiz-adv-x="1310" d="M471 1303l303 40-98-454h14q81 0 149.5 52.5t105 129.5 36.5 156q0 94-56 154.5T756 1442q-251 0-402-133.5T203 944q0-46 6.5-76t14-44.5T231 805q-110 0-164.5 46T12 1004q0 132 108 256.5t275 200 336 75.5q227 0 346-95.5t119-232.5q0-92-54-179.5T991 885q119-22 175.5-104t56.5-203q0-138-66-285T977 44.5 741-57Q612-57 500 61L487 0H193zm287-512q-38 0-103-7L528 190q62-59 123-59 72 0 135.5 70T885 372.5 920 571q0 98-40 159t-122 61z"/><glyph horiz-adv-x="1134" d="M659 858h316l-41-151H627L522 217h457L936 0H180l295 1368q-63-3-109-24t-82.5-68-55.5-130-19-202q0-46 6.5-76t14.5-44.5 8-18.5q-110 0-165 46t-55 153q0 84 23.5 160t77 144.5 133 118.5 199 79.5T717 1536q35 0 152.5-12.5T1057 1511q105 0 184 25-5-14-13.5-45t-14.5-50-20-46.5-31-45-47-34.5-68-25q-100 0-287 39z"/><glyph horiz-adv-x="1650" d="M1690 1507L1354-84q-144 0-199 33t-55 131q0 46 18 123l238 1130q-100-108-214.5-326.5T955 593.5 883 326q0-13 2-17-117 6-171.5 51.5T659 504q0 107 62 291t199 505q-84-35-179-153.5T564 866 414 525.5 307 175t-39-292q0-36 4.5-59t9.5-30.5 9.5-13.5 5.5-11q-118 7-163 24Q36-171 25-42q-2 19-2 40 0 96 43.5 248.5t116.5 323T359 913t214.5 311.5 240 226T1059 1538q58 0 137-29-22-66-65.5-169.5T1059 1188q84 120 139.5 187t110 105 99.5 48 118 10q88 0 164-31z"/><glyph horiz-adv-x="1521" d="M43 0l324 1534q140 0 195.5-31t55.5-123q0-48-16-133L389 236q159 126 292.5 399.5T815 1137q93 0 135.5-79T993 846q0-163-54-359T819 184q83 35 160 137t132.5 235.5T1212 848t71 301.5 38 269.5v11q0 32-4.5 53t-9.5 28-9.5 13-5.5 10q119-7 164-24 99-37 110-168 1-18 1-37 0-83-21.5-195.5T1482 871t-98.5-254T1252 373t-158-206.5-182.5-144T711-31q-17 0-29 2t-19 5.5-20.5 10T614-2q17 68 68.5 205T756 444q-53-88-107-164T528.5 129.5 391.5 12 258-31q-41 0-111 9T43 0z"/><glyph horiz-adv-x="980" d="M942 1024L795 328q-11-46-11-70 0-76 74-76 37 0 53 6-20-63-46-103t-56.5-57.5T754 5t-56-5Q529 0 496 156 374-12 217-12q-71 0-122.5 23t-79 62-40 82.5T-37 248q0 112 16 216.5T34.5 672t99 179.5 154 123.5 212.5 47q76 0 137-51l12 53h293zM502 328l114 542q-42 37-100 37-74 0-139-93T276 582t-36-279q0-145 118-145 59 0 134 104 0 28 10 66z"/><glyph horiz-adv-x="1720" d="M649 1024h293L797 328q-11-57-11-76 0-66 64-66 33 0 86 76 0 120 45.5 191.5T1092 530q32 62 62 152t44.5 149.5T1237 999l297 62v-29q0-114 23.5-214.5t51-161 51-141T1683 356q0-73-24-136t-70.5-113T1464 28.5 1286 0q-145 0-227 37.5T950 162Q822 0 743 0 539 0 498 160 376-12 217-12q-71 0-122.5 23t-79 62-40 82.5T-37 248q0 112 16 216.5T34.5 672t99 179.5 154 123.5 212.5 47q76 0 137-51zM502 328l114 542q-42 37-100 37-74 0-139-93T276 582t-36-279q0-145 118-145 59 0 134 104 0 28 10 66zm747 80q-1-58-40.5-95t-94.5-37q-30 0-72 17-4-20-4-33 0-62 55-100.5t121-38.5q60 0 115 67.5t55 176.5q0 50-23 120t-47 165.5-26 205.5q-5-16-42-145t-64-189q67-22 67-114z"/><glyph horiz-adv-x="1001" d="M942 1024L795 328q-11-46-11-70 0-76 74-76 37 0 53 6-20-63-46-103t-56.5-57.5T754 5t-56-5Q529 0 496 156 374-12 217-12q-71 0-122.5 23t-79 62-40 82.5T-37 248q0 112 16 216.5T34.5 672t99 179.5 154 123.5 212.5 47q76 0 137-51l12 53h293zM502 328l114 542q-42 37-100 37-74 0-139-93T276 582t-36-279q0-145 118-145 59 0 134 104 0 28 10 66zm-6 821l186 387h215l-248-387H496z"/><glyph horiz-adv-x="411" d="M170 1149l125 387h215l-186-387H170z"/><glyph horiz-adv-x="1722" d="M649 1024h293L797 328q-11-57-11-76 0-66 64-66 33 0 86 76 0 120 45.5 191.5T1092 530q32 62 62 152t44.5 149.5T1237 999l297 62v-29q0-114 23.5-214.5t51-161 51-141T1683 356q0-73-24-136t-70.5-113T1464 28.5 1286 0q-145 0-227 37.5T950 162Q822 0 743 0 539 0 498 160 376-12 217-12q-71 0-122.5 23t-79 62-40 82.5T-37 248q0 112 16 216.5T34.5 672t99 179.5 154 123.5 212.5 47q76 0 137-51zM502 328l114 542q-42 37-100 37-74 0-139-93T276 582t-36-279q0-145 118-145 59 0 134 104 0 28 10 66zm747 80q-1-58-40.5-95t-94.5-37q-30 0-72 17-4-20-4-33 0-62 55-100.5t121-38.5q60 0 115 67.5t55 176.5q0 50-23 120t-47 165.5-26 205.5q-5-16-42-145t-64-189q67-22 67-114zm-753 741l186 387h215l-248-387H496z"/><glyph horiz-adv-x="1576" d="M203 1393l303 41-98-465q79 59 176 59 71 0 123.5-23t81-62 42-83 13.5-92q0-41-8-127 160 125 286 348l277 62v-37q0-112 20.5-209.5t45-155.5 45-136.5T1530 356q0-75-19.5-136.5t-61.5-112-116-79T1159 0q-157 0-238 53t-81 174q0 66 17 120.5t42.5 87 56 55.5 55.5 31.5 44 8.5q57 0 81.5-29.5T1161 408q0-58-44-102t-101-44q-40 0-72 25-6-21-6-41 0-59 42.5-92t117.5-33q58 0 107.5 66t49.5 175q0 50-19.5 120.5t-39.5 167-22 206.5q-60-85-161.5-183T809 502q-22-81-53.5-153T678 211 577.5 97.5 451.5 22 301-6 162 6 56.5 44.5t-69.5 72T-37 227q0 45 12 101zm411-639q0 83-34.5 117T498 905q-18 0-58.5-9T387 877L270 328q-16-78-16-113 0-44 21-60t69-16 94 53.5 77.5 128T571 487q-26 23-26 66 0 37 17 72t46 57q6 44 6 72z"/><glyph horiz-adv-x="737" d="M274 0Q137 0 55 82t-82 254q0 95 16 187.5T44.5 709t98 163 151 114 206.5 44q225 0 225-141 0-34-10-68H598q10 38 10 58 0 69-76 69-81 0-148-94T283.5 634.5 250 393q0-219 147-219 149 0 287 121 0-135-109-215T274 0z"/><glyph horiz-adv-x="737" d="M567 680q-43 0-70.5 27T469 772q0 56 36.5 103.5T596 924q-21 24-64 24-81 0-148-94T283.5 634.5 250 393q0-104 31.5-161.5T399 174q186 0 357 193h69q-17-19-51-64.5T713.5 222 639 143t-98-73-125.5-49.5T254 0Q-27 0-27 336q0 95 16 187.5T44.5 709t98 163 151 114 206.5 44q225 0 225-141 0-84-43-146.5T567 680z"/><glyph horiz-adv-x="862" d="M702 1149h-65l-123 164-321-164h-91l435 387h43z"/><glyph horiz-adv-x="958" d="M1028 1434L793 328q-11-46-11-70 0-76 74-76 37 0 53 6-20-63-46-103t-56.5-57.5T752 5t-56-5q-86 0-136 41t-66 113Q373-12 217-12q-71 0-122.5 23t-79 62-40 82.5T-37 248q0 112 16 216.5T34.5 672t99 179.5 154 123.5 212.5 47q72 0 137-51l90 422zM516 907q-74 0-139-93T276 582t-36-279q0-145 118-145 58 0 129 100 2 25 13 70l116 544q-43 35-100 35z"/><glyph horiz-adv-x="509" d="M446 1024L299 328q-10-42-10-70 0-76 73-76 38 0 54 6-20-63-46-103t-56.5-57.5T259 5t-56-5Q99 0 46.5 61.5T-6 225q0 51 12 103l148 696h292z"/><glyph horiz-adv-x="729" d="M250 0Q108 0 27.5 93.5T-53 326q0 69 10 143.5t31.5 157T49 782t90 132 126 93.5 165 34.5q127 0 194.5-53.5T692 829q0-89-44.5-166T533 535.5t-148.5-82T229 412q-6-50-6-88 0-177 148-177 67 0 129 34t133 98Q633 0 250 0zm319 819q0 27-4.5 50T543 913t-45 21q-54 0-106.5-68T304 706.5 246 510q90 1 165.5 48t116 117.5T569 819z"/><glyph horiz-adv-x="1386" d="M240 324q0-93 49-135t119-42q112 0 208 154 7 102 51 163t105 66q33 62 62.5 151t45 151.5T918 999l296 62v-29q0-93 15.5-175t37.5-141 44-114 37.5-117.5T1364 356q0-73-24-136t-70.5-113T1145 28.5 967 0Q814 0 731.5 41.5T625 180Q557 94 471 47T266 0Q124 0 43.5 93.5T-37 326q0 69 10 143.5t31.5 157T65 782t90 132 126 93.5 165 34.5q128 0 195.5-53.5T709 829q0-89-44.5-166T550 535.5t-148.5-82T246 412q-6-50-6-88zm690 84q-1-58-40.5-95T795 276q-34 0-74 19 0-174 174-174 60 0 115 67.5t55 176.5q0 50-23 120t-47 165.5T969 856q-4-13-42-143t-65-191q68-22 68-114zM586 819q0 27-4.5 50t-22 44-45.5 21q-54 0-106.5-68T320 706.5 262 510q90 1 165.5 48T544 675.5 586 819z"/><glyph horiz-adv-x="1478" d="M1255-53q-50 0-85 10.5t-61 30-47.5 60.5-38 88.5T985 264l-14 51Q801 173 622 87.5T276 2Q134 2 53.5 95T-27 326q0 69 10.5 143.5t32 157 60 155.5 90 132 126.5 93.5 165 34.5q127 0 194.5-53.5T719 829q0-89-44.5-166T560 535.5t-148.5-82T256 412q-6-50-6-88 0-93 49-133.5T418 150q109 0 247 75.5T942 424l-162 600h297l94-365q137 166 152 252-24-4-35-4-50 0-73 32t-23 83q0 50 39 75t100 25q51 0 87-38t36-105q0-71-62.5-184T1202 539l72-275q22-85 57-136.5t74-51.5q18 0 31 8-42-137-181-137zM596 819q0 27-4.5 50t-22 44-45.5 21q-54 0-106.5-68T330 706.5 272 510q90 1 165.5 48T554 675.5 596 819z"/><glyph horiz-adv-x="757" d="M233 0Q91 0 10.5 93.5T-70 326q0 69 10.5 143.5t32 157 60 155.5 90 132 126.5 93.5 165 34.5q127 0 194.5-53.5T676 829q0-89-44.5-166T517 535.5t-148.5-82T213 412q-6-50-6-88 0-177 147-177 67 0 129 34t133 98Q616 0 233 0zm320 819q0 27-4.5 50t-22 44-45.5 21q-54 0-106.5-68T287 706.5 229 510q90 1 165.5 48T511 675.5 553 819zm-113 330l187 387h215l-248-387H440z"/><glyph horiz-adv-x="1394" d="M240 324q0-93 49-135t119-42q106 0 200 140 4 110 48.5 174T764 530q32 62 62 152t44.5 149.5T909 999l297 62v-29q0-93 15.5-175t37.5-141 44-114 37.5-117.5T1356 356q0-153-101-254.5T958 0Q807 0 724.5 39.5T618 172Q550 89 466 44.5T266 0Q124 0 43.5 93.5T-37 326q0 69 10 143.5t31.5 157T65 782t90 132 126 93.5 165 34.5q128 0 195.5-53.5T709 829q0-89-44.5-166T550 535.5t-148.5-82T246 412q-6-50-6-88zm682 84q-1-57-41-94.5T786 276q-33 0-73 19 0-174 174-174 60 0 115 67.5t55 176.5q0 50-23 120t-47 165.5T961 856q-4-13-42-143t-65-191q68-22 68-114zM586 819q0 27-4.5 50t-22 44-45.5 21q-54 0-106.5-68T320 706.5 262 510q90 1 165.5 48T544 675.5 586 819zm-90 330l186 387h215l-248-387H496z"/><glyph horiz-adv-x="1099" d="M-299-262q0-23 25-45.5t57-22.5q36 0 70 38.5T-96-170l24 119q-109-36-168-85t-59-126zm1321 1286L874 328q-10-42-10-70 0-76 74-76 37 0 53 6-20-63-46-103t-56.5-57.5T834 5t-56-5Q674 0 621.5 61.5T569 225q0 46 13 103l147 696h293zm-113 109q-69 0-104 24t-35 86q0 42 17 73.5t44 31.5q13 0 19-2-3 69-111 69-93 0-162.5-66T487 1192l-34-168h206l-16-82H436L203-164q-18-84-50-148T84.5-413.5 2-474t-86.5-30.5-85.5-7.5q-97 0-169.5 62T-412-291q0 55 19.5 99t48 73 79.5 55.5 95 42.5 113 37l245 1170q17 84 57.5 148.5t88 101 106 60 106 31 93.5 7.5q52 0 95.5-3.5t93.5-12 88.5-26.5 71-44.5 50-68.5 17.5-95q0-65-46-108t-100-43z"/><glyph horiz-adv-x="1163" d="M-283-262q0-23 25-45.5t57-22.5q36 0 70 38.5T-80-170l25 119q-109-36-168.5-85T-283-262zm1403 1655L893 328q-10-42-10-70 0-76 73-76 38 0 54 6-20-63-46-103t-56.5-57.5T853 5t-56-5Q693 0 640.5 61.5T588 225q0 51 12 103l221 1044q-35 15-88 24t-80 9q-105 0-139-162l-45-219h190l-16-82H453L219-164q-18-84-50-148t-68.5-101.5T18-474t-86.5-30.5-85.5-7.5q-97 0-169 62t-72 159q0 55 19.5 99t48 73 79 55.5T-154-21t113 37l246 1170q18 84 50 148t69 101 83 60.5 86.5 31 84.5 7.5q86 0 185.5-22t170.5-47.5 186-71.5z"/><glyph horiz-adv-x="1609" d="M1550 1024l-147-696q-10-42-10-70 0-76 73-76 38 0 54 6-20-63-46-103t-56.5-57.5T1363 5t-56-5q-178 0-205 172Q919 0 809 0 555 0 555 223q0 47 12 105l121 590H428L201-164q-18-84-50-148T82.5-413.5 0-474t-86.5-30.5-85.5-7.5q-97 0-169.5 62T-414-291q0 55 19.5 99t48 73 79.5 55.5 95 42.5 113 37l245 1170q18 84 50 148t68.5 101.5T387 1496t86.5 30.5 85.5 7.5q97 0 169.5-62t72.5-159q0-47-6-84h-97q4 40 4 55 0 34-22 52t-55 18q-103 0-140-162l-36-168h563L862 328q-10-38-10-66 0-37 22.5-56.5T954 186q54 0 146 74 0 26 10 68l147 696h293zM-301-262q0-23 25-45.5t57-22.5q36 0 70 38.5T-98-170l24 119q-109-36-168-85t-59-126z"/><glyph horiz-adv-x="964" d="M203-12q-71 0-122.5 23t-79 62-40 82.5T-51 248q0 92 14 189.5T13.5 642 105 831.5 250.5 968t204.5 54q53 0 95.5-27t67.5-69l21 98h297L686-164q-18-84-50-148t-68.5-101.5T485-474t-86.5-30.5T313-512q-97 0-169 62T72-291q0 31 6 57t14.5 46 26.5 37.5 32.5 29.5 42 24 47 19T295-62.5t56.5 13T414-37l24 111Q331-12 203-12zm274 919q-57 0-105-48t-78.5-119.5T241 581t-31-162-9-132q0-70 38.5-99.5T350 158q52 0 119 67l127 594q-23 43-56.5 65.5T477 907zM184-262q0-23 25-45.5t57-22.5q37 0 69.5 38T387-170l14 68q-113-20-165-52t-52-108z"/><glyph horiz-adv-x="997" d="M930 188q-20-63-46-103t-56.5-57.5T773 5t-56-5Q613 0 560.5 61.5T508 225q0 51 12 103l78 368q4 28 4 47 0 53-23.5 90T510 870q-69 0-129-45L205 0H-90l297 1393 303 41-111-521q153 111 269 111 87 0 161-80t74-180q0-31-4-45l-84-391q-16-72-16-84 0-62 78-62 37 0 53 6z"/><glyph horiz-adv-x="509" d="M180 1294q0 68 47.5 116t114.5 48q68 0 116-48t48-116q0-67-48-114t-116-47-115 47-47 114zm266-270L299 328q-10-42-10-70 0-76 73-76 38 0 54 6-20-63-46-103t-56.5-57.5T259 5t-56-5Q99 0 46.5 61.5T-6 225q0 51 12 103l148 696h292z"/><glyph horiz-adv-x="987" d="M449 16l213 1008h296L709-164q-18-84-50-148t-68.5-101.5T508-474t-86.5-30.5T336-512q-97 0-169.5 62T94-291q0 55 19.5 99.5t48 74T241-62t95 42 113 36zm-3 1008L229 0H-63l217 1024h292zm-266 270q0 68 47.5 116t114.5 48q68 0 116-48t48-116q0-67-48-114t-116-47-115 47-47 114zm514 4q0 68 47.5 116t114.5 48q68 0 116-48t48-116q0-67-48-114t-116-47-115 47-47 114zM207-262q0-23 25-45.5t57-22.5q36 0 70 38.5T410-170l24 121q-108-36-167.5-86T207-262z"/><glyph horiz-adv-x="1241" d="M145 1024h297L295 328q-16-70-16-103 0-59 53-59 49 0 110 96 0 120 45.5 191.5T598 530q32 62 62 152t44.5 149.5T743 999l297 62v-29q0-93 15.5-175t37.5-141 44-114 37.5-117.5T1190 356q0-73-24-136t-70.5-113T971 28.5 793 0Q647 0 564.5 37T455 162Q333 0 242 0-12 0-12 223q0 47 12 105zm611-616q-1-58-40.5-95T621 276q-39 0-74 17 0-172 174-172 60 0 115 67.5T891 365q0 50-23 120t-47 165.5T795 856q-4-13-42-143t-65-191q68-22 68-114zm-576 886q0 68 47.5 116t114.5 48q68 0 116-48t48-116q0-67-48-114t-116-47-115 47-47 114z"/><glyph horiz-adv-x="516" d="M446 1024L299 328q-10-42-10-70 0-76 73-76 38 0 54 6-20-63-46-103t-56.5-57.5T259 5t-56-5Q99 0 46.5 61.5T-6 225q0 51 12 103l148 696h292zm-210 125l186 387h215l-248-387H236z"/><glyph horiz-adv-x="1228" d="M145 1024h297L295 328q-3-13-9-37t-10-42-4-32q0-51 56-51 49 0 114 100 0 118 45.5 188.5T598 530q32 62 62 152t44.5 149.5T743 999l297 62v-29q0-93 15.5-175t37.5-141 44-114 37.5-117.5T1190 356q0-73-24-136t-70.5-113T971 28.5 793 0Q647 0 564.5 37T455 162Q333 0 242 0-12 0-12 223q0 47 12 105zm611-616q-1-58-40.5-95T621 276q-39 0-74 17 0-172 174-172 60 0 115 67.5T891 365q0 50-23 120t-47 165.5T795 856q-4-13-42-143t-65-191q68-22 68-114zm-520 741l186 387h215l-248-387H236z"/><glyph horiz-adv-x="485" d="M-100 16l211 1008h297L158-164q-18-84-50-148T39.5-413.5-43-474t-86.5-30.5-85.5-7.5q-97 0-169.5 62T-457-291q0 55 19.5 99.5t48.5 74 79.5 55.5 95.5 42 114 36zm243 1282q0 68 47.5 116t114.5 48 115.5-48 48.5-116q0-67-48-114t-116-47-115 47-47 114zM-344-262q0-23 25-45.5t57-22.5q37 0 69.5 38t51.5 122l26 121q-109-36-169-85.5T-344-262z"/><glyph horiz-adv-x="993" d="M754 1024h221L567 748q32 4 47 4 87 0 162.5-79.5T852 494q0-24-6-48l-27-118q-2-8-6.5-27t-7-33-2.5-26q0-60 78-60 37 0 53 6-20-63-46-103t-56.5-57.5T777 5t-56-5Q617 0 564.5 61.5T512 225q0 51 12 103l21 96q4 28 4 47 0 53-23.5 90T457 598q-66 0-127-43L211 0H-84l297 1393 303 41-151-715q116 93 252.5 199.5T754 1024z"/><glyph horiz-adv-x="1001" d="M754 821q-26 17-58 17-42 0-95.5-31.5T453 702q88 48 163 48 86 0 162-77.5T854 496q0-28-6-52l-29-116q-10-38-10-66 0-37 22.5-56.5T911 186q37 0 75 28.5t86.5 80T1147 367h70q-20-20-66.5-73t-88.5-98-94-92.5T863.5 28 766 0Q644 0 577 54.5T510 219q0 54 14 109l23 94q6 27 6 53 0 55-26 88t-68 33q-64 0-131-45L211 0H-84l297 1393 303 41-147-695q253 203 283 225 83 60 138 69 20 3 50 3 38 0 59-35.5t21-66.5q0-47-44.5-85T786 811q-15 0-32 10z"/><glyph horiz-adv-x="565" d="M530 1434L295 328q-10-42-10-70 0-76 73-76 38 0 54 6-20-63-46-103t-56.5-57.5T255 5t-56-5Q95 0 42.5 61.5T-10 225q0 51 12 103l225 1065z"/><glyph horiz-adv-x="1441" d="M1425 188q-20-63-46-103t-56.5-57.5T1268 5t-56-5q-208 0-208 223 0 47 12 105l78 368q6 27 6 54 0 55-26 87.5t-68 32.5q-60 0-115-34 10-42 10-74 0-15-4-43L745 0H449l147 696q6 27 6 54 0 55-26 87.5T508 870q-64 0-125-43L207 0H-88l217 1024h295l-23-109q151 109 265 109 57 0 111.5-36t88.5-95q172 131 297 131 87 0 161.5-78t74.5-180q0-15-4-47-4-26-51.5-237T1296 246q0-64 76-64 37 0 53 6z"/><glyph horiz-adv-x="991" d="M944 188q-20-63-46-103t-56.5-57.5T787 5t-56-5Q522 0 522 223q0 42 13 105l77 368q6 27 6 54 0 55-26 87.5T524 870q-65 0-129-43L221 0H-74l217 1024h295l-24-111q153 111 268 111 87 0 161.5-78T918 766q0-7-5-47-4-26-51-237t-47-236q0-64 76-64 37 0 53 6z"/><glyph horiz-adv-x="880" d="M762 762q24 15 41.5 32t40.5 45.5 37 43.5l20-41q-45-162-137-217-8-152-53.5-277.5T599 145.5t-142-118T307-14Q140-14 63 65t-77 259q0 146 29 266.5T94.5 794t119 140 146.5 83.5 164 26.5q76 0 134.5-26.5T717 952q0-68-92-98-26 70-93 70-57 0-105-45t-78.5-112.5-51.5-149T267 466t-9-124q0-86 37.5-121T401 186q57 0 104 65t72.5 154.5T614 596q-57 11-57 84 0 55 44 105.5t93 50.5q70 0 70-56 0-12-2-18z"/><glyph horiz-adv-x="1503" d="M524 1044q240 0 248-296 15-9 39-9 47 0 87.5 18t73 54 54 66.5 51 80.5 43.5 70l223 45q0-125 21.5-233t46.5-171 46.5-145.5T1479 360q0-152-109.5-256T1063 0Q788 0 788 279q0 97 69 158t157 61q96 0 96-146 0-40-46-80.5T971 231q-58 0-86 52-8-28-8-43 0-49 38.5-79t114.5-30q90 0 134 56t44 180q0 47-17 118.5t-34.5 168T1137 856q-29-31-69.5-75.5t-60-65-50-48.5-55-42-60-27.5T764 575q-16-143-63-257.5t-111.5-185T450.5 25 299-12Q133-12 59.5 65.5T-14 324q0 183 44 324t119.5 226T320 1001.5t204 42.5zM395 186q45 0 83 33.5t64.5 90.5 44 125.5T614 582q-42 0-64 26.5T528 674q0 46 25 87t65 56q-9 107-86 107-68 0-123.5-67T322 693t-47.5-190T258 342q0-87 35.5-121.5T395 186z"/><glyph horiz-adv-x="909" d="M772 762q24 15 41.5 32t40.5 45.5 37 43.5l20-41q-45-162-137-217-8-152-53.5-277.5T609 145.5t-142-118T317-14Q150-14 73 65T-4 324q0 146 29 266.5T104.5 794 224 934t147 83.5 164 26.5q76 0 134-26.5t58-65.5q0-68-92-98-26 70-92 70-71 0-127-66.5t-86.5-164-46-190T268 342q0-86 38-121t106-35q57 0 104 65t72.5 154.5T625 596q-58 11-58 84 0 54 44.5 105t93.5 51q69 0 69-56 0-12-2-18zm-272 387l186 387h215l-248-387H500z"/><glyph horiz-adv-x="1507" d="M524 1044q240 0 248-296 15-9 39-9 47 0 87.5 18t73 54 54 66.5 51 80.5 43.5 70l223 45q0-125 21.5-233t46.5-171 46.5-145.5T1479 360q0-152-109.5-256T1063 0Q788 0 788 279q0 97 69 158t157 61q96 0 96-146 0-40-46-80.5T971 231q-58 0-86 52 0-34 5-59.5t20-50 46-37.5 78-13q88 0 131 59.5t43 184.5q0 47-17 118.5t-34.5 168T1137 856q-29-31-69.5-75.5t-60-65-50-48.5-55-42-60-27.5T764 575q-16-143-63-257.5t-111.5-185T450.5 25 299-12Q133-12 59.5 65.5T-14 324q0 183 44 324t119.5 226T320 1001.5t204 42.5zM395 186q45 0 83 33.5t64.5 90.5 44 125.5T614 582q-42 0-64 26.5T528 674q0 46 25 87t65 56q-9 107-86 107-68 0-123.5-67T322 693t-47.5-190T258 342q0-87 35.5-121.5T395 186zm88 963l187 387h215l-248-387H483z"/><glyph horiz-adv-x="778" d="M283 999l297 62v-29q0-114 23.5-214.5t51-161 51-141T729 356q0-73-24-136t-70.5-113T510 28.5 332 0Q150 0 66 60.5T-18 268q0 117 45 187t110 75q33 62 62.5 151t45 151.5T283 999zm12-591q-1-58-40.5-95T160 276q-34 0-74 19 0-174 174-174 60 0 115 67.5T430 365q0 50-23 120t-47 165.5T334 856q-4-13-42-143t-65-191q68-22 68-114z"/><glyph horiz-adv-x="587" d="M434 942L303 328q-10-42-10-72 0-74 72-74 37 0 53 6-16-51-38-87t-42.5-55.5-47-30-45.5-13T201 0Q98 0 47 60.5T-4 221q0 51 12 107l131 614H72l16 82h68l61 283 303 41q-30-140-69-324h122l-16-82H434z"/><glyph horiz-adv-x="991" d="M969 1024L821 328q-10-42-10-70 0-76 74-76 37 0 53 6-20-63-46-103t-56.5-57.5T781 5t-56-5Q547 0 520 172 337 0 227 0-27 0-27 223q0 42 13 105l143 696h301L281 328q-11-42-11-66 0-37 23-56.5t80-19.5q53 0 145 74 0 26 10 68l148 696h293z"/><glyph horiz-adv-x="1005" d="M969 1024L821 328q-10-42-10-70 0-76 74-76 37 0 53 6-20-63-46-103t-56.5-57.5T781 5t-56-5Q547 0 520 172 337 0 227 0-27 0-27 223q0 42 13 105l143 696h301L281 328q-11-42-11-66 0-37 23-56.5t80-19.5q53 0 145 74 0 26 10 68l148 696h293zm-480 125l187 387h215l-248-387H489z"/><glyph horiz-adv-x="747" d="M-70 119l-39 61q45 31 127 103.5T154 412L20 1024h297l103-481q81 74 138 161.5T618 862q-24-4-34-4-97 0-97 115 0 50 40 75t100 25q54 0 84-50.5T741 901q0-48-29.5-112T633 659.5t-95-119T442 436l27-119q8-39 14-57t18.5-38.5 33.5-28 55-7.5q51 0 137 68-18-75-49-126.5T607 49t-80.5-38T438 0q-47 0-78 4t-57.5 19T260 57t-32 59-27 83.5T174 317l-2 7q-28-23-112.5-96.5T-70 119z"/><glyph horiz-adv-x="1005" d="M129 1024h301L281 328q-11-42-11-66 0-37 23-56.5t80-19.5q58 0 155 82l160 756h297L735-164q-18-84-50-148t-68.5-101.5T534-474t-86.5-30.5T362-512q-97 0-169 62t-72 159q0 40 10 74t25.5 60 42.5 49 54 39 67 32.5T393.5-9 475 16l31 142Q333 0 227 0-27 0-27 223q0 42 13 105zM233-262q0-23 25-45.5t57-22.5q36 0 70 38.5T436-170l25 121q-108-36-168-86t-60-127z"/></font>
</defs>
</svg>
